<svg width="5in" height="3.5in" version="1.1" viewBox="0 0 127 88.9" xmlns="http://www.w3.org/2000/svg" xmlns:xlink="http://www.w3.org/1999/xlink"><rect y="-2.8e-6" width="63.5" height="88.9" fill="#fff" /><g transform="translate(-12.7 -6.3496)"><g><path d="m53.35 74.083h-3.7019c-1.7245 0-3.1125 1.3885-3.1125 3.113v3.1125c0 1.7245 1.388 3.113 3.1125 3.113h18.676c1.7245 0 3.113-1.3885 3.113-3.113v-3.1125c0-1.7245-1.3885-3.113-3.113-3.113h-3.7118" fill="#f5f3f7" stroke="#805d93" stroke-linecap="square" stroke-width=".498" /><path style="transform-box: fill-box;transform-origin: center;transform: rotate(0deg);fill: #75E76F" id="purpleicon" d="m50.355 76.749 2.3153 4.0102h-4.6306z" fill="#75e76f" /><text style="font-feature-settings: normal;font-variant-caps: normal;font-variant-ligatures: normal;font-variant-numeric: normal;line-height: 1.25" id="purpletext" x="52.850479" y="80.247276" fill="#000000" font-family="'Times New Roman'" font-size="4.2333px" letter-spacing="0px" stroke-width=".13126" word-spacing="0px" xml:space="preserve">6+: Up</text><text style="font-feature-settings: normal;font-variant-caps: normal;font-variant-ligatures: normal;font-variant-numeric: normal;line-height: 1.25" x="53.765072" y="75.242363" fill="#805d93" font-family="Impact" font-size="3.16px" font-stretch="condensed" letter-spacing=".25px" stroke="#f5f3f7" stroke-width=".254" word-spacing="0px" xml:space="preserve"><tspan x="53.765072" y="75.242363" stroke-width=".254">PURPLE</tspan></text><path d="m25.833 74.083h-5.2894c-1.7245 0-3.1125 1.3885-3.1125 3.113v3.1125c0 1.7245 1.388 3.113 3.1125 3.113h18.676c1.7245 0 3.113-1.3885 3.113-3.113v-3.1125c0-1.7245-1.3885-3.113-3.113-3.113h-5.2993" fill="#f5f3f7" stroke="#98b9f2" stroke-linecap="square" stroke-width=".498" /><path style="transform-box: fill-box;transform-origin: center;transform: rotate(90deg);fill: #E3CD7D" id="blueicon" d="m21.25 76.749 2.3153 4.0102h-4.6306z" fill="#75e76f" /><text style="font-feature-settings: normal;font-variant-caps: normal;font-variant-ligatures: normal;font-variant-numeric: normal;line-height: 1.25" id="bluetext" x="23.746231" y="80.247276" fill="#000000" font-family="'Times New Roman'" font-size="4.2333px" letter-spacing="0px" stroke-width=".13126" word-spacing="0px" xml:space="preserve">Nothing</text><text style="font-feature-settings: normal;font-variant-caps: normal;font-variant-ligatures: normal;font-variant-numeric: normal;line-height: 1.25" x="26.475378" y="75.242363" fill="#98b9f2" font-family="Impact" font-size="3.16px" font-stretch="condensed" letter-spacing=".25px" stroke="#f5f3f7" stroke-width=".254" word-spacing="0px" xml:space="preserve"><tspan x="26.475378" y="75.242363" stroke-width=".254">BLUE</tspan></text><path d="m53.879 60.854h-4.2311c-1.7245 0-3.1125 1.3885-3.1125 3.113v3.1125c0 1.7245 1.388 3.113 3.1125 3.113h18.676c1.7245 0 3.113-1.3885 3.113-3.113v-3.1125c0-1.7245-1.3885-3.113-3.113-3.113h-4.241" fill="#f5f3f7" stroke="#9ebd6e" stroke-linecap="square" stroke-width=".498" /><path style="transform-box: fill-box;transform-origin: center;transform: rotate(90deg);fill: #E3CD7D" id="greenicon" d="m50.355 63.519 2.3153 4.0102h-4.6306z" fill="#75e76f" /><text style="font-feature-settings: normal;font-variant-caps: normal;font-variant-ligatures: normal;font-variant-numeric: normal;line-height: 1.25" id="greentext" x="52.850479" y="67.017937" fill="#000000" font-family="'Times New Roman'" font-size="4.2333px" letter-spacing="0px" stroke-width=".13126" word-spacing="0px" xml:space="preserve">Nothing</text><text style="font-feature-settings: normal;font-variant-caps: normal;font-variant-ligatures: normal;font-variant-numeric: normal;line-height: 1.25" x="54.604458" y="62.01302" fill="#9ebd6e" font-family="Impact" font-size="3.16px" font-stretch="condensed" letter-spacing=".25px" stroke="#f5f3f7" stroke-width=".254" word-spacing="0px" xml:space="preserve"><tspan x="54.604458" y="62.01302" stroke-width=".254">GREEN</tspan></text><path d="m23.717 60.854h-3.1728c-1.7245 0-3.1125 1.3885-3.1125 3.113v3.1125c0 1.7245 1.388 3.113 3.1125 3.113h18.676c1.7245 0 3.113-1.3885 3.113-3.113v-3.1125c0-1.7245-1.3885-3.113-3.113-3.113h-3.1826" fill="#f5f3f7" stroke="#d8f353" stroke-linecap="square" stroke-width=".498" /><path style="transform-box: fill-box;transform-origin: center;transform: rotate(90deg);fill: #E3CD7D" id="yellowicon" d="m21.25 63.519 2.3153 4.0102h-4.6306z" fill="#75e76f" /><text style="font-feature-settings: normal;font-variant-caps: normal;font-variant-ligatures: normal;font-variant-numeric: normal;line-height: 1.25" id="yellowtext" x="23.746311" y="67.017899" fill="#000000" font-family="'Times New Roman'" font-size="4.2333px" letter-spacing="0px" stroke-width=".13126" word-spacing="0px" xml:space="preserve">Nothing</text><text style="font-feature-settings: normal;font-variant-caps: normal;font-variant-ligatures: normal;font-variant-numeric: normal;line-height: 1.25" x="24.532837" y="62.012962" fill="#d8f353" font-family="Impact" font-size="3.16px" font-stretch="condensed" letter-spacing=".25px" stroke="#f5f3f7" stroke-width=".254" word-spacing="0px" xml:space="preserve"><tspan x="24.532837" y="62.012962" stroke-width=".254">YELLOW</tspan></text><path d="m52.821 47.625h-3.1728c-1.7245 0-3.1125 1.3885-3.1125 3.113v3.1125c0 1.7245 1.388 3.113 3.1125 3.113h18.676c1.7245 0 3.113-1.3885 3.113-3.113v-3.1125c0-1.7245-1.3885-3.113-3.113-3.113h-3.1826" fill="#f5f3f7" stroke="#f78764" stroke-linecap="square" stroke-width=".49804" /><path style="transform-box: fill-box;transform-origin: center;transform: rotate(180deg);fill: #F46767" id="orangeicon" d="m50.355 50.29 2.3153 4.0102h-4.6306z" fill="#75e76f" /><g word-spacing="0px"><g><text style="font-feature-settings: normal;font-variant-caps: normal;font-variant-ligatures: normal;font-variant-numeric: normal;line-height: 1.25" id="orangetext" x="52.850479" y="53.788578" fill="#000000" font-family="'Times New Roman'" font-size="4.2333px" letter-spacing="0px" stroke-width=".13126" xml:space="preserve">6+: Down</text><text style="font-feature-settings: normal;font-variant-caps: normal;font-variant-ligatures: normal;font-variant-numeric: normal;line-height: 1.25" x="53.434879" y="48.783638" fill="#f78764" font-family="Impact" font-size="3.16px" font-stretch="condensed" letter-spacing=".25px" stroke="#f5f3f7" stroke-width=".254" xml:space="preserve"><tspan x="53.434879" y="48.783638" stroke-width=".254">ORANGE</tspan></text><text style="font-feature-settings: normal;font-variant-caps: normal;font-variant-ligatures: normal;font-variant-numeric: normal;line-height: 1.25" x="25.875013" y="15.902897" fill="#000000" font-family="'Abril Fatface'" font-size="4.9761px" letter-spacing="0px" stroke-width=".1244" xml:space="preserve"><tspan style="font-feature-settings: normal;font-variant-caps: normal;font-variant-ligatures: normal;font-variant-numeric: normal" x="25.875013" y="15.902897">The Daily Times</tspan><tspan style="font-feature-settings: normal;font-variant-caps: normal;font-variant-ligatures: normal;font-variant-numeric: normal" x="25.875013" y="22.123068"></tspan></text></g><text style="font-feature-settings: normal;font-variant-caps: normal;font-variant-ligatures: normal;font-variant-numeric: normal;line-height: 1.25" id="toptext" x="44.406624" y="23.465977" fill="#000000" font-family="Impact" font-size="6.1269px" font-stretch="condensed" letter-spacing="0px" stroke-width=".15317" text-align="center" text-anchor="middle" xml:space="preserve"><tspan x="44.406624" y="23.465977">CAR BREAKAGE TREND</tspan><tspan x="44.406624" y="31.124567">DISCOVERED</tspan></text></g></g><path d="m15.875 15.875h57.15" fill="none" stroke="#000" stroke-width=".165" /><g><path d="m26.731 47.625h-6.1872c-1.7245 0-3.1125 1.3885-3.1125 3.113v3.1125c0 1.7245 1.388 3.113 3.1125 3.113h18.676c1.7245 0 3.113-1.3885 3.113-3.113v-3.1125c0-1.7245-1.3885-3.113-3.113-3.113h-6.1867" fill="#f5f3f7" stroke="#c42021" stroke-linecap="square" stroke-width=".49804" /><path style="transform-box: fill-box;transform-origin: center;transform: rotate(180deg);fill: #F46767" id="redicon" d="m21.251 50.29 2.3153 4.0102h-4.6306z" fill="#75e76f" /><text style="font-feature-settings: normal;font-variant-caps: normal;font-variant-ligatures: normal;font-variant-numeric: normal;line-height: 1.25" id="redtext" x="23.746363" y="53.788811" fill="#000000" font-family="'Times New Roman'" font-size="4.2333px" letter-spacing="0px" stroke-width=".13126" word-spacing="0px" xml:space="preserve">6+: Down</text><text style="font-feature-settings: normal;font-variant-caps: normal;font-variant-ligatures: normal;font-variant-numeric: normal;line-height: 1.25" x="27.241608" y="48.836327" fill="#c42021" font-family="Impact" font-size="3.16px" font-stretch="condensed" letter-spacing=".25px" stroke="#f5f3f7" stroke-width=".254" word-spacing="0px" xml:space="preserve"><tspan style="font-feature-settings: normal;font-variant-caps: normal;font-variant-ligatures: normal;font-variant-numeric: normal" x="27.241608" y="48.836327" fill="#c42021" font-family="Impact" font-size="3.16px" font-stretch="condensed" stroke="#f5f3f7" stroke-width=".254">RED</tspan></text></g><path d="m15.875 42.863h57.15" fill="none" stroke="#000" stroke-width=".165" /><path d="m15.875 87.313h57.15" fill="none" stroke="#000" stroke-width=".165" /><text style="font-feature-settings: normal;font-variant-caps: normal;font-variant-ligatures: normal;font-variant-numeric: normal;line-height: 1.25" id="bottomtext" x="44.484871" y="92.228226" fill="#595959" font-family="'Times New Roman'" font-size="3.6622px" letter-spacing=".5px" stroke-width=".091557" text-align="center" text-anchor="middle" word-spacing="0px" xml:space="preserve">PLUTOCRACY | CARD 063</text></g></svg>
