<?xml version="1.0" encoding="UTF-8" standalone="no"?>
<!-- Created with Inkscape (http://www.inkscape.org/) -->

<svg
   xmlns:osb="http://www.openswatchbook.org/uri/2009/osb"
   xmlns:dc="http://purl.org/dc/elements/1.1/"
   xmlns:cc="http://creativecommons.org/ns#"
   xmlns:rdf="http://www.w3.org/1999/02/22-rdf-syntax-ns#"
   xmlns:svg="http://www.w3.org/2000/svg"
   xmlns="http://www.w3.org/2000/svg"
   xmlns:sodipodi="http://sodipodi.sourceforge.net/DTD/sodipodi-0.dtd"
   xmlns:inkscape="http://www.inkscape.org/namespaces/inkscape"
   width="32in"
   height="16in"
   viewBox="0 0 812.80001 406.40001"
   version="1.1"
   id="svg8"
   inkscape:version="0.92.4 (5da689c313, 2019-01-14)"
   sodipodi:docname="bowl-sketch.svg">
  <defs
     id="defs2">
    <linearGradient
       id="linearGradient874"
       osb:paint="solid">
      <stop
         style="stop-color:#000000;stop-opacity:1;"
         offset="0"
         id="stop872" />
    </linearGradient>
  </defs>
  <sodipodi:namedview
     id="base"
     pagecolor="#ffffff"
     bordercolor="#666666"
     borderopacity="1.0"
     inkscape:pageopacity="0.0"
     inkscape:pageshadow="2"
     inkscape:zoom="0.35355339"
     inkscape:cx="1311.0386"
     inkscape:cy="1125.8637"
     inkscape:document-units="in"
     inkscape:current-layer="layer1"
     showgrid="false"
     inkscape:window-width="1920"
     inkscape:window-height="1017"
     inkscape:window-x="-8"
     inkscape:window-y="-8"
     inkscape:window-maximized="1"
     units="in"
     inkscape:snap-bbox="true"
     inkscape:snap-bbox-midpoints="true"
     inkscape:snap-bbox-edge-midpoints="true"
     inkscape:snap-center="true"
     inkscape:bbox-nodes="true"
     inkscape:snap-smooth-nodes="true"
     inkscape:snap-intersection-paths="true"
     inkscape:snap-midpoints="true"
     inkscape:snap-global="false" />
  <metadata
     id="metadata5">
    <rdf:RDF>
      <cc:Work
         rdf:about="">
        <dc:format>image/svg+xml</dc:format>
        <dc:type
           rdf:resource="http://purl.org/dc/dcmitype/StillImage" />
        <dc:title></dc:title>
        <cc:license
           rdf:resource="http://creativecommons.org/publicdomain/zero/1.0/" />
      </cc:Work>
      <cc:License
         rdf:about="http://creativecommons.org/publicdomain/zero/1.0/">
        <cc:permits
           rdf:resource="http://creativecommons.org/ns#Reproduction" />
        <cc:permits
           rdf:resource="http://creativecommons.org/ns#Distribution" />
        <cc:permits
           rdf:resource="http://creativecommons.org/ns#DerivativeWorks" />
      </cc:License>
    </rdf:RDF>
  </metadata>
  <g
     inkscape:label="Layer 1"
     inkscape:groupmode="layer"
     id="layer1"
     transform="translate(0,109.40001)">
    <path
       inkscape:connector-curvature="0"
       style="opacity:1;fill:none;fill-opacity:1;stroke:#0000ff;stroke-width:0.26458335;stroke-linecap:square;stroke-linejoin:miter;stroke-miterlimit:4;stroke-dasharray:none;stroke-opacity:1"
       d="m 226.52579,21.752261 a 47.247024,47.247024 0 0 0 -5.94795,0.820101 l 3.9181,14.622885 a 32.127978,32.127978 0 0 0 -6.13296,1.6459 l -3.915,-14.611004 a 47.247024,47.247024 0 0 0 -5.55315,2.270151 l 7.59023,13.146483 a 32.127978,32.127978 0 0 0 -5.49889,3.175 l -7.5861,-13.138731 a 47.247024,47.247024 0 0 0 -4.74544,3.667471 l 10.6996,10.69961 a 32.127978,32.127978 0 0 0 -4.49223,4.4881 l -10.71459,-10.7146 a 47.247024,47.247024 0 0 0 -3.66696,4.7532 l 13.14442,7.5892 a 32.127978,32.127978 0 0 0 -3.17345,5.49993 l -13.11238,-7.5706 a 47.247024,47.247024 0 0 0 -2.30322,5.53661 l 14.64252,3.92328 a 32.127978,32.127978 0 0 0 -1.64435,6.13399 l -14.67714,-3.93309 a 47.247024,47.247024 0 0 0 -0.74414,5.95571 h 15.11897 a 32.127978,32.127978 0 0 0 -0.15916,3.175 32.127978,32.127978 0 0 0 0.19017,3.175 H 182.5662 a 47.247024,47.247024 0 0 0 0.82011,5.94795 l 14.62288,-3.9181 a 32.127978,32.127978 0 0 0 1.64641,6.13296 l -14.61151,3.91501 a 47.247024,47.247024 0 0 0 2.27014,5.55314 l 13.14649,-7.59023 a 32.127978,32.127978 0 0 0 3.175,5.49889 l -13.13925,7.5861 a 47.247024,47.247024 0 0 0 3.66747,4.74597 l 10.70013,-10.70013 a 32.127978,32.127978 0 0 0 4.48861,4.49172 l -10.71511,10.715133 a 47.247024,47.247024 0 0 0 4.7532,3.66646 l 7.5892,-13.144463 a 32.127978,32.127978 0 0 0 5.49992,3.17397 l -7.57059,13.112443 a 47.247024,47.247024 0 0 0 5.53609,2.30323 l 3.92328,-14.642593 a 32.127978,32.127978 0 0 0 6.13399,1.644343 l -3.93309,14.67722 a 47.247024,47.247024 0 0 0 5.95622,0.74415 v -15.11906 a 32.127978,32.127978 0 0 0 3.175,0.15916 32.127978,32.127978 0 0 0 3.175,-0.19017 v 15.19658 a 47.247024,47.247024 0 0 0 5.94744,-0.82011 l -3.9181,-14.62296 a 32.127978,32.127978 0 0 0 6.13295,-1.645903 l 3.91501,14.611073 a 47.247024,47.247024 0 0 0 5.55315,-2.27016 l -7.59023,-13.146543 a 32.127978,32.127978 0 0 0 5.4994,-3.17501 l 7.5861,13.139303 a 47.247024,47.247024 0 0 0 4.74597,-3.6675 L 250.04735,93.723577 a 32.127978,32.127978 0 0 0 4.49172,-4.48861 l 10.71511,10.71511 a 47.247024,47.247024 0 0 0 3.66696,-4.7532 l -13.14494,-7.5892 a 32.127978,32.127978 0 0 0 3.17345,-5.49992 l 13.1129,7.57059 a 47.247024,47.247024 0 0 0 2.30321,-5.53609 l -14.64303,-3.92379 a 32.127978,32.127978 0 0 0 1.64486,-6.13348 l 14.67714,3.93258 a 47.247024,47.247024 0 0 0 0.74414,-5.95571 H 261.6699 a 32.127978,32.127978 0 0 0 0.15865,-3.175 32.127978,32.127978 0 0 0 -0.19017,-3.175 h 15.19649 a 47.247024,47.247024 0 0 0 -0.82011,-5.94796 l -14.62236,3.91811 a 32.127978,32.127978 0 0 0 -1.64641,-6.13296 l 14.61099,-3.91501 a 47.247024,47.247024 0 0 0 -2.26911,-5.55263 l -13.147,7.59023 a 32.127978,32.127978 0 0 0 -3.17552,-5.4994 l 13.13977,-7.58611 a 47.247024,47.247024 0 0 0 -3.668,-4.74544 l -10.6996,10.6996 a 32.127978,32.127978 0 0 0 -4.48862,-4.49171 l 10.71511,-10.71511 a 47.247024,47.247024 0 0 0 -4.75371,-3.666441 l -7.58869,13.144421 a 32.127978,32.127978 0 0 0 -5.50044,-3.17345 l 7.5706,-13.112903 a 47.247024,47.247024 0 0 0 -5.5361,-2.303221 l -3.92379,14.642524 a 32.127978,32.127978 0 0 0 -6.13347,-1.64435 l 3.93309,-14.677135 a 47.247024,47.247024 0 0 0 -5.95571,-0.744151 v 15.118986 a 32.127978,32.127978 0 0 0 -3.175,-0.15865 32.127978,32.127978 0 0 0 -3.175,0.18965 z"
       id="path872" />
    <rect
       style="opacity:1;fill:none;fill-opacity:1;stroke:#0000ff;stroke-width:0.26458334;stroke-linecap:square;stroke-linejoin:miter;stroke-miterlimit:4;stroke-dasharray:none;stroke-opacity:1"
       id="rect974"
       width="15.14998"
       height="6.3500004"
       x="589.00818"
       y="43.783913" />
    <rect
       y="31.546913"
       x="588.94202"
       height="6.3500004"
       width="15.14998"
       id="rect976"
       style="opacity:1;fill:none;fill-opacity:1;stroke:#0000ff;stroke-width:0.26458334;stroke-linecap:square;stroke-linejoin:miter;stroke-miterlimit:4;stroke-dasharray:none;stroke-opacity:1" />
    <rect
       y="67.794838"
       x="589.27277"
       height="6.3500004"
       width="15.14998"
       id="rect978"
       style="opacity:1;fill:none;fill-opacity:1;stroke:#0000ff;stroke-width:0.26458334;stroke-linecap:square;stroke-linejoin:miter;stroke-miterlimit:4;stroke-dasharray:none;stroke-opacity:1" />
    <rect
       style="opacity:1;fill:none;fill-opacity:1;stroke:#0000ff;stroke-width:0.26458334;stroke-linecap:square;stroke-linejoin:miter;stroke-miterlimit:4;stroke-dasharray:none;stroke-opacity:1"
       id="rect980"
       width="15.14998"
       height="6.3500004"
       x="589.2066"
       y="55.557869" />
    <rect
       y="38.171242"
       x="564.3125"
       height="6.3500004"
       width="15.14998"
       id="rect982"
       style="opacity:1;fill:none;fill-opacity:1;stroke:#0000ff;stroke-width:0.26458334;stroke-linecap:square;stroke-linejoin:miter;stroke-miterlimit:4;stroke-dasharray:none;stroke-opacity:1" />
    <rect
       style="opacity:1;fill:none;fill-opacity:1;stroke:#0000ff;stroke-width:0.26458334;stroke-linecap:square;stroke-linejoin:miter;stroke-miterlimit:4;stroke-dasharray:none;stroke-opacity:1"
       id="rect984"
       width="15.14998"
       height="6.3500004"
       x="564.24634"
       y="25.934273" />
    <rect
       style="opacity:1;fill:none;fill-opacity:1;stroke:#0000ff;stroke-width:0.26458334;stroke-linecap:square;stroke-linejoin:miter;stroke-miterlimit:4;stroke-dasharray:none;stroke-opacity:1"
       id="rect986"
       width="15.14998"
       height="6.3500004"
       x="564.57709"
       y="62.182167" />
    <rect
       y="49.945198"
       x="564.51093"
       height="6.3500004"
       width="15.14998"
       id="rect988"
       style="opacity:1;fill:none;fill-opacity:1;stroke:#0000ff;stroke-width:0.26458334;stroke-linecap:square;stroke-linejoin:miter;stroke-miterlimit:4;stroke-dasharray:none;stroke-opacity:1" />
    <rect
       style="opacity:1;fill:none;fill-opacity:1;stroke:#0000ff;stroke-width:0.26458334;stroke-linecap:square;stroke-linejoin:miter;stroke-miterlimit:4;stroke-dasharray:none;stroke-opacity:1"
       id="rect990"
       width="15.14998"
       height="6.3500004"
       x="539.52057"
       y="39.682869" />
    <rect
       y="27.445869"
       x="539.45441"
       height="6.3500004"
       width="15.14998"
       id="rect992"
       style="opacity:1;fill:none;fill-opacity:1;stroke:#0000ff;stroke-width:0.26458334;stroke-linecap:square;stroke-linejoin:miter;stroke-miterlimit:4;stroke-dasharray:none;stroke-opacity:1" />
    <rect
       y="63.693794"
       x="539.78516"
       height="6.3500004"
       width="15.14998"
       id="rect994"
       style="opacity:1;fill:none;fill-opacity:1;stroke:#0000ff;stroke-width:0.26458334;stroke-linecap:square;stroke-linejoin:miter;stroke-miterlimit:4;stroke-dasharray:none;stroke-opacity:1" />
    <rect
       style="opacity:1;fill:none;fill-opacity:1;stroke:#0000ff;stroke-width:0.26458334;stroke-linecap:square;stroke-linejoin:miter;stroke-miterlimit:4;stroke-dasharray:none;stroke-opacity:1"
       id="rect996"
       width="15.14998"
       height="6.3500004"
       x="539.71899"
       y="51.456825" />
    <rect
       y="94.199348"
       x="627.0293"
       height="6.3500004"
       width="15.14998"
       id="rect998"
       style="opacity:1;fill:none;fill-opacity:1;stroke:#0000ff;stroke-width:0.26458334;stroke-linecap:square;stroke-linejoin:miter;stroke-miterlimit:4;stroke-dasharray:none;stroke-opacity:1" />
    <rect
       style="opacity:1;fill:none;fill-opacity:1;stroke:#0000ff;stroke-width:0.26458334;stroke-linecap:square;stroke-linejoin:miter;stroke-miterlimit:4;stroke-dasharray:none;stroke-opacity:1"
       id="rect1000"
       width="15.14998"
       height="6.3500004"
       x="626.96313"
       y="81.962379" />
    <rect
       style="opacity:1;fill:none;fill-opacity:1;stroke:#0000ff;stroke-width:0.26458334;stroke-linecap:square;stroke-linejoin:miter;stroke-miterlimit:4;stroke-dasharray:none;stroke-opacity:1"
       id="rect1002"
       width="15.14998"
       height="6.3500004"
       x="627.29388"
       y="118.21027" />
    <rect
       y="105.9733"
       x="627.22772"
       height="6.3500004"
       width="15.14998"
       id="rect1004"
       style="opacity:1;fill:none;fill-opacity:1;stroke:#0000ff;stroke-width:0.26458334;stroke-linecap:square;stroke-linejoin:miter;stroke-miterlimit:4;stroke-dasharray:none;stroke-opacity:1" />
    <rect
       style="opacity:1;fill:none;fill-opacity:1;stroke:#0000ff;stroke-width:0.26458334;stroke-linecap:square;stroke-linejoin:miter;stroke-miterlimit:4;stroke-dasharray:none;stroke-opacity:1"
       id="rect1006"
       width="15.14998"
       height="6.3500004"
       x="655.84094"
       y="71.374519" />
    <rect
       y="59.13755"
       x="655.77478"
       height="6.3500004"
       width="15.14998"
       id="rect1008"
       style="opacity:1;fill:none;fill-opacity:1;stroke:#0000ff;stroke-width:0.26458334;stroke-linecap:square;stroke-linejoin:miter;stroke-miterlimit:4;stroke-dasharray:none;stroke-opacity:1" />
    <rect
       y="95.385445"
       x="656.10553"
       height="6.3500004"
       width="15.14998"
       id="rect1010"
       style="opacity:1;fill:none;fill-opacity:1;stroke:#0000ff;stroke-width:0.26458334;stroke-linecap:square;stroke-linejoin:miter;stroke-miterlimit:4;stroke-dasharray:none;stroke-opacity:1" />
    <rect
       style="opacity:1;fill:none;fill-opacity:1;stroke:#0000ff;stroke-width:0.26458334;stroke-linecap:square;stroke-linejoin:miter;stroke-miterlimit:4;stroke-dasharray:none;stroke-opacity:1"
       id="rect1012"
       width="15.14998"
       height="6.3500004"
       x="656.03937"
       y="83.148476" />
    <path
       style="color:#000000;font-style:normal;font-variant:normal;font-weight:normal;font-stretch:normal;font-size:medium;line-height:normal;font-family:sans-serif;font-variant-ligatures:normal;font-variant-position:normal;font-variant-caps:normal;font-variant-numeric:normal;font-variant-alternates:normal;font-feature-settings:normal;text-indent:0;text-align:start;text-decoration:none;text-decoration-line:none;text-decoration-style:solid;text-decoration-color:#000000;letter-spacing:normal;word-spacing:normal;text-transform:none;writing-mode:lr-tb;direction:ltr;text-orientation:mixed;dominant-baseline:auto;baseline-shift:baseline;text-anchor:start;white-space:normal;shape-padding:0;clip-rule:nonzero;display:inline;overflow:visible;visibility:visible;opacity:1;isolation:auto;mix-blend-mode:normal;color-interpolation:sRGB;color-interpolation-filters:linearRGB;solid-color:#000000;solid-opacity:1;vector-effect:none;fill:none;fill-opacity:1;fill-rule:nonzero;stroke:#0000ff;stroke-width:0.26458335;stroke-linecap:square;stroke-linejoin:miter;stroke-miterlimit:4;stroke-dasharray:none;stroke-dashoffset:0;stroke-opacity:1;color-rendering:auto;image-rendering:auto;shape-rendering:auto;text-rendering:auto;enable-background:accumulate"
       d="m 229.69937,-93.038452 c -89.31589,1e-5 -161.92373,72.609812 -161.92373,161.925705 0,89.316017 72.60784,161.923947 161.92373,161.923947 89.3159,0 161.92578,-72.60793 161.92578,-161.923947 0,-89.315893 -72.60988,-161.925705 -161.92578,-161.925705 z"
       id="circle845"
       inkscape:connector-curvature="0"
       sodipodi:nodetypes="sssss" />
    <path
       style="color:#000000;font-style:normal;font-variant:normal;font-weight:normal;font-stretch:normal;font-size:medium;line-height:normal;font-family:sans-serif;font-variant-ligatures:normal;font-variant-position:normal;font-variant-caps:normal;font-variant-numeric:normal;font-variant-alternates:normal;font-feature-settings:normal;text-indent:0;text-align:start;text-decoration:none;text-decoration-line:none;text-decoration-style:solid;text-decoration-color:#000000;letter-spacing:normal;word-spacing:normal;text-transform:none;writing-mode:lr-tb;direction:ltr;text-orientation:mixed;dominant-baseline:auto;baseline-shift:baseline;text-anchor:start;white-space:normal;shape-padding:0;clip-rule:nonzero;display:inline;overflow:visible;visibility:visible;opacity:1;isolation:auto;mix-blend-mode:normal;color-interpolation:sRGB;color-interpolation-filters:linearRGB;solid-color:#000000;solid-opacity:1;vector-effect:none;fill:none;fill-opacity:1;fill-rule:nonzero;stroke:#0000ff;stroke-width:0.26458335;stroke-linecap:square;stroke-linejoin:miter;stroke-miterlimit:4;stroke-dasharray:none;stroke-dashoffset:0;stroke-opacity:1;color-rendering:auto;image-rendering:auto;shape-rendering:auto;text-rendering:auto;enable-background:accumulate"
       d="m 229.69937,-73.9897 c -78.79486,0 -142.874925,64.0820857 -142.874925,142.876953 0,78.794987 64.080065,142.875127 142.874925,142.875127 78.79487,0 142.87696,-64.08014 142.87696,-142.875127 0,-78.7948673 -64.08209,-142.876953 -142.87696,-142.876953 z"
       id="circle847"
       inkscape:connector-curvature="0"
       sodipodi:nodetypes="sssss" />
    <path
       style="color:#000000;font-style:normal;font-variant:normal;font-weight:normal;font-stretch:normal;font-size:medium;line-height:normal;font-family:sans-serif;font-variant-ligatures:normal;font-variant-position:normal;font-variant-caps:normal;font-variant-numeric:normal;font-variant-alternates:normal;font-feature-settings:normal;text-indent:0;text-align:start;text-decoration:none;text-decoration-line:none;text-decoration-style:solid;text-decoration-color:#000000;letter-spacing:normal;word-spacing:normal;text-transform:none;writing-mode:lr-tb;direction:ltr;text-orientation:mixed;dominant-baseline:auto;baseline-shift:baseline;text-anchor:start;white-space:normal;shape-padding:0;clip-rule:nonzero;display:inline;overflow:visible;visibility:visible;opacity:1;isolation:auto;mix-blend-mode:normal;color-interpolation:sRGB;color-interpolation-filters:linearRGB;solid-color:#000000;solid-opacity:1;vector-effect:none;fill:none;fill-opacity:1;fill-rule:nonzero;stroke:#0000ff;stroke-width:0.26458335;stroke-linecap:square;stroke-linejoin:miter;stroke-miterlimit:4;stroke-dasharray:none;stroke-dashoffset:0;stroke-opacity:1;color-rendering:auto;image-rendering:auto;shape-rendering:auto;text-rendering:auto;enable-background:accumulate"
       d="m 229.69937,-54.938919 c -68.27384,0 -123.82422,55.55232462 -123.82422,123.826172 0,68.273967 55.55038,123.824337 123.82422,123.824337 68.27384,0 123.82617,-55.55037 123.82617,-123.824337 0,-68.27384738 -55.55233,-123.826172 -123.82617,-123.826172 z"
       id="circle849"
       inkscape:connector-curvature="0"
       sodipodi:nodetypes="sssss" />
    <path
       style="color:#000000;font-style:normal;font-variant:normal;font-weight:normal;font-stretch:normal;font-size:medium;line-height:normal;font-family:sans-serif;font-variant-ligatures:normal;font-variant-position:normal;font-variant-caps:normal;font-variant-numeric:normal;font-variant-alternates:normal;font-feature-settings:normal;text-indent:0;text-align:start;text-decoration:none;text-decoration-line:none;text-decoration-style:solid;text-decoration-color:#000000;letter-spacing:normal;word-spacing:normal;text-transform:none;writing-mode:lr-tb;direction:ltr;text-orientation:mixed;dominant-baseline:auto;baseline-shift:baseline;text-anchor:start;white-space:normal;shape-padding:0;clip-rule:nonzero;display:inline;overflow:visible;visibility:visible;opacity:1;isolation:auto;mix-blend-mode:normal;color-interpolation:sRGB;color-interpolation-filters:linearRGB;solid-color:#000000;solid-opacity:1;vector-effect:none;fill:none;fill-opacity:1;fill-rule:nonzero;stroke:#0000ff;stroke-width:0.26458335;stroke-linecap:square;stroke-linejoin:miter;stroke-miterlimit:4;stroke-dasharray:none;stroke-dashoffset:0;stroke-opacity:1;color-rendering:auto;image-rendering:auto;shape-rendering:auto;text-rendering:auto;enable-background:accumulate"
       d="m 229.69937,-35.888137 c -57.75281,0 -104.77343,47.022563 -104.77343,104.77539 0,57.752937 47.02062,104.773557 104.77343,104.773557 57.75282,0 104.77539,-47.02062 104.77539,-104.773557 0,-57.752827 -47.02257,-104.77539 -104.77539,-104.77539 z m 0,19.048828 c 47.45743,0 85.72657,38.269126 85.72657,85.726562 0,47.457517 -38.26914,85.724737 -85.72657,85.724737 -47.45743,0 -85.72461,-38.26722 -85.72461,-85.724737 0,-47.457436 38.26718,-85.726562 85.72461,-85.726562 z"
       id="circle851"
       inkscape:connector-curvature="0" />
    <path
       style="color:#000000;font-style:normal;font-variant:normal;font-weight:normal;font-stretch:normal;font-size:medium;line-height:normal;font-family:sans-serif;font-variant-ligatures:normal;font-variant-position:normal;font-variant-caps:normal;font-variant-numeric:normal;font-variant-alternates:normal;font-feature-settings:normal;text-indent:0;text-align:start;text-decoration:none;text-decoration-line:none;text-decoration-style:solid;text-decoration-color:#000000;letter-spacing:normal;word-spacing:normal;text-transform:none;writing-mode:lr-tb;direction:ltr;text-orientation:mixed;dominant-baseline:auto;baseline-shift:baseline;text-anchor:start;white-space:normal;shape-padding:0;clip-rule:nonzero;display:inline;overflow:visible;visibility:visible;opacity:1;isolation:auto;mix-blend-mode:normal;color-interpolation:sRGB;color-interpolation-filters:linearRGB;solid-color:#000000;solid-opacity:1;vector-effect:none;fill:none;fill-opacity:1;fill-rule:nonzero;stroke:#0000ff;stroke-width:0.26458335;stroke-linecap:square;stroke-linejoin:miter;stroke-miterlimit:4;stroke-dasharray:none;stroke-dashoffset:0;stroke-opacity:1;color-rendering:auto;image-rendering:auto;shape-rendering:auto;text-rendering:auto;enable-background:accumulate"
       d="m 229.69937,2.2114647 c 36.93641,0 66.67578,29.7393803 66.67578,66.6757883 0,36.936437 -29.73937,66.673947 -66.67578,66.673947 -36.93641,0 -66.67383,-29.73751 -66.67383,-66.673947 0,-36.936408 29.73742,-66.6757883 66.67383,-66.6757883 z"
       id="circle853"
       inkscape:connector-curvature="0"
       sodipodi:nodetypes="sssss" />
    <path
       style="opacity:1;fill:none;fill-opacity:1;stroke:#0000ff;stroke-width:0.26458334;stroke-linecap:square;stroke-linejoin:miter;stroke-miterlimit:4;stroke-dasharray:none;stroke-opacity:1"
       d="m 735.00736,29.569798 c -26.18981,0 -47.625,21.435273 -47.625,47.625002 0,15.684421 7.69125,29.65852 19.48407,38.34961 a 9.5250005,9.5250005 0 0 0 6.30815,2.40038 9.5250005,9.5250005 0 0 0 9.525,-9.525 9.5250005,9.5250005 0 0 0 -4.1243,-7.82175 h -8.4336 v -6.857998 h 1.5012 C 708.3553,89.08499 706.4308,83.384277 706.4308,77.1948 c 0,-15.894342 12.68214,-28.573969 28.57656,-28.573969 15.89397,0 28.57339,12.679071 28.57397,28.572937 v 10e-4 c 0,23.293762 -5.5499,45.268462 -15.40063,64.678752 h 0.061 v 6.35 h -3.49023 c -4.49456,7.84394 -9.7101,15.21997 -15.55978,22.03534 v 6.01102 h -5.46478 c -6.39548,6.64901 -13.42882,12.68005 -21.00493,17.99217 h 7.41971 v 6.35 h -17.31883 c -1.88365,1.10138 -3.79595,2.15866 -5.73352,3.175 h 4.00235 v 6.35 H 673.2168 c -6.51938,2.57133 -13.27494,4.67741 -20.22512,6.27869 v 4.30517 h -19.05 v -1.25627 c -4.35758,0.39916 -8.77199,0.60513 -13.23536,0.60513 h -10e-4 -21.46279 v 19.05 h 21.46279 v -10e-4 h 10e-4 c 89.31593,0 161.92345,-72.60807 161.92345,-161.923972 h 0.003 c 0,-26.189729 -21.4353,-47.625002 -47.625,-47.625002 z"
       id="path925"
       inkscape:connector-curvature="0" />
    <path
       style="color:#000000;font-style:normal;font-variant:normal;font-weight:normal;font-stretch:normal;font-size:medium;line-height:normal;font-family:sans-serif;font-variant-ligatures:normal;font-variant-position:normal;font-variant-caps:normal;font-variant-numeric:normal;font-variant-alternates:normal;font-feature-settings:normal;text-indent:0;text-align:start;text-decoration:none;text-decoration-line:none;text-decoration-style:solid;text-decoration-color:#000000;letter-spacing:normal;word-spacing:normal;text-transform:none;writing-mode:lr-tb;direction:ltr;text-orientation:mixed;dominant-baseline:auto;baseline-shift:baseline;text-anchor:start;white-space:normal;shape-padding:0;clip-rule:nonzero;display:inline;overflow:visible;visibility:visible;opacity:1;isolation:auto;mix-blend-mode:normal;color-interpolation:sRGB;color-interpolation-filters:linearRGB;solid-color:#000000;solid-opacity:1;vector-effect:none;fill:none;fill-opacity:1;fill-rule:nonzero;stroke:#0000ff;stroke-width:0.26458334;stroke-linecap:square;stroke-linejoin:miter;stroke-miterlimit:4;stroke-dasharray:none;stroke-dashoffset:0;stroke-opacity:1;color-rendering:auto;image-rendering:auto;shape-rendering:auto;text-rendering:auto;enable-background:accumulate"
       d="m 623.88281,-98.488281 c -99.83691,0 -180.97461,81.137698 -180.97461,180.974609 0,99.836912 81.1377,180.974612 180.97461,180.974612 99.83691,0 180.97461,-81.1377 180.97461,-180.974612 0,-99.836911 -81.1377,-180.974609 -180.97461,-180.974609 z m 0,19.050781 c 89.54153,0 161.92578,72.3823019 161.92578,161.923828 0,89.541522 -72.38425,161.925782 -161.92578,161.925782 -89.54152,0 -161.92383,-72.38426 -161.92383,-161.925782 0,-89.5415261 72.38231,-161.923828 161.92383,-161.923828 z"
       id="circle992"
       inkscape:connector-curvature="0" />
    <path
       id="path994"
       d="m 628.20902,211.10803 c 26.18981,0 47.625,-21.43527 47.625,-47.625 0,-15.68442 -7.69125,-29.65852 -19.48407,-38.34961 a 9.5250005,9.5250005 0 0 0 -6.30814,-2.40038 9.5250005,9.5250005 0 0 0 -9.525,9.525 9.5250005,9.5250005 0 0 0 4.12429,7.82174 h 8.4336 v 6.858 h -1.5012 c 3.28759,4.65506 5.21208,10.35577 5.21208,16.54525 0,15.89434 -12.68214,28.57397 -28.57656,28.57397 -15.89397,0 -28.57338,-12.67908 -28.57397,-28.57294 v -0.001 c 0,-23.29376 5.5499,-45.26847 15.40063,-64.678754 h -0.061 v -6.35 h 3.49022 c 4.49456,-7.84394 9.7101,-15.21997 15.55978,-22.03535 v -6.01101 h 5.46478 c 6.39548,-6.64901 13.42882,-12.68005 21.00493,-17.99217 h -7.41971 v -6.35 h 17.31883 c 1.88365,-1.10138 3.79595,-2.15866 5.73352,-3.175 h -4.00235 v -6.35 h 17.87488 c 6.51938,-2.57133 13.27494,-4.67741 20.22512,-6.2787 v -4.30517 h 19.05 v 1.25627 c 4.35758,-0.39915 8.772,-0.60513 13.23536,-0.60513 h 10e-4 21.46279 V 1.5580461 h -21.46279 v 10e-4 h -10e-4 c -89.31593,0 -161.92345,72.6080699 -161.92345,161.9239739 h -0.003 c 0,26.18973 21.4353,47.625 47.625,47.625 z"
       style="opacity:1;fill:none;fill-opacity:1;stroke:#0000ff;stroke-width:0.26458334;stroke-linecap:square;stroke-linejoin:miter;stroke-miterlimit:4;stroke-dasharray:none;stroke-opacity:1"
       inkscape:connector-curvature="0" />
    <path
       inkscape:connector-curvature="0"
       style="opacity:1;fill:none;fill-opacity:1;stroke:#0000ff;stroke-width:0.26458334;stroke-linecap:square;stroke-linejoin:miter;stroke-miterlimit:4;stroke-dasharray:none;stroke-opacity:1"
       d="m 538.21262,177.7362 c 26.07446,-2.45529 45.4057,-25.8057 42.95041,-51.88008 -1.47041,-15.61534 -10.43785,-28.806844 -22.99352,-36.354084 a 9.5250005,9.5250005 0 0 0 -6.5054,-1.79842 9.5250005,9.5250005 0 0 0 -8.59008,10.37601 9.5250005,9.5250005 0 0 0 4.83941,7.400644 l 8.39646,-0.79065 0.64294,6.8278 -1.49459,0.14074 c 3.70952,4.32634 6.15997,9.82153 6.74024,15.98375 1.49009,15.82434 -9.94748,29.63707 -25.7719,31.12717 -15.82397,1.49006 -29.6362,-9.94449 -31.12683,-25.7683 l -10e-5,-9.9e-4 c -2.18378,-23.19117 1.28155,-45.589404 9.26918,-65.837704 l -0.0607,0.006 -0.59531,-6.32203 3.47485,-0.32721 c 3.7394,-8.23076 8.24046,-16.06326 13.42544,-23.39703 l -0.56353,-5.98453 5.44071,-0.51233 c 5.74397,-7.2193 12.18093,-13.88315 19.22566,-19.88213 l -7.38703,0.69559 -0.59532,-6.3220299 17.24256,-1.62364 c 1.7721,-1.27312 3.57686,-2.50502 5.41061,-3.69853 l -3.98472,0.37522 -0.59531,-6.32203 17.79615,-1.67577 c 6.24961,-3.1712001 12.77797,-5.9013301 19.54742,-8.1471501 l -0.40361,-4.28621 18.9661,-1.78593 0.11778,1.25073 c 4.30096,-0.80591 8.67663,-1.42483 13.12033,-1.84327 l 10e-4,-10e-5 21.36826,-2.01213 -1.78593,-18.9661 -21.36826,2.01213 9e-5,0.001 -10e-4,9e-5 c -88.92256,8.37335 -154.40331,87.46859 -146.02996,176.391124 l -0.003,2.8e-4 c 2.45528,26.07439 25.80572,45.40569 51.88008,42.95041 z"
       id="path996" />
    <path
       id="path998"
       d="m 681.80895,-22.052174 c -1.69969,26.1346001 -24.48088,46.13348 -50.61541,44.4338 -15.65135,-1.01789 -29.09684,-9.59983 -37.00426,-21.9318299 a 9.5250005,9.5250005 0 0 1 -1.98594,-6.45062 9.5250005,9.5250005 0 0 1 10.12308,-8.8867601 9.5250005,9.5250005 0 0 1 7.53759,4.62321 l -0.54732,8.4158201 6.84354,0.44508 0.0974,-1.49803 c 4.43189,3.58276 9.99568,5.87317 16.17211,6.27485 15.86084,1.03152 29.33679,-10.80098 30.36832,-26.6619001 1.03149,-15.86047 -10.79798,-29.336 -26.6583,-30.36808 l -10e-4,-6e-5 c -23.24465,-1.51174 -45.53322,2.60034 -65.54188,11.1706 l 0.004,-0.0608 -6.33661,-0.41211 -0.22651,3.48286 c -8.11909,3.97603 -15.81805,8.70188 -22.9987,14.09691 l -5.99834,-0.3901 -0.35466,5.45326 c -7.05005,5.95048 -13.52483,12.5775901 -19.31743,19.7929801 l 0.48152,-7.40407 -6.33661,-0.4121 -1.12396,17.28231 c -1.22131,1.8081999 -2.40047,3.6478599 -3.5404,5.5153899 l 0.25974,-3.99391 -6.33662,-0.41211 -1.16004,17.83719 c -2.98902,6.33876 -5.52909,12.9434 -7.57805,19.77501 l -4.2961,-0.27941 -1.23632,19.00985 1.25362,0.0815 c -0.68111,4.3225 -1.17314,8.71424 -1.46281,13.16819 l -7e-5,0.001 -1.3929,21.417544 -19.00984,-1.236324 1.39291,-21.41754 9.9e-4,7e-5 7e-5,-0.001 c 5.79596,-89.12771 82.96309,-156.86999 172.09071,-151.07352 l 1.9e-4,-0.003 c 26.13452,1.69968 46.13348,24.48091 44.43381,50.61541 z"
       style="opacity:1;fill:none;fill-opacity:1;stroke:#0000ff;stroke-width:0.26458334;stroke-linecap:square;stroke-linejoin:miter;stroke-miterlimit:4;stroke-dasharray:none;stroke-opacity:1"
       inkscape:connector-curvature="0" />
    <path
       id="path850"
       d="m 354.38317,194.22252 a 47.247024,47.247024 0 0 0 -5.94795,0.8201 l 3.9181,14.62288 a 32.127978,32.127978 0 0 0 -6.13296,1.6459 l -3.915,-14.611 a 47.247024,47.247024 0 0 0 -5.55315,2.27015 l 7.59023,13.14648 a 32.127978,32.127978 0 0 0 -5.49889,3.175 l -7.5861,-13.13873 a 47.247024,47.247024 0 0 0 -4.74544,3.66747 l 10.6996,10.69961 a 32.127978,32.127978 0 0 0 -4.49223,4.4881 l -10.71459,-10.7146 a 47.247024,47.247024 0 0 0 -3.66696,4.7532 l 13.14442,7.5892 a 32.127978,32.127978 0 0 0 -3.17345,5.49993 l -13.11238,-7.5706 a 47.247024,47.247024 0 0 0 -2.30322,5.53661 l 14.64252,3.92328 a 32.127978,32.127978 0 0 0 -1.64435,6.13399 l -14.67714,-3.93309 a 47.247024,47.247024 0 0 0 -0.74414,5.95571 h 15.11897 a 32.127978,32.127978 0 0 0 -0.15916,3.175 32.127978,32.127978 0 0 0 0.19017,3.175 h -15.19649 a 47.247024,47.247024 0 0 0 0.82011,5.94795 l 14.62288,-3.9181 a 32.127978,32.127978 0 0 0 1.64641,6.13296 l -14.61151,3.91501 a 47.247024,47.247024 0 0 0 2.27014,5.55314 l 13.14649,-7.59023 a 32.127978,32.127978 0 0 0 3.175,5.49889 l -13.13925,7.5861 a 47.247024,47.247024 0 0 0 3.66747,4.74597 l 10.70013,-10.70013 a 32.127978,32.127978 0 0 0 4.48861,4.49172 l -10.71511,10.71511 a 47.247024,47.247024 0 0 0 4.7532,3.66644 l 7.5892,-13.14442 a 32.127978,32.127978 0 0 0 5.49992,3.17397 l -7.57059,13.11238 a 47.247024,47.247024 0 0 0 5.53609,2.30322 l 3.92328,-14.64252 a 32.127978,32.127978 0 0 0 6.13399,1.64434 l -3.93309,14.67714 a 47.247024,47.247024 0 0 0 5.95622,0.74414 v -15.11897 a 32.127978,32.127978 0 0 0 3.175,0.15916 32.127978,32.127978 0 0 0 3.175,-0.19017 v 15.19649 a 47.247024,47.247024 0 0 0 5.94744,-0.8201 l -3.9181,-14.62288 a 32.127978,32.127978 0 0 0 6.13295,-1.6459 l 3.91501,14.611 a 47.247024,47.247024 0 0 0 5.55315,-2.27015 l -7.59023,-13.14648 a 32.127978,32.127978 0 0 0 5.4994,-3.17501 l 7.5861,13.13926 a 47.247024,47.247024 0 0 0 4.74597,-3.66748 l -10.70013,-10.70013 a 32.127978,32.127978 0 0 0 4.49172,-4.48861 l 10.71511,10.71511 a 47.247024,47.247024 0 0 0 3.66696,-4.7532 l -13.14494,-7.5892 a 32.127978,32.127978 0 0 0 3.17345,-5.49992 l 13.1129,7.57059 a 47.247024,47.247024 0 0 0 2.30321,-5.53609 l -14.64303,-3.92379 a 32.127978,32.127978 0 0 0 1.64486,-6.13348 l 14.67714,3.93258 a 47.247024,47.247024 0 0 0 0.74414,-5.95571 h -15.11897 a 32.127978,32.127978 0 0 0 0.15865,-3.175 32.127978,32.127978 0 0 0 -0.19017,-3.175 h 15.19649 a 47.247024,47.247024 0 0 0 -0.82011,-5.94796 l -14.62236,3.91811 a 32.127978,32.127978 0 0 0 -1.64641,-6.13296 l 14.61099,-3.91501 a 47.247024,47.247024 0 0 0 -2.26911,-5.55263 l -13.147,7.59023 a 32.127978,32.127978 0 0 0 -3.17552,-5.4994 l 13.13977,-7.58611 a 47.247024,47.247024 0 0 0 -3.668,-4.74544 l -10.6996,10.6996 a 32.127978,32.127978 0 0 0 -4.48862,-4.49171 l 10.71511,-10.71511 a 47.247024,47.247024 0 0 0 -4.75371,-3.66644 l -7.58869,13.14442 a 32.127978,32.127978 0 0 0 -5.50044,-3.17345 l 7.5706,-13.1129 a 47.247024,47.247024 0 0 0 -5.5361,-2.30322 l -3.92379,14.64252 a 32.127978,32.127978 0 0 0 -6.13347,-1.64435 l 3.93309,-14.67713 a 47.247024,47.247024 0 0 0 -5.95571,-0.74415 V 209.388 a 32.127978,32.127978 0 0 0 -3.175,-0.15865 32.127978,32.127978 0 0 0 -3.175,0.18965 z"
       style="opacity:1;fill:none;fill-opacity:1;stroke:#0000ff;stroke-width:0.26458335;stroke-linecap:square;stroke-linejoin:miter;stroke-miterlimit:4;stroke-dasharray:none;stroke-opacity:1"
       inkscape:connector-curvature="0" />
    <path
       inkscape:connector-curvature="0"
       style="opacity:1;fill:none;fill-opacity:1;stroke:#0000ff;stroke-width:0.26458335;stroke-linecap:square;stroke-linejoin:miter;stroke-miterlimit:4;stroke-dasharray:none;stroke-opacity:1"
       d="m 68.881417,188.97538 a 47.247024,47.247024 0 0 0 -5.94795,0.8201 l 3.9181,14.62288 a 32.127978,32.127978 0 0 0 -6.13296,1.6459 l -3.915,-14.611 a 47.247024,47.247024 0 0 0 -5.55315,2.27015 l 7.59023,13.14648 a 32.127978,32.127978 0 0 0 -5.49889,3.175 l -7.5861,-13.13873 a 47.247024,47.247024 0 0 0 -4.74544,3.66747 l 10.6996,10.69961 a 32.127978,32.127978 0 0 0 -4.49223,4.4881 l -10.71459,-10.7146 a 47.247024,47.247024 0 0 0 -3.66696,4.7532 l 13.14442,7.5892 a 32.127978,32.127978 0 0 0 -3.17345,5.49993 l -13.11238,-7.5706 a 47.247024,47.247024 0 0 0 -2.30322,5.53661 l 14.64252,3.92328 a 32.127978,32.127978 0 0 0 -1.64435,6.13399 l -14.67714,-3.93309 a 47.247024,47.247024 0 0 0 -0.74414,5.95571 h 15.11897 a 32.127978,32.127978 0 0 0 -0.15916,3.175 32.127978,32.127978 0 0 0 0.19017,3.175 h -15.19649 a 47.247024,47.247024 0 0 0 0.82011,5.94795 l 14.62288,-3.9181 a 32.127978,32.127978 0 0 0 1.64641,6.13296 l -14.61151,3.91501 a 47.247024,47.247024 0 0 0 2.27014,5.55314 l 13.14649,-7.59023 a 32.127978,32.127978 0 0 0 3.175,5.49889 l -13.13925,7.5861 a 47.247024,47.247024 0 0 0 3.66747,4.74597 l 10.70013,-10.70013 a 32.127978,32.127978 0 0 0 4.48861,4.49172 l -10.71511,10.71511 a 47.247024,47.247024 0 0 0 4.7532,3.66644 l 7.5892,-13.14442 a 32.127978,32.127978 0 0 0 5.49992,3.17397 l -7.57059,13.11238 a 47.247024,47.247024 0 0 0 5.53609,2.30322 l 3.92328,-14.64252 a 32.127978,32.127978 0 0 0 6.13399,1.64434 l -3.93309,14.67714 a 47.247024,47.247024 0 0 0 5.95622,0.74414 v -15.11897 a 32.127978,32.127978 0 0 0 3.175,0.15916 32.127978,32.127978 0 0 0 3.175,-0.19017 v 15.19649 a 47.247024,47.247024 0 0 0 5.94744,-0.8201 l -3.9181,-14.62288 a 32.127978,32.127978 0 0 0 6.13295,-1.6459 l 3.91501,14.611 a 47.247024,47.247024 0 0 0 5.55315,-2.27015 l -7.59023,-13.14648 a 32.127978,32.127978 0 0 0 5.4994,-3.17501 l 7.5861,13.13926 a 47.247024,47.247024 0 0 0 4.745973,-3.66748 L 92.402977,260.94669 a 32.127978,32.127978 0 0 0 4.49172,-4.48861 l 10.715113,10.71511 a 47.247024,47.247024 0 0 0 3.66696,-4.7532 l -13.144943,-7.5892 a 32.127978,32.127978 0 0 0 3.173453,-5.49992 l 13.1129,7.57059 a 47.247024,47.247024 0 0 0 2.30321,-5.53609 l -14.64303,-3.92379 a 32.127978,32.127978 0 0 0 1.64486,-6.13348 l 14.67714,3.93258 a 47.247024,47.247024 0 0 0 0.74414,-5.95571 h -15.11897 a 32.127978,32.127978 0 0 0 0.15865,-3.175 32.127978,32.127978 0 0 0 -0.19017,-3.175 h 15.19649 a 47.247024,47.247024 0 0 0 -0.82011,-5.94796 l -14.62236,3.91811 a 32.127978,32.127978 0 0 0 -1.64641,-6.13296 l 14.61099,-3.91501 a 47.247024,47.247024 0 0 0 -2.26911,-5.55263 l -13.147,7.59023 a 32.127978,32.127978 0 0 0 -3.175523,-5.4994 l 13.139773,-7.58611 a 47.247024,47.247024 0 0 0 -3.668,-4.74544 l -10.699603,10.6996 a 32.127978,32.127978 0 0 0 -4.48862,-4.49171 l 10.715113,-10.71511 a 47.247024,47.247024 0 0 0 -4.753713,-3.66644 l -7.58869,13.14442 a 32.127978,32.127978 0 0 0 -5.50044,-3.17345 l 7.5706,-13.1129 a 47.247024,47.247024 0 0 0 -5.5361,-2.30322 l -3.92379,14.64252 a 32.127978,32.127978 0 0 0 -6.13347,-1.64435 l 3.93309,-14.67713 a 47.247024,47.247024 0 0 0 -5.95571,-0.74415 v 15.11898 a 32.127978,32.127978 0 0 0 -3.175,-0.15865 32.127978,32.127978 0 0 0 -3.175,0.18965 z"
       id="path852" />
  </g>
</svg>
