<?xml version="1.0" encoding="UTF-8" standalone="no"?>
<!-- Created with Inkscape (http://www.inkscape.org/) -->

<svg
   xmlns:dc="http://purl.org/dc/elements/1.1/"
   xmlns:cc="http://creativecommons.org/ns#"
   xmlns:rdf="http://www.w3.org/1999/02/22-rdf-syntax-ns#"
   xmlns:svg="http://www.w3.org/2000/svg"
   xmlns="http://www.w3.org/2000/svg"
   xmlns:sodipodi="http://sodipodi.sourceforge.net/DTD/sodipodi-0.dtd"
   xmlns:inkscape="http://www.inkscape.org/namespaces/inkscape"
   width="8.2677164in"
   height="11.692913in"
   viewBox="0 0 210 297"
   version="1.1"
   id="svg8"
   inkscape:version="0.92.4 (5da689c313, 2019-01-14)"
   sodipodi:docname="bowl.svg">
  <defs
     id="defs2" />
  <sodipodi:namedview
     id="base"
     pagecolor="#ffffff"
     bordercolor="#666666"
     borderopacity="1.0"
     inkscape:pageopacity="0.0"
     inkscape:pageshadow="2"
     inkscape:zoom="0.24748737"
     inkscape:cx="-1424.7689"
     inkscape:cy="1019.5472"
     inkscape:document-units="in"
     inkscape:current-layer="layer1"
     showgrid="false"
     inkscape:window-width="1920"
     inkscape:window-height="1017"
     inkscape:window-x="-8"
     inkscape:window-y="-8"
     inkscape:window-maximized="1"
     units="in"
     inkscape:snap-bbox="true"
     inkscape:snap-bbox-midpoints="true"
     inkscape:snap-bbox-edge-midpoints="true"
     inkscape:snap-center="true"
     inkscape:bbox-nodes="true" />
  <metadata
     id="metadata5">
    <rdf:RDF>
      <cc:Work
         rdf:about="">
        <dc:format>image/svg+xml</dc:format>
        <dc:type
           rdf:resource="http://purl.org/dc/dcmitype/StillImage" />
        <dc:title />
      </cc:Work>
    </rdf:RDF>
  </metadata>
  <g
     inkscape:label="Layer 1"
     inkscape:groupmode="layer"
     id="layer1">
    <path
       style="opacity:1;fill:#000000;fill-opacity:1;stroke:none;stroke-width:82.88437653;stroke-linecap:square;stroke-linejoin:miter;stroke-miterlimit:4;stroke-dasharray:none;stroke-opacity:1"
       d="M 223.71484 114.37305 A 178.57143 178.57143 0 0 0 201.23438 117.47266 L 216.04297 172.74023 A 121.42858 121.42858 0 0 0 192.86328 178.96094 L 178.06641 123.73828 A 178.57143 178.57143 0 0 0 157.07812 132.31836 L 185.76562 182.00586 A 121.42858 121.42858 0 0 0 164.98242 194.00586 L 136.31055 144.34766 A 178.57143 178.57143 0 0 0 118.375 158.20898 L 158.81445 198.64844 A 121.42858 121.42858 0 0 0 141.83594 215.61133 L 101.33984 175.11523 A 178.57143 178.57143 0 0 0 87.480469 193.08008 L 137.16016 221.76367 A 121.42858 121.42858 0 0 0 125.16602 242.55078 L 75.607422 213.9375 A 178.57143 178.57143 0 0 0 66.902344 234.86328 L 122.24414 249.69141 A 121.42858 121.42858 0 0 0 116.0293 272.875 L 60.556641 258.00977 A 178.57143 178.57143 0 0 0 57.744141 280.51953 L 114.88672 280.51953 A 121.42858 121.42858 0 0 0 114.28516 292.51953 A 121.42858 121.42858 0 0 0 115.00391 304.51953 L 57.568359 304.51953 A 178.57143 178.57143 0 0 0 60.667969 327 L 115.93555 312.19141 A 121.42858 121.42858 0 0 0 122.1582 335.37109 L 66.933594 350.16797 A 178.57143 178.57143 0 0 0 75.513672 371.15625 L 125.20117 342.46875 A 121.42858 121.42858 0 0 0 137.20117 363.25195 L 87.541016 391.92383 A 178.57143 178.57143 0 0 0 101.40234 409.86133 L 141.84375 369.41992 A 121.42858 121.42858 0 0 0 158.80859 386.39648 L 118.31055 426.89453 A 178.57143 178.57143 0 0 0 136.27539 440.75195 L 164.95898 391.07227 A 121.42858 121.42858 0 0 0 185.74609 403.06836 L 157.13281 452.62695 A 178.57143 178.57143 0 0 0 178.05664 461.33203 L 192.88477 405.99023 A 121.42858 121.42858 0 0 0 216.06836 412.20508 L 201.20312 467.67773 A 178.57143 178.57143 0 0 0 223.71484 470.49023 L 223.71484 413.34766 A 121.42858 121.42858 0 0 0 235.71484 413.94922 A 121.42858 121.42858 0 0 0 247.71484 413.23047 L 247.71484 470.66602 A 178.57143 178.57143 0 0 0 270.19336 467.56641 L 255.38477 412.29883 A 121.42858 121.42858 0 0 0 278.56445 406.07812 L 293.36133 461.30078 A 178.57143 178.57143 0 0 0 314.34961 452.7207 L 285.66211 403.0332 A 121.42858 121.42858 0 0 0 306.44727 391.0332 L 335.11914 440.69336 A 178.57143 178.57143 0 0 0 353.05664 426.83203 L 312.61523 386.39062 A 121.42858 121.42858 0 0 0 329.5918 369.42578 L 370.08984 409.92383 A 178.57143 178.57143 0 0 0 383.94922 391.95898 L 334.26758 363.27539 A 121.42858 121.42858 0 0 0 346.26172 342.48828 L 395.82227 371.10156 A 178.57143 178.57143 0 0 0 404.52734 350.17773 L 349.18359 335.34766 A 121.42858 121.42858 0 0 0 355.40039 312.16602 L 410.87305 327.0293 A 178.57143 178.57143 0 0 0 413.68555 304.51953 L 356.54297 304.51953 A 121.42858 121.42858 0 0 0 357.14258 292.51953 A 121.42858 121.42858 0 0 0 356.42383 280.51953 L 413.85938 280.51953 A 178.57143 178.57143 0 0 0 410.75977 258.03906 L 355.49414 272.84766 A 121.42858 121.42858 0 0 0 349.27148 249.66797 L 404.49414 234.87109 A 178.57143 178.57143 0 0 0 395.91797 213.88477 L 346.22852 242.57227 A 121.42858 121.42858 0 0 0 334.22656 221.78711 L 383.88867 193.11523 A 178.57143 178.57143 0 0 0 370.02539 175.17969 L 329.58594 215.61914 A 121.42858 121.42858 0 0 0 312.62109 198.64258 L 353.11914 158.14453 A 178.57143 178.57143 0 0 0 335.15234 144.28711 L 306.4707 193.9668 A 121.42858 121.42858 0 0 0 285.68164 181.97266 L 314.29492 132.41211 A 178.57143 178.57143 0 0 0 293.37109 123.70703 L 278.54102 179.04883 A 121.42858 121.42858 0 0 0 255.35938 172.83398 L 270.22461 117.36133 A 178.57143 178.57143 0 0 0 247.71484 114.54883 L 247.71484 171.69141 A 121.42858 121.42858 0 0 0 235.71484 171.0918 A 121.42858 121.42858 0 0 0 223.71484 171.80859 L 223.71484 114.37305 z "
       transform="scale(0.26458333)"
       id="path815" />
    <path
       id="path870"
       d="m 181.60066,24.381273 a 47.247024,47.247024 0 0 0 -5.94795,0.820105 l 3.9181,14.622878 a 32.127978,32.127978 0 0 0 -6.13296,1.645896 l -3.915,-14.610995 a 47.247024,47.247024 0 0 0 -5.55315,2.270146 l 7.59023,13.146484 a 32.127978,32.127978 0 0 0 -5.49889,3.175 l -7.5861,-13.138732 a 47.247024,47.247024 0 0 0 -4.74544,3.667474 l 10.6996,10.699607 a 32.127978,32.127978 0 0 0 -4.49223,4.488098 L 149.22228,40.452641 a 47.247024,47.247024 0 0 0 -3.66696,4.7532 l 13.14442,7.5892 a 32.127978,32.127978 0 0 0 -3.17345,5.499922 l -13.11238,-7.570596 a 47.247024,47.247024 0 0 0 -2.30322,5.536612 l 14.64252,3.923276 a 32.127978,32.127978 0 0 0 -1.64435,6.133992 l -14.67714,-3.933092 a 47.247024,47.247024 0 0 0 -0.74414,5.955707 h 15.11897 a 32.127978,32.127978 0 0 0 -0.15916,3.175 32.127978,32.127978 0 0 0 0.19017,3.175 h -15.19649 a 47.247024,47.247024 0 0 0 0.82011,5.947957 l 14.62288,-3.918106 a 32.127978,32.127978 0 0 0 1.64641,6.132957 l -14.61151,3.915008 a 47.247024,47.247024 0 0 0 2.27014,5.553149 l 13.14649,-7.590234 a 32.127978,32.127978 0 0 0 3.175,5.498888 l -13.13925,7.586101 a 47.247024,47.247024 0 0 0 3.66747,4.745968 l 10.70013,-10.700127 a 32.127978,32.127978 0 0 0 4.48861,4.491715 l -10.71511,10.715112 a 47.247024,47.247024 0 0 0 4.7532,3.66644 l 7.5892,-13.144416 a 32.127978,32.127978 0 0 0 5.49992,3.173966 l -7.57059,13.11238 a 47.247024,47.247024 0 0 0 5.53609,2.30322 l 3.92328,-14.64252 a 32.127978,32.127978 0 0 0 6.13399,1.64434 l -3.93309,14.67714 a 47.247024,47.247024 0 0 0 5.95622,0.74414 v -15.11897 a 32.127978,32.127978 0 0 0 3.175,0.15916 32.127978,32.127978 0 0 0 3.175,-0.19017 v 15.19649 a 47.247024,47.247024 0 0 0 5.94744,-0.8201 L 189.98,103.20747 a 32.127978,32.127978 0 0 0 6.13295,-1.6459 l 3.91501,14.611 a 47.247024,47.247024 0 0 0 5.55315,-2.27015 l -7.59023,-13.14648 a 32.127978,32.127978 0 0 0 5.4994,-3.175003 l 7.5861,13.139253 a 47.247024,47.247024 0 0 0 4.74597,-3.66748 L 205.12222,96.352587 a 32.127978,32.127978 0 0 0 4.49172,-4.488614 l 10.71511,10.715107 a 47.247024,47.247024 0 0 0 3.66696,-4.753197 l -13.14494,-7.5892 a 32.127978,32.127978 0 0 0 3.17345,-5.499923 l 13.1129,7.570597 a 47.247024,47.247024 0 0 0 2.30321,-5.536097 L 214.7976,82.847471 a 32.127978,32.127978 0 0 0 1.64486,-6.133476 l 14.67714,3.932577 a 47.247024,47.247024 0 0 0 0.74414,-5.95571 h -15.11897 a 32.127978,32.127978 0 0 0 0.15865,-3.175 32.127978,32.127978 0 0 0 -0.19017,-3.175 h 15.19649 a 47.247024,47.247024 0 0 0 -0.82011,-5.947958 l -14.62236,3.918109 a 32.127978,32.127978 0 0 0 -1.64641,-6.13296 l 14.61099,-3.915008 a 47.247024,47.247024 0 0 0 -2.26911,-5.55263 l -13.147,7.590234 a 32.127978,32.127978 0 0 0 -3.17552,-5.499407 l 13.13977,-7.586101 a 47.247024,47.247024 0 0 0 -3.668,-4.745445 L 209.61239,51.1693 a 32.127978,32.127978 0 0 0 -4.48862,-4.491714 l 10.71511,-10.715109 a 47.247024,47.247024 0 0 0 -4.75371,-3.666443 l -7.58869,13.144418 a 32.127978,32.127978 0 0 0 -5.50044,-3.173449 l 7.5706,-13.112896 a 47.247024,47.247024 0 0 0 -5.5361,-2.303219 l -3.92379,14.642518 a 32.127978,32.127978 0 0 0 -6.13347,-1.644346 l 3.93309,-14.677138 a 47.247024,47.247024 0 0 0 -5.95571,-0.744141 v 15.118974 a 32.127978,32.127978 0 0 0 -3.175,-0.158646 32.127978,32.127978 0 0 0 -3.175,0.18965 z"
       style="opacity:1;fill:#000000;fill-opacity:1;stroke:none;stroke-width:21.92982483;stroke-linecap:square;stroke-linejoin:miter;stroke-miterlimit:4;stroke-dasharray:none;stroke-opacity:1"
       inkscape:connector-curvature="0" />
    <path
       inkscape:connector-curvature="0"
       style="opacity:1;fill:#000000;fill-opacity:1;stroke:none;stroke-width:21.92982483;stroke-linecap:square;stroke-linejoin:miter;stroke-miterlimit:4;stroke-dasharray:none;stroke-opacity:1"
       d="m -108.11951,42.555601 a 47.247024,47.247024 0 0 0 -5.94795,0.820105 l 3.9181,14.622878 a 32.127978,32.127978 0 0 0 -6.13296,1.645896 l -3.915,-14.610995 a 47.247024,47.247024 0 0 0 -5.55315,2.270146 l 7.59023,13.146484 a 32.127978,32.127978 0 0 0 -5.49889,3.175 l -7.5861,-13.138732 a 47.247024,47.247024 0 0 0 -4.74544,3.667474 l 10.6996,10.699607 a 32.127978,32.127978 0 0 0 -4.49223,4.488098 l -10.71459,-10.714593 a 47.247024,47.247024 0 0 0 -3.66696,4.7532 l 13.14442,7.5892 a 32.127978,32.127978 0 0 0 -3.17345,5.499922 l -13.11238,-7.570596 a 47.247024,47.247024 0 0 0 -2.30322,5.536612 l 14.64252,3.923276 a 32.127978,32.127978 0 0 0 -1.64435,6.133992 l -14.67714,-3.933092 a 47.247024,47.247024 0 0 0 -0.74414,5.955707 h 15.11897 a 32.127978,32.127978 0 0 0 -0.15916,3.175 32.127978,32.127978 0 0 0 0.19017,3.175 h -15.19649 a 47.247024,47.247024 0 0 0 0.82011,5.947957 l 14.62288,-3.918106 a 32.127978,32.127978 0 0 0 1.64641,6.132959 l -14.61151,3.91501 a 47.247024,47.247024 0 0 0 2.27014,5.55314 l 13.14649,-7.59023 a 32.127978,32.127978 0 0 0 3.175,5.49889 l -13.13925,7.5861 a 47.247024,47.247024 0 0 0 3.66747,4.74597 l 10.70013,-10.70013 a 32.127978,32.127978 0 0 0 4.48861,4.49172 l -10.71511,10.71511 a 47.247024,47.247024 0 0 0 4.7532,3.66644 l 7.5892,-13.14442 a 32.127978,32.127978 0 0 0 5.49992,3.17397 l -7.57059,13.11238 a 47.247024,47.247024 0 0 0 5.53609,2.30322 l 3.92328,-14.64252 a 32.127978,32.127978 0 0 0 6.13399,1.64434 l -3.93309,14.67714 a 47.247024,47.247024 0 0 0 5.95622,0.74414 V 121.6593 a 32.127978,32.127978 0 0 0 3.175,0.15916 32.127978,32.127978 0 0 0 3.175,-0.19017 v 15.19649 a 47.247024,47.247024 0 0 0 5.947442,-0.8201 l -3.9181,-14.62288 a 32.127978,32.127978 0 0 0 6.13295,-1.6459 l 3.91501,14.611 a 47.247024,47.247024 0 0 0 5.55315,-2.27015 l -7.59023,-13.14648 a 32.127978,32.127978 0 0 0 5.4994,-3.17501 l 7.5861,13.13926 a 47.247024,47.247024 0 0 0 4.74597,-3.66748 l -10.70013,-10.70013 a 32.127978,32.127978 0 0 0 4.49172,-4.48861 l 10.71511,10.71511 a 47.247024,47.247024 0 0 0 3.66696,-4.7532 l -13.14494,-7.5892 a 32.127978,32.127978 0 0 0 3.17345,-5.49992 l 13.1129,7.57059 a 47.247024,47.247024 0 0 0 2.30321,-5.53609 l -14.64303,-3.92379 a 32.127978,32.127978 0 0 0 1.64486,-6.133477 l 14.67714,3.932577 a 47.247024,47.247024 0 0 0 0.74414,-5.95571 h -15.11897 a 32.127978,32.127978 0 0 0 0.15865,-3.175 32.127978,32.127978 0 0 0 -0.19017,-3.175 h 15.19649 a 47.247024,47.247024 0 0 0 -0.82011,-5.947958 l -14.62236,3.918109 a 32.127978,32.127978 0 0 0 -1.64641,-6.13296 l 14.61099,-3.915008 a 47.247024,47.247024 0 0 0 -2.26911,-5.55263 l -13.147,7.590234 a 32.127978,32.127978 0 0 0 -3.17552,-5.499407 l 13.13977,-7.586101 a 47.247024,47.247024 0 0 0 -3.668,-4.745445 l -10.6996,10.699604 a 32.127978,32.127978 0 0 0 -4.48862,-4.491714 l 10.71511,-10.715109 a 47.247024,47.247024 0 0 0 -4.75371,-3.666443 l -7.58869,13.144418 a 32.127978,32.127978 0 0 0 -5.50044,-3.173449 l 7.5706,-13.112896 a 47.247024,47.247024 0 0 0 -5.5361,-2.303219 l -3.92379,14.642518 a 32.127978,32.127978 0 0 0 -6.13347,-1.644346 l 3.93309,-14.677138 a 47.247024,47.247024 0 0 0 -5.955712,-0.744141 v 15.118974 a 32.127978,32.127978 0 0 0 -3.175,-0.158646 32.127978,32.127978 0 0 0 -3.175,0.18965 z"
       id="path872" />
    <path
       style="opacity:1;fill:#000000;fill-opacity:1;stroke:none;stroke-width:8.85017967;stroke-linecap:square;stroke-linejoin:miter;stroke-miterlimit:4;stroke-dasharray:none;stroke-opacity:1"
       d="m -29.06108,221.4081 a 9.5249994,9.5249994 0 0 0 -9.525,9.525 9.5249994,9.5249994 0 0 0 0.001,0.0248 c -0.01393,77.92304 -62.98337,140.8844 -140.90973,140.8844 h -65.2136 v 19.05 h 65.2136 v 5.3e-4 c 88.230027,0 159.958137,-71.72984 159.958698,-159.95975 a 9.5249994,9.5249994 0 0 0 -9.525,-9.525 z"
       id="rect874"
       inkscape:connector-curvature="0" />
  </g>
</svg>
