<?xml version="1.0" encoding="UTF-8" standalone="no"?>
<!-- Created with Inkscape (http://www.inkscape.org/) -->

<svg
   xmlns:dc="http://purl.org/dc/elements/1.1/"
   xmlns:cc="http://creativecommons.org/ns#"
   xmlns:rdf="http://www.w3.org/1999/02/22-rdf-syntax-ns#"
   xmlns:svg="http://www.w3.org/2000/svg"
   xmlns="http://www.w3.org/2000/svg"
   xmlns:sodipodi="http://sodipodi.sourceforge.net/DTD/sodipodi-0.dtd"
   xmlns:inkscape="http://www.inkscape.org/namespaces/inkscape"
   width="210mm"
   height="297mm"
   viewBox="0 0 210 297"
   version="1.1"
   id="svg914"
   inkscape:version="0.92.4 (5da689c313, 2019-01-14)"
   sodipodi:docname="investment-board.svg">
  <defs
     id="defs908" />
  <sodipodi:namedview
     id="base"
     pagecolor="#ffffff"
     bordercolor="#666666"
     borderopacity="1.0"
     inkscape:pageopacity="0.0"
     inkscape:pageshadow="2"
     inkscape:zoom="0.7"
     inkscape:cx="388.36576"
     inkscape:cy="622.69504"
     inkscape:document-units="mm"
     inkscape:current-layer="layer1"
     showgrid="true"
     inkscape:snap-bbox="true"
     inkscape:snap-grids="false"
     inkscape:bbox-nodes="true"
     inkscape:snap-global="true"
     inkscape:snap-bbox-edge-midpoints="true"
     inkscape:snap-center="false"
     inkscape:snap-bbox-midpoints="true"
     inkscape:snap-midpoints="true"
     inkscape:snap-smooth-nodes="true"
     inkscape:snap-intersection-paths="true"
     inkscape:object-paths="true"
     inkscape:window-width="1920"
     inkscape:window-height="1017"
     inkscape:window-x="-8"
     inkscape:window-y="-8"
     inkscape:window-maximized="1">
    <inkscape:grid
       type="xygrid"
       id="grid1459"
       units="mm"
       spacingx="3"
       spacingy="3"
       enabled="false" />
  </sodipodi:namedview>
  <metadata
     id="metadata911">
    <rdf:RDF>
      <cc:Work
         rdf:about="">
        <dc:format>image/svg+xml</dc:format>
        <dc:type
           rdf:resource="http://purl.org/dc/dcmitype/StillImage" />
        <dc:title></dc:title>
      </cc:Work>
    </rdf:RDF>
  </metadata>
  <g
     inkscape:label="Layer 1"
     inkscape:groupmode="layer"
     id="layer1">
    <rect
       y="99"
       x="-1.3144804e-11"
       height="99"
       width="105"
       id="rect1465"
       style="opacity:1;fill:#e7ff70;fill-opacity:1;stroke:none;stroke-width:9.71008301;stroke-linecap:square;stroke-linejoin:miter;stroke-miterlimit:4;stroke-dasharray:none;stroke-opacity:1" />
    <path
       style="color:#000000;font-style:normal;font-variant:normal;font-weight:normal;font-stretch:normal;font-size:medium;line-height:normal;font-family:sans-serif;font-variant-ligatures:normal;font-variant-position:normal;font-variant-caps:normal;font-variant-numeric:normal;font-variant-alternates:normal;font-feature-settings:normal;text-indent:0;text-align:start;text-decoration:none;text-decoration-line:none;text-decoration-style:solid;text-decoration-color:#000000;letter-spacing:normal;word-spacing:normal;text-transform:none;writing-mode:lr-tb;direction:ltr;text-orientation:mixed;dominant-baseline:auto;baseline-shift:baseline;text-anchor:start;white-space:normal;shape-padding:0;clip-rule:nonzero;display:inline;overflow:visible;visibility:visible;opacity:1;isolation:auto;mix-blend-mode:normal;color-interpolation:sRGB;color-interpolation-filters:linearRGB;solid-color:#000000;solid-opacity:1;vector-effect:none;fill:#f1ffaf;fill-opacity:1;fill-rule:nonzero;stroke:none;stroke-width:14.31000137;stroke-linecap:square;stroke-linejoin:miter;stroke-miterlimit:4;stroke-dasharray:none;stroke-dashoffset:0;stroke-opacity:1;color-rendering:auto;image-rendering:auto;shape-rendering:auto;text-rendering:auto;enable-background:accumulate"
       d="m -3.0726052e-4,99 v 99.00016 H 105 V 99 Z M 7.1553277,106.15408 H 97.844881 v 84.69147 H 7.1553277 Z"
       id="rect1487"
       inkscape:connector-curvature="0" />
    <g
       id="g1518">
      <rect
         y="99"
         x="105"
         height="99"
         width="105"
         id="rect1467"
         style="opacity:1;fill:#9ebd6e;fill-opacity:1;stroke:none;stroke-width:9.71008301;stroke-linecap:square;stroke-linejoin:miter;stroke-miterlimit:4;stroke-dasharray:none;stroke-opacity:1" />
      <path
         style="color:#000000;font-style:normal;font-variant:normal;font-weight:normal;font-stretch:normal;font-size:medium;line-height:normal;font-family:sans-serif;font-variant-ligatures:normal;font-variant-position:normal;font-variant-caps:normal;font-variant-numeric:normal;font-variant-alternates:normal;font-feature-settings:normal;text-indent:0;text-align:start;text-decoration:none;text-decoration-line:none;text-decoration-style:solid;text-decoration-color:#000000;letter-spacing:normal;word-spacing:normal;text-transform:none;writing-mode:lr-tb;direction:ltr;text-orientation:mixed;dominant-baseline:auto;baseline-shift:baseline;text-anchor:start;white-space:normal;shape-padding:0;clip-rule:nonzero;display:inline;overflow:visible;visibility:visible;opacity:1;isolation:auto;mix-blend-mode:normal;color-interpolation:sRGB;color-interpolation-filters:linearRGB;solid-color:#000000;solid-opacity:1;vector-effect:none;fill:#b5cd91;fill-opacity:1;fill-rule:nonzero;stroke:none;stroke-width:14.31000137;stroke-linecap:square;stroke-linejoin:miter;stroke-miterlimit:4;stroke-dasharray:none;stroke-dashoffset:0;stroke-opacity:1;color-rendering:auto;image-rendering:auto;shape-rendering:auto;text-rendering:auto;enable-background:accumulate"
         d="m 105,99 v 99.00016 H 210.00031 V 99 Z m 7.15563,7.15408 h 90.68956 v 84.69147 h -90.68956 z"
         id="path1494"
         inkscape:connector-curvature="0" />
    </g>
    <g
       id="g1522">
      <rect
         style="opacity:1;fill:#805d93;fill-opacity:1;stroke:none;stroke-width:9.71008301;stroke-linecap:square;stroke-linejoin:miter;stroke-miterlimit:4;stroke-dasharray:none;stroke-opacity:1"
         id="rect1471"
         width="105"
         height="99"
         x="105"
         y="3.1352698e-13" />
      <path
         inkscape:connector-curvature="0"
         id="path1496"
         d="M 105,0 V 99.00016 H 210.00031 V 0 Z m 7.15563,7.15408 h 90.68956 v 84.69147 h -90.68956 z"
         style="color:#000000;font-style:normal;font-variant:normal;font-weight:normal;font-stretch:normal;font-size:medium;line-height:normal;font-family:sans-serif;font-variant-ligatures:normal;font-variant-position:normal;font-variant-caps:normal;font-variant-numeric:normal;font-variant-alternates:normal;font-feature-settings:normal;text-indent:0;text-align:start;text-decoration:none;text-decoration-line:none;text-decoration-style:solid;text-decoration-color:#000000;letter-spacing:normal;word-spacing:normal;text-transform:none;writing-mode:lr-tb;direction:ltr;text-orientation:mixed;dominant-baseline:auto;baseline-shift:baseline;text-anchor:start;white-space:normal;shape-padding:0;clip-rule:nonzero;display:inline;overflow:visible;visibility:visible;opacity:1;isolation:auto;mix-blend-mode:normal;color-interpolation:sRGB;color-interpolation-filters:linearRGB;solid-color:#000000;solid-opacity:1;vector-effect:none;fill:#9878aa;fill-opacity:1;fill-rule:nonzero;stroke:none;stroke-width:14.31000137;stroke-linecap:square;stroke-linejoin:miter;stroke-miterlimit:4;stroke-dasharray:none;stroke-dashoffset:0;stroke-opacity:1;color-rendering:auto;image-rendering:auto;shape-rendering:auto;text-rendering:auto;enable-background:accumulate" />
    </g>
    <g
       id="g1526">
      <rect
         y="3.1352698e-13"
         x="-2.6289608e-11"
         height="99"
         width="105"
         id="rect1469"
         style="opacity:1;fill:#98b9f2;fill-opacity:1;stroke:none;stroke-width:9.71008301;stroke-linecap:square;stroke-linejoin:miter;stroke-miterlimit:4;stroke-dasharray:none;stroke-opacity:1" />
      <path
         style="color:#000000;font-style:normal;font-variant:normal;font-weight:normal;font-stretch:normal;font-size:medium;line-height:normal;font-family:sans-serif;font-variant-ligatures:normal;font-variant-position:normal;font-variant-caps:normal;font-variant-numeric:normal;font-variant-alternates:normal;font-feature-settings:normal;text-indent:0;text-align:start;text-decoration:none;text-decoration-line:none;text-decoration-style:solid;text-decoration-color:#000000;letter-spacing:normal;word-spacing:normal;text-transform:none;writing-mode:lr-tb;direction:ltr;text-orientation:mixed;dominant-baseline:auto;baseline-shift:baseline;text-anchor:start;white-space:normal;shape-padding:0;clip-rule:nonzero;display:inline;overflow:visible;visibility:visible;opacity:1;isolation:auto;mix-blend-mode:normal;color-interpolation:sRGB;color-interpolation-filters:linearRGB;solid-color:#000000;solid-opacity:1;vector-effect:none;fill:#c4d7f8;fill-opacity:1;fill-rule:nonzero;stroke:none;stroke-width:14.31000137;stroke-linecap:square;stroke-linejoin:miter;stroke-miterlimit:4;stroke-dasharray:none;stroke-dashoffset:0;stroke-opacity:1;color-rendering:auto;image-rendering:auto;shape-rendering:auto;text-rendering:auto;enable-background:accumulate"
         d="M -3.1e-4,0 V 99.00016 H 105 V 0 Z M 7.15532,7.15408 H 97.84488 V 91.84555 H 7.15532 Z"
         id="path1498"
         inkscape:connector-curvature="0" />
    </g>
    <g
       id="g1510">
      <rect
         y="198"
         x="0"
         height="99"
         width="105"
         id="rect1461"
         style="opacity:1;fill:#c42021;fill-opacity:1;stroke:none;stroke-width:9.71008301;stroke-linecap:square;stroke-linejoin:miter;stroke-miterlimit:4;stroke-dasharray:none;stroke-opacity:1" />
      <path
         inkscape:connector-curvature="0"
         id="path1500"
         d="m -3.1000001e-4,198 v 99.00016 H 105 V 198 Z M 7.15532,205.15408 h 90.68956 v 84.69147 H 7.15532 Z"
         style="color:#000000;font-style:normal;font-variant:normal;font-weight:normal;font-stretch:normal;font-size:medium;line-height:normal;font-family:sans-serif;font-variant-ligatures:normal;font-variant-position:normal;font-variant-caps:normal;font-variant-numeric:normal;font-variant-alternates:normal;font-feature-settings:normal;text-indent:0;text-align:start;text-decoration:none;text-decoration-line:none;text-decoration-style:solid;text-decoration-color:#000000;letter-spacing:normal;word-spacing:normal;text-transform:none;writing-mode:lr-tb;direction:ltr;text-orientation:mixed;dominant-baseline:auto;baseline-shift:baseline;text-anchor:start;white-space:normal;shape-padding:0;clip-rule:nonzero;display:inline;overflow:visible;visibility:visible;opacity:1;isolation:auto;mix-blend-mode:normal;color-interpolation:sRGB;color-interpolation-filters:linearRGB;solid-color:#000000;solid-opacity:1;vector-effect:none;fill:#df3739;fill-opacity:1;fill-rule:nonzero;stroke:none;stroke-width:14.31000137;stroke-linecap:square;stroke-linejoin:miter;stroke-miterlimit:4;stroke-dasharray:none;stroke-dashoffset:0;stroke-opacity:1;color-rendering:auto;image-rendering:auto;shape-rendering:auto;text-rendering:auto;enable-background:accumulate" />
    </g>
    <g
       id="g1506">
      <rect
         style="opacity:1;fill:#f78764;fill-opacity:1;stroke:none;stroke-width:9.71008301;stroke-linecap:square;stroke-linejoin:miter;stroke-miterlimit:4;stroke-dasharray:none;stroke-opacity:1"
         id="rect1463"
         width="105"
         height="99"
         x="105"
         y="198" />
      <path
         style="color:#000000;font-style:normal;font-variant:normal;font-weight:normal;font-stretch:normal;font-size:medium;line-height:normal;font-family:sans-serif;font-variant-ligatures:normal;font-variant-position:normal;font-variant-caps:normal;font-variant-numeric:normal;font-variant-alternates:normal;font-feature-settings:normal;text-indent:0;text-align:start;text-decoration:none;text-decoration-line:none;text-decoration-style:solid;text-decoration-color:#000000;letter-spacing:normal;word-spacing:normal;text-transform:none;writing-mode:lr-tb;direction:ltr;text-orientation:mixed;dominant-baseline:auto;baseline-shift:baseline;text-anchor:start;white-space:normal;shape-padding:0;clip-rule:nonzero;display:inline;overflow:visible;visibility:visible;opacity:1;isolation:auto;mix-blend-mode:normal;color-interpolation:sRGB;color-interpolation-filters:linearRGB;solid-color:#000000;solid-opacity:1;vector-effect:none;fill:#faad94;fill-opacity:1;fill-rule:nonzero;stroke:none;stroke-width:14.31000137;stroke-linecap:square;stroke-linejoin:miter;stroke-miterlimit:4;stroke-dasharray:none;stroke-dashoffset:0;stroke-opacity:1;color-rendering:auto;image-rendering:auto;shape-rendering:auto;text-rendering:auto;enable-background:accumulate"
         d="m 105,198.00016 v 99.00016 h 105.00031 v -99.00016 z m 7.15563,7.15408 h 90.68956 v 84.69147 h -90.68956 z"
         id="path1502"
         inkscape:connector-curvature="0" />
    </g>
    <path
       style="opacity:1;fill:#df3739;fill-opacity:1;stroke:none;stroke-width:6.54590368;stroke-linecap:square;stroke-linejoin:miter;stroke-miterlimit:4;stroke-dasharray:none;stroke-opacity:1;paint-order:markers stroke fill"
       d="m 71.767239,218.23352 a 8.9043377,8.9043377 0 0 0 -12.16336,3.25917 8.9043377,8.9043377 0 0 0 3.259042,12.16357 8.9043377,8.9043377 0 0 0 12.163691,-3.25925 8.9043377,8.9043377 0 0 0 -3.259373,-12.16349 z m -22.065353,9.22174 c -1.097337,-0.63354 -2.490811,-0.26033 -3.124359,0.837 l -8.692044,15.05507 c -0.633548,1.09733 -0.260013,2.49072 0.837317,3.12427 l 2.776573,1.60306 c 1.097338,0.63354 2.490602,0.26021 3.124158,-0.83713 l 8.692043,-15.05506 c 0.633541,-1.09734 0.260223,-2.4906 -0.837114,-3.12416 z m 8.322751,4.80515 c -1.097337,-0.63355 -2.490804,-0.26034 -3.124359,0.83699 l -14.190865,24.5793 -1.143518,1.98064 a 7.1753402,16.47797 30 0 0 -2.024836,17.85814 7.1753402,16.47797 30 0 0 14.452985,-10.68275 l 1.143511,-1.98063 14.190872,-24.5793 c 0.633555,-1.09734 0.260013,-2.49073 -0.837324,-3.12428 z m 3.113624,5.82783 0.231127,0.13345 c 1.097337,0.63354 1.470749,2.02714 0.837201,3.12447 l -7.308714,12.65907 c -0.633548,1.09733 -2.027137,1.47075 -3.124474,0.8372 l -0.231127,-0.13344 c -1.097337,-0.63355 -1.47054,-2.02703 -0.836992,-3.12436 l 7.308707,-12.65907 c 0.633548,-1.09733 2.026942,-1.47086 3.124272,-0.83732 z m -23.55201,8.8452 c -0.657378,-0.37955 -1.497876,-0.1458 -1.884592,0.524 l -6.730154,11.65698 c -0.386709,0.66981 -0.168886,1.51457 0.488491,1.8941 0.657371,0.37954 1.498079,0.14591 1.884787,-0.52389 l 6.730162,-11.65697 c 0.386709,-0.66981 0.168684,-1.51469 -0.488694,-1.89422 z m 3.982967,2.29956 c -0.657378,-0.37954 -1.497877,-0.14579 -1.884585,0.52401 l -6.730162,11.65697 c -0.386709,0.66981 -0.168886,1.51457 0.488485,1.89412 0.657377,0.37953 1.498085,0.1459 1.884801,-0.5239 l 6.730154,-11.65698 c 0.386709,-0.6698 0.168677,-1.51468 -0.488693,-1.89422 z"
       id="path1528"
       inkscape:connector-curvature="0" />
    <path
       inkscape:connector-curvature="0"
       id="path1650"
       d="m 176.76739,218.23344 a 8.9043377,8.9043377 0 0 0 -12.16336,3.25917 8.9043377,8.9043377 0 0 0 3.25905,12.16357 8.9043377,8.9043377 0 0 0 12.16369,-3.25925 8.9043377,8.9043377 0 0 0 -3.25938,-12.16349 z m -22.06535,9.22174 c -1.09734,-0.63354 -2.49081,-0.26033 -3.12436,0.837 l -8.69204,15.05507 c -0.63355,1.09733 -0.26002,2.49072 0.83731,3.12427 l 2.77658,1.60306 c 1.09734,0.63354 2.4906,0.26021 3.12416,-0.83713 l 8.69204,-15.05506 c 0.63354,-1.09734 0.26022,-2.4906 -0.83712,-3.12416 z m 8.32275,4.80515 c -1.09734,-0.63355 -2.4908,-0.26034 -3.12436,0.83699 l -14.19086,24.5793 -1.14352,1.98064 a 7.1753402,16.47797 30 0 0 -2.02484,17.85814 7.1753402,16.47797 30 0 0 14.45299,-10.68275 l 1.14351,-1.98063 14.19087,-24.5793 c 0.63356,-1.09734 0.26001,-2.49073 -0.83732,-3.12428 z m 3.11363,5.82783 0.23112,0.13345 c 1.09734,0.63354 1.47075,2.02714 0.8372,3.12447 l -7.30871,12.65907 c -0.63355,1.09733 -2.02714,1.47075 -3.12447,0.8372 l -0.23113,-0.13344 c -1.09734,-0.63355 -1.47054,-2.02703 -0.83699,-3.12436 l 7.3087,-12.65907 c 0.63355,-1.09733 2.02695,-1.47086 3.12428,-0.83732 z m -23.55201,8.8452 c -0.65738,-0.37955 -1.49788,-0.1458 -1.8846,0.524 l -6.73015,11.65698 c -0.38671,0.66981 -0.16889,1.51457 0.48849,1.8941 0.65737,0.37954 1.49808,0.14591 1.88479,-0.52389 l 6.73016,-11.65697 c 0.38671,-0.66981 0.16868,-1.51469 -0.48869,-1.89422 z m 3.98296,2.29956 c -0.65738,-0.37954 -1.49787,-0.14579 -1.88458,0.52401 l -6.73016,11.65697 c -0.38671,0.66981 -0.16889,1.51457 0.48848,1.89412 0.65738,0.37953 1.49809,0.1459 1.8848,-0.5239 l 6.73016,-11.65698 c 0.3867,-0.6698 0.16867,-1.51468 -0.4887,-1.89422 z"
       style="opacity:1;fill:#faad94;fill-opacity:1;stroke:none;stroke-width:6.54590368;stroke-linecap:square;stroke-linejoin:miter;stroke-miterlimit:4;stroke-dasharray:none;stroke-opacity:1;paint-order:markers stroke fill" />
    <path
       style="opacity:1;fill:#f1ffaf;fill-opacity:1;stroke:none;stroke-width:2.35124493;stroke-linecap:square;stroke-linejoin:miter;stroke-miterlimit:4;stroke-dasharray:none;stroke-opacity:1;paint-order:fill markers stroke"
       d="m 22.728007,121.80303 c -1.098418,0 -1.986377,7.68885 -2.038835,17.40641 -0.980278,0.28333 -1.693763,1.1831 -1.693763,2.25706 v 10.49454 c 0,1.30259 1.048751,2.35111 2.351342,2.35111 h 2.762511 c 1.302592,0 2.35135,-1.04852 2.35135,-2.35111 v 21.20535 c 0,1.12497 11.613473,2.03058 26.039267,2.03058 14.425787,0 26.039509,-0.90561 26.039509,-2.03058 v -21.20535 c 0,1.30259 1.048509,2.35111 2.351101,2.35111 h 2.76276 c 1.302591,0 2.351342,-1.04852 2.351342,-2.35111 V 141.4665 c 0,-1.07387 -0.713606,-1.97342 -1.693763,-2.25681 -0.05243,-9.71768 -0.940402,-17.40666 -2.038835,-17.40666 -1.098432,0 -1.986633,7.68898 -2.039084,17.40666 -0.980157,0.28339 -1.693521,1.18294 -1.693521,2.25681 v -6.00837 c 0,-1.12496 -11.613722,-2.03081 -26.039509,-2.03081 -14.425794,0 -26.039267,0.90585 -26.039267,2.03081 v 6.00837 c 0,-1.07396 -0.713485,-1.97373 -1.69377,-2.25706 -0.05243,-9.71756 -0.94041,-17.40641 -2.038835,-17.40641 z m 19.956052,20.7174 a 6.9754184,6.9754184 0 0 1 6.975301,6.97554 6.9754184,6.9754184 0 0 1 -6.975301,6.9753 6.9754184,6.9754184 0 0 1 -6.975543,-6.9753 6.9754184,6.9754184 0 0 1 6.975543,-6.97554 z m 19.258861,0 a 6.9754184,6.9754184 0 0 1 6.975301,6.97554 6.9754184,6.9754184 0 0 1 -6.975301,6.9753 6.9754184,6.9754184 0 0 1 -6.975543,-6.9753 6.9754184,6.9754184 0 0 1 6.975543,-6.97554 z m -24.995548,19.95022 h 15.552507 15.552508 v 7.99836 H 57.117759 l -4.61788,-7.99836 -4.617879,7.99836 H 36.947372 Z"
       id="rect1652"
       inkscape:connector-curvature="0" />
    <path
       inkscape:connector-curvature="0"
       id="path1716"
       d="m 127.72801,121.80303 c -1.09842,0 -1.98638,7.68885 -2.03884,17.40641 -0.98028,0.28333 -1.69376,1.1831 -1.69376,2.25706 v 10.49454 c 0,1.30259 1.04875,2.35111 2.35134,2.35111 h 2.76251 c 1.30259,0 2.35135,-1.04852 2.35135,-2.35111 v 21.20535 c 0,1.12497 11.61347,2.03058 26.03927,2.03058 14.42579,0 26.03951,-0.90561 26.03951,-2.03058 v -21.20535 c 0,1.30259 1.04851,2.35111 2.3511,2.35111 h 2.76276 c 1.30259,0 2.35134,-1.04852 2.35134,-2.35111 V 141.4665 c 0,-1.07387 -0.71361,-1.97342 -1.69376,-2.25681 -0.0524,-9.71768 -0.9404,-17.40666 -2.03884,-17.40666 -1.09843,0 -1.98663,7.68898 -2.03908,17.40666 -0.98016,0.28339 -1.69352,1.18294 -1.69352,2.25681 v -6.00837 c 0,-1.12496 -11.61372,-2.03081 -26.03951,-2.03081 -14.4258,0 -26.03927,0.90585 -26.03927,2.03081 v 6.00837 c 0,-1.07396 -0.71348,-1.97373 -1.69377,-2.25706 -0.0524,-9.71756 -0.94041,-17.40641 -2.03883,-17.40641 z m 19.95605,20.7174 a 6.9754184,6.9754184 0 0 1 6.9753,6.97554 6.9754184,6.9754184 0 0 1 -6.9753,6.9753 6.9754184,6.9754184 0 0 1 -6.97554,-6.9753 6.9754184,6.9754184 0 0 1 6.97554,-6.97554 z m 19.25886,0 a 6.9754184,6.9754184 0 0 1 6.9753,6.97554 6.9754184,6.9754184 0 0 1 -6.9753,6.9753 6.9754184,6.9754184 0 0 1 -6.97554,-6.9753 6.9754184,6.9754184 0 0 1 6.97554,-6.97554 z m -24.99555,19.95022 h 15.55251 15.55251 v 7.99836 h -10.93463 l -4.61788,-7.99836 -4.61788,7.99836 h -10.93463 z"
       style="opacity:1;fill:#b5cd91;fill-opacity:1;stroke:none;stroke-width:2.35124493;stroke-linecap:square;stroke-linejoin:miter;stroke-miterlimit:4;stroke-dasharray:none;stroke-opacity:1;paint-order:fill markers stroke" />
    <path
       style="fill:#9878aa;fill-opacity:1;stroke:none;stroke-width:0.15364386px;stroke-linecap:butt;stroke-linejoin:miter;stroke-opacity:1"
       d="m 146.79661,37.378081 -3.14296,4.431771 c 0,0 1.66843,0.116051 5.97535,0.310057 4.30691,0.194006 7.02283,0.776182 7.02283,0.776182 l 2.10685,-5.298385 z m -18.14566,4.508767 c -0.0118,0.0012 -1.01198,0.10482 -1.42936,0.448554 -0.523,0.430702 -1.15355,0.419822 -1.60044,0.348297 -0.31548,-0.0505 -0.52871,-0.126548 -0.6568,-0.176734 -0.0797,-0.0054 -0.82351,-0.04923 -1.88981,0.383958 -0.5353,0.217464 -0.7779,0.458616 -0.8971,0.618567 -0.11752,0.157745 -0.10474,0.172688 -0.10437,0.173114 l -0.25115,2.543517 c 0.71665,0.09902 2.99175,0.393604 4.97592,0.204636 2.63353,-0.250814 5.98619,0.676963 5.98619,0.676963 l 0.0372,0.0098 0.0357,0.01499 c 0,0 0.56907,0.230341 1.10588,0.642853 0.26839,0.206256 0.54142,0.460377 0.73379,0.805637 0.12343,0.221502 0.1941,0.498893 0.19122,0.787033 0.59597,0.407807 2.73558,1.646227 5.95622,0.655256 2.08873,-0.642694 3.27716,-0.586441 4.02765,-0.230994 0.34761,0.164629 0.57147,0.399991 0.70797,0.61495 l 27.4407,0.109037 0.0476,0.0078 c 0,0 1.24505,0.207444 2.49288,0.143142 0.62391,-0.03215 1.24108,-0.139655 1.65983,-0.330729 0.41876,-0.191074 0.61042,-0.387884 0.66199,-0.748792 0.0432,-0.302781 -0.15073,-0.727924 -0.63976,-1.21698 -0.48903,-0.489048 -1.21918,-0.990351 -1.96887,-1.421617 -1.49942,-0.862533 -3.05822,-1.455727 -3.05822,-1.455727 l 0.0258,-0.127121 -1.75389,-0.106971 -13.93405,-1.790589 -0.0232,-0.0047 c 0,0 -2.66203,-0.571627 -6.92775,-0.763777 -4.29545,-0.193488 -5.9569,-0.309245 -5.96863,-0.310058 z m 43.77097,3.063896 c 0,0 6.36503,2.414432 6.03581,4.719093 -0.32922,2.30465 -5.48701,1.426786 -5.48701,1.426786 l -27.04383,-0.106971 c 0.15928,0.0842 0.33528,0.187074 0.52195,0.327113 0.27098,0.203292 0.53361,0.462169 0.68678,0.800467 0.15314,0.338302 0.17457,0.761789 -0.0212,1.185974 -0.6073,1.315794 -0.7257,2.095413 -0.73795,2.184363 l 29.55737,0.108522 c 0,0 8.58864,-2.436824 14.61411,-1.476913 l -0.9121,-3.722772 -6.0265,-0.187068 -0.01,-0.580327 9.91515,-0.639236 c -0.4986,-1.754081 -1.22938,-3.271117 -1.22938,-3.271117 L 179.39928,45.220495 Z M 121.18785,46.7372 c 0,0 0.22127,0.03278 0.56274,0.07596 -0.2863,-0.03736 -0.56274,-0.07596 -0.56274,-0.07596 z m 1.38906,0.463021 c 3.7e-4,2.4e-5 0.003,3.81e-4 0.006,5.16e-4 v -5.16e-4 c -0.002,-1.64e-4 -0.006,8e-6 -0.006,0 z m 0.0666,0.0062 c -0.6182,0.158523 -1.1208,0.403239 -1.4614,0.745175 -0.34793,0.349311 -0.54893,0.795089 -0.55811,1.428338 -0.0191,1.319995 0.10292,2.148885 0.3271,2.650484 0.22418,0.50159 0.52049,0.706462 1.00822,0.860928 0.97547,0.308951 2.68179,0.22942 4.9661,1.182873 2.11347,0.882139 6.95066,1.194853 11.19984,1.247986 4.05347,0.05069 7.40579,-0.103415 7.72409,-0.118337 0.0497,-0.275246 0.19275,-0.963451 0.73742,-2.14354 0.13345,-0.289161 0.11387,-0.49679 0.0201,-0.703832 -0.0937,-0.207034 -0.28361,-0.408011 -0.50641,-0.575159 -0.44564,-0.334312 -0.98753,-0.519348 -0.98753,-0.519348 l -0.17934,-0.05994 -0.0181,-0.188621 c 0,0 9e-4,-0.02771 -0.0455,-0.112136 -0.0465,-0.08443 -0.13388,-0.19938 -0.33176,-0.302308 -0.39574,-0.205869 -1.2768,-0.354139 -3.07837,0.151411 -0.11626,0.03263 -0.2358,0.06733 -0.35968,0.10542 -4.16129,1.280401 -7.01818,-0.981853 -7.01818,-0.981853 l -0.16536,-0.132291 0.0749,-0.197403 c 0.0749,-0.197641 0.0462,-0.354751 -0.0568,-0.539502 -0.10295,-0.184753 -0.292,-0.376068 -0.50332,-0.538469 -0.41114,-0.315918 -0.86749,-0.510585 -0.89297,-0.521414 -0.0328,-0.0087 -2.36228,-0.62316 -4.51136,-0.677995 0.0116,2.96e-4 0.009,4.39e-4 -0.009,0 -0.12568,-0.0031 -0.25051,-0.0043 -0.37518,-0.0036 -0.0817,6.38e-4 -0.1614,0.0012 -0.2377,0.0036 h -5.3e-4 -5e-4 c -0.0471,0.0014 -0.0965,0.0039 -0.14833,0.0062 -0.13015,0.0062 -0.25702,0.0134 -0.37671,0.0248 -0.1709,0.01627 -0.34486,0.02868 -0.51986,0.03824 -0.0648,0.0036 -0.12615,0.0053 -0.18346,0.0077 -0.1162,0.005 -0.23371,0.0094 -0.35346,0.01189 -0.0663,0.0013 -0.13086,0.0021 -0.1938,0.0026 -0.1184,0.0012 -0.23699,0.0014 -0.35656,5.16e-4 -0.0604,-4.63e-4 -0.1202,-0.0012 -0.18036,-0.0021 -0.13695,-0.0021 -0.27281,-0.0053 -0.40876,-0.0098 -0.0299,-10e-4 -0.062,-0.0018 -0.0956,-0.0031 -0.28983,-0.01058 -0.56634,-0.02685 -0.8382,-0.04496 h -5e-4 c -0.1147,-0.0077 -0.22183,-0.01579 -0.33073,-0.02429 -0.27739,-0.02143 -0.53192,-0.04399 -0.77412,-0.06822 z m 70.71352,2.375567 -3.65456,0.235643 0.39222,0.01189 0.99632,4.066934 0.81753,0.0646 c 0.54806,-0.02648 0.91567,-0.182912 1.17719,-0.423231 0.26307,-0.241757 0.43018,-0.58276 0.51832,-1.012856 0.16414,-0.801053 0.0133,-1.888297 -0.24702,-2.942974 z m -33.5902,9.367388 a 34.611405,1.3363476 0 0 0 -34.61131,1.336352 34.611405,1.3363476 0 0 0 34.61131,1.336352 34.611405,1.3363476 0 0 0 34.61133,-1.336352 34.611405,1.3363476 0 0 0 -34.61133,-1.336352 z"
       id="path1757"
       inkscape:connector-curvature="0" />
    <path
       inkscape:connector-curvature="0"
       id="path1826"
       d="m 41.796506,37.378001 -3.14296,4.431771 c 0,0 1.66843,0.116051 5.97535,0.310057 4.30691,0.194006 7.02283,0.776182 7.02283,0.776182 l 2.10685,-5.298385 z m -18.14566,4.508767 c -0.0118,0.0012 -1.01198,0.10482 -1.42936,0.448554 -0.523,0.430702 -1.15355,0.419822 -1.60044,0.348297 -0.31548,-0.0505 -0.52871,-0.126548 -0.6568,-0.176734 -0.0797,-0.0054 -0.82351,-0.04923 -1.88981,0.383958 -0.5353,0.217464 -0.7779,0.458616 -0.8971,0.618567 -0.11752,0.157745 -0.10474,0.172688 -0.10437,0.173114 l -0.25115,2.543517 c 0.71665,0.09902 2.99175,0.393604 4.97592,0.204636 2.63353,-0.250814 5.98619,0.676963 5.98619,0.676963 l 0.0372,0.0098 0.0357,0.01499 c 0,0 0.56907,0.230341 1.10588,0.642853 0.26839,0.206256 0.54142,0.460377 0.73379,0.805637 0.12343,0.221502 0.1941,0.498893 0.19122,0.787033 0.59597,0.407807 2.73558,1.646227 5.95622,0.655256 2.08873,-0.642694 3.27716,-0.586441 4.02765,-0.230994 0.34761,0.164629 0.57147,0.399991 0.70797,0.61495 l 27.4407,0.109037 0.0476,0.0078 c 0,0 1.24505,0.207444 2.49288,0.143142 0.62391,-0.03215 1.24108,-0.139655 1.65983,-0.330729 0.41876,-0.191074 0.61042,-0.387884 0.66199,-0.748792 0.0432,-0.302781 -0.15073,-0.727924 -0.63976,-1.21698 -0.48903,-0.489048 -1.21918,-0.990351 -1.96887,-1.421617 -1.49942,-0.862533 -3.05822,-1.455727 -3.05822,-1.455727 l 0.0258,-0.127121 -1.75389,-0.106971 -13.93405,-1.790589 -0.0232,-0.0047 c 0,0 -2.66203,-0.571627 -6.92775,-0.763777 -4.29545,-0.193488 -5.9569,-0.309245 -5.96863,-0.310058 z m 43.77097,3.063896 c 0,0 6.36503,2.414432 6.03581,4.719093 -0.32922,2.30465 -5.48701,1.426786 -5.48701,1.426786 l -27.04383,-0.106971 c 0.15928,0.0842 0.33528,0.187074 0.52195,0.327113 0.27098,0.203292 0.53361,0.462169 0.68678,0.800467 0.15314,0.338302 0.17457,0.761789 -0.0212,1.185974 -0.6073,1.315794 -0.7257,2.095413 -0.73795,2.184363 l 29.55737,0.108522 c 0,0 8.58864,-2.436824 14.61411,-1.476913 l -0.9121,-3.722772 -6.0265,-0.187068 -0.01,-0.580327 9.91515,-0.639236 c -0.4986,-1.754081 -1.22938,-3.271117 -1.22938,-3.271117 l -12.88584,-0.498163 z m -51.23407,1.786456 c 0,0 0.22127,0.03278 0.56274,0.07596 -0.2863,-0.03736 -0.56274,-0.07596 -0.56274,-0.07596 z m 1.38906,0.463021 c 3.7e-4,2.4e-5 0.003,3.81e-4 0.006,5.16e-4 v -5.16e-4 c -0.002,-1.64e-4 -0.006,8e-6 -0.006,0 z m 0.0666,0.0062 c -0.6182,0.158523 -1.1208,0.403239 -1.4614,0.745175 -0.34793,0.349311 -0.54893,0.795089 -0.55811,1.428338 -0.0191,1.319995 0.10292,2.148885 0.3271,2.650484 0.22418,0.50159 0.52049,0.706462 1.00822,0.860928 0.97547,0.308951 2.68179,0.22942 4.9661,1.182873 2.11347,0.882139 6.95066,1.194853 11.19984,1.247986 4.05347,0.05069 7.40579,-0.103415 7.72409,-0.118337 0.0497,-0.275246 0.19275,-0.963451 0.73742,-2.14354 0.13345,-0.289161 0.11387,-0.49679 0.0201,-0.703832 -0.0937,-0.207034 -0.28361,-0.408011 -0.50641,-0.575159 -0.44564,-0.334312 -0.98753,-0.519348 -0.98753,-0.519348 l -0.17934,-0.05994 -0.0181,-0.188621 c 0,0 9e-4,-0.02771 -0.0455,-0.112136 -0.0465,-0.08443 -0.13388,-0.19938 -0.33176,-0.302308 -0.39574,-0.205869 -1.2768,-0.354139 -3.07837,0.151411 -0.11626,0.03263 -0.2358,0.06733 -0.35968,0.10542 -4.16129,1.280401 -7.01818,-0.981853 -7.01818,-0.981853 l -0.16536,-0.132291 0.0749,-0.197403 c 0.0749,-0.197641 0.0462,-0.354751 -0.0568,-0.539502 -0.10295,-0.184753 -0.292,-0.376068 -0.50332,-0.538469 -0.41114,-0.315918 -0.86749,-0.510585 -0.89297,-0.521414 -0.0328,-0.0087 -2.36228,-0.62316 -4.51136,-0.677995 0.0116,2.96e-4 0.009,4.39e-4 -0.009,0 -0.12568,-0.0031 -0.25051,-0.0043 -0.37518,-0.0036 -0.0817,6.38e-4 -0.1614,0.0012 -0.2377,0.0036 h -5.3e-4 -5e-4 c -0.0471,0.0014 -0.0965,0.0039 -0.14833,0.0062 -0.13015,0.0062 -0.25702,0.0134 -0.37671,0.0248 -0.1709,0.01627 -0.34486,0.02868 -0.51986,0.03824 -0.0648,0.0036 -0.12615,0.0053 -0.18346,0.0077 -0.1162,0.005 -0.23371,0.0094 -0.35346,0.01189 -0.0663,0.0013 -0.13086,0.0021 -0.1938,0.0026 -0.1184,0.0012 -0.23699,0.0014 -0.35656,5.16e-4 -0.0604,-4.63e-4 -0.1202,-0.0012 -0.18036,-0.0021 -0.13695,-0.0021 -0.27281,-0.0053 -0.40876,-0.0098 -0.0299,-10e-4 -0.062,-0.0018 -0.0956,-0.0031 -0.28983,-0.01058 -0.56634,-0.02685 -0.8382,-0.04496 h -5e-4 c -0.1147,-0.0077 -0.22183,-0.01579 -0.33073,-0.02429 -0.27739,-0.02143 -0.53192,-0.04399 -0.77412,-0.06822 z m 70.71352,2.375567 -3.65456,0.235643 0.39222,0.01189 0.99632,4.066934 0.81753,0.0646 c 0.54806,-0.02648 0.91567,-0.182912 1.17719,-0.423231 0.26307,-0.241757 0.43018,-0.58276 0.51832,-1.012856 0.16414,-0.801053 0.0133,-1.888297 -0.24702,-2.942974 z m -33.5902,9.367388 a 34.611405,1.3363476 0 0 0 -34.61131,1.336352 34.611405,1.3363476 0 0 0 34.61131,1.336352 34.611405,1.3363476 0 0 0 34.61133,-1.336352 34.611405,1.3363476 0 0 0 -34.61133,-1.336352 z"
       style="fill:#c4d7f8;fill-opacity:1;stroke:none;stroke-width:0.15364386px;stroke-linecap:butt;stroke-linejoin:miter;stroke-opacity:1" />
  </g>
</svg>
