<?xml version="1.0" encoding="UTF-8" standalone="no"?>
<!-- Created with Inkscape (http://www.inkscape.org/) -->

<svg
   xmlns:dc="http://purl.org/dc/elements/1.1/"
   xmlns:cc="http://creativecommons.org/ns#"
   xmlns:rdf="http://www.w3.org/1999/02/22-rdf-syntax-ns#"
   xmlns:svg="http://www.w3.org/2000/svg"
   xmlns="http://www.w3.org/2000/svg"
   xmlns:sodipodi="http://sodipodi.sourceforge.net/DTD/sodipodi-0.dtd"
   xmlns:inkscape="http://www.inkscape.org/namespaces/inkscape"
   width="16in"
   height="16in"
   viewBox="0 0 406.4 406.40001"
   version="1.1"
   id="svg820"
   inkscape:version="0.92.4 (5da689c313, 2019-01-14)"
   sodipodi:docname="puzzle-sliced.svg">
  <defs
     id="defs814" />
  <sodipodi:namedview
     id="base"
     pagecolor="#ffffff"
     bordercolor="#666666"
     borderopacity="1.0"
     inkscape:pageopacity="0.0"
     inkscape:pageshadow="2"
     inkscape:zoom="0.35"
     inkscape:cx="319.01353"
     inkscape:cy="559.51232"
     inkscape:document-units="mm"
     inkscape:current-layer="layer1"
     showgrid="false"
     units="in"
     inkscape:snap-page="true"
     inkscape:window-width="1920"
     inkscape:window-height="1017"
     inkscape:window-x="-8"
     inkscape:window-y="-8"
     inkscape:window-maximized="1" />
  <metadata
     id="metadata817">
    <rdf:RDF>
      <cc:Work
         rdf:about="">
        <dc:format>image/svg+xml</dc:format>
        <dc:type
           rdf:resource="http://purl.org/dc/dcmitype/StillImage" />
        <dc:title></dc:title>
      </cc:Work>
    </rdf:RDF>
  </metadata>
  <g
     inkscape:label="Layer 1"
     inkscape:groupmode="layer"
     id="layer1"
     transform="translate(0,109.40002)">
    <path
       style="opacity:1;fill:#eff484;fill-opacity:1;stroke:none;stroke-width:37.79527664;stroke-linecap:square;stroke-linejoin:miter;stroke-miterlimit:4;stroke-dasharray:none;stroke-opacity:1"
       d="M 202.06836 0 C 194.94995 29.710519 195.19759 67.149034 203.75195 113.5332 C 244.56364 111.37039 264.88306 105.55726 272.09375 102.76953 C 263.56412 107.75986 239.45928 126.16996 218.43555 174.88086 C 229.38066 212.9629 244.65979 255.75169 264.60547 303.68359 C 322.9613 443.91981 257.01402 441.98229 173.99219 388.69141 C 116.82147 662.54835 -50.880886 861.08466 187.3125 578.98047 C 264.1902 487.93041 341.11327 396.5052 405.3457 311.72852 C 405.0134 312.36039 404.69004 312.95137 404.35547 313.59375 C 319.85631 475.83128 492.34807 494.06875 336.68359 575.7207 C 214.64897 639.73252 269.44899 758.77547 399.7793 807.02148 C 345.87806 810.74803 278.67891 844.60524 279.22461 867.15039 C 214.64769 777.02553 113.94411 750.82284 48.046875 832.59375 C 10.953224 878.62272 23.613352 941.18485 56.119141 1002.0488 C 37.791627 987.37622 19.008039 973.11544 0 959.44922 L 0 1536 L 265.35742 1536 C 247.31293 1481.6874 242.21606 1408.9883 281.50586 1312.8223 C 297.00202 1318.472 332.95784 1317.6253 366.59766 1293.6875 C 359.35032 1293.2607 351.18379 1292.9645 342.01172 1292.7949 C 316.53009 1292.3239 299.23253 1294.0427 288.40625 1296.7207 C 289.33444 1294.6501 290.26341 1292.5798 291.23242 1290.4883 C 328.53931 1209.9645 342.84334 1133.5984 341.15625 1065.7148 C 343.51478 1052.6388 346.08009 1038.1432 348.92188 1022.1484 C 350.2048 1014.9276 351.14238 1008.1827 351.78125 1001.8535 C 346.18002 1005.0579 341.03963 1009.0371 336.66016 1014.1309 C 328.92098 963.23531 311.97315 918.59982 289.47852 882.49023 C 316.93553 909.29473 360.05421 919.89476 351.78125 1001.8535 C 394.54607 977.3885 464.59028 998.81971 434.88672 926.38086 C 429.58783 913.45832 425.78468 904.83008 423.20117 899.30273 C 432.16035 913.10097 452.67502 932.96489 464.44922 866.79883 C 468.12489 846.14313 464.25171 831.72942 455.4707 822.20312 C 476.68531 826.08863 499.16111 828.19792 522.61133 828.15039 C 536.63322 828.12197 548.4373 827.55461 558.27539 826.51172 C 686.48801 893.31368 951.95444 1128.0819 910.97656 1001.9043 C 957.98082 1000.0287 1012.0705 985.93655 1056.8301 954.81836 C 1042.1185 983.90511 1037.9188 1008.8118 1048.873 1026.0371 C 1049.2022 1026.5547 1049.5544 1027.0636 1049.8965 1027.5762 C 987.20253 1068.2069 894.41853 1117.4019 764.5293 1164.2363 C 745.21892 1171.1991 727.21183 1176.7482 710.38281 1181.0723 C 737.93579 1264.2456 759.50518 1335.5371 783.3418 1406.9805 C 786.46793 1405.0935 800.43892 1403.9889 830.77344 1403.6191 C 877.01437 1403.0555 887.06253 1422.079 887.61719 1439.0156 C 895.64184 1440.383 902.9318 1439.8468 909.67969 1437.7559 C 915.17501 1433.3441 920.46737 1430.7413 925.70898 1429.3262 C 952.95755 1408.7761 972.04362 1361.3864 1000.625 1318.875 C 1043.4488 1255.1797 1134.0746 1312.6306 1052.5938 1393.1348 C 988.24387 1456.713 957.90975 1420.6324 925.70898 1429.3262 C 920.68156 1433.1177 915.37389 1435.9914 909.67969 1437.7559 C 906.18755 1440.5595 902.61478 1444.0787 898.91797 1448.5039 C 873.53261 1478.8913 888.32591 1460.6567 887.61719 1439.0156 C 884.12438 1438.4205 880.49387 1437.4694 876.70898 1436.1289 C 840.80066 1423.4109 793.26185 1414.683 784.17969 1409.4727 C 797.97762 1450.737 812.58922 1492.137 829.59961 1536 L 1497.6406 1536 C 1507.049 1493.1006 1447.5382 1444.1692 1369.3828 1390.9414 C 1414.8316 1399.6435 1474.2787 1411.3499 1536 1421.4707 L 1536 1091.334 C 1532.6431 1092.4187 1529.2739 1093.5399 1525.8828 1094.7227 C 1465.5804 1115.7562 1412.2014 1142.3509 1368.793 1171.8223 C 1372.963 1138.8848 1197.95 1124.1592 1100.666 1070.3027 C 1095.3448 1070.0866 1089.7121 1069.704 1083.6445 1069.0879 C 1074.8711 1068.1971 1067.0587 1068.0718 1060.1602 1068.6152 C 1062.2612 1061.9823 1065.16 1055.3361 1068.9238 1048.6797 C 1078.0269 1056.5436 1088.7661 1063.7149 1100.666 1070.3027 C 1234.8796 1075.7537 1143.6958 959.24027 1429.8379 984.62109 C 1487.9112 989.7722 1520.4011 991.97308 1536 990.27344 L 1536 967.59766 C 1510.4537 941.8659 1452.177 892.77885 1448.1758 810.63477 C 1534.6422 874.9456 1564.3245 867.38524 1457.0176 741.64062 C 1460.6523 729.21517 1465.4603 716.24275 1471.6445 702.69141 C 1504.6404 630.38798 1479.9345 615.05083 1428.9727 632.94922 C 1417.3668 623.30798 1391.9387 602.66422 1347.9688 566.97266 C 1324.4403 547.87402 1304.1195 528.67823 1286.666 509.42383 C 1289.4682 518.68587 1292.9405 528.12666 1297.123 537.74219 C 1354.6459 578.62639 1407.3675 618.41359 1427.7383 633.39453 C 1413.4617 638.51505 1397.1805 646.18313 1379.5625 655.89844 C 1378.8503 655.14266 1378.1907 654.43057 1377.4727 653.66992 C 1338.7824 612.68183 1312.8821 573.97196 1297.123 537.74219 C 1227.1477 488.00736 1150.2041 436.7594 1116.0723 426.85352 C 1118.5116 411.90502 1115.1467 392.81028 1103.7812 370.19336 C 1061.8956 286.84189 1142.6274 271.86555 1199.3809 234.5625 C 1189.5881 229.50001 1178.5748 219.71544 1166.3555 203.42969 C 1081.5167 90.357674 1046.2966 86.401987 1019.2617 205.53711 C 1019.0229 206.58952 1018.7648 207.59483 1018.5137 208.61914 C 1012.5775 197.78252 1006.6227 185.19465 1000.9141 170.58789 C 994.63318 154.51696 988.96528 142.80828 983.83984 134.54102 C 975.47961 141.18011 964.20249 149.29498 949.37891 159.00195 C 956.15755 144.51535 966.53089 132.78477 976.45703 124.51953 C 958.2972 105.01071 948.42954 134.26882 943.625 162.73828 C 937.91074 166.41141 931.66715 170.3185 924.9668 174.41992 C 928.09071 177.64708 930.69709 181.86152 932.63867 187.22656 C 944.1066 218.91511 916.91491 232.6039 889.9082 237.94727 C 902.31639 238.24378 917.51963 238.81492 936.40625 239.82227 C 963.264 241.25477 985.40232 243.69964 1003.4922 246.58398 C 965.23701 310.54607 895.43865 279.61432 957.31055 384.11133 C 1004.5503 463.89573 1075.9433 479.63739 1104.4395 450.68555 C 1111.9735 464.87556 1126.4782 485.51943 1149.6562 514.08984 C 1204.9927 582.29985 1262.7432 644.18966 1315.9297 695.77148 C 1214.8882 765.65853 1098.8772 873.93374 1057.9551 952.65625 C 1035.9901 957.24509 1014.55 947.9847 1010.9922 900.25977 C 1001.3289 770.63657 1025.7051 583.09153 961.09375 581.41602 C 1043.0819 496.20751 984.93041 512.74216 896.42383 536.44141 C 902.52648 705.64876 694.71044 750.9843 585.05469 777.01172 C 581.77991 771.34241 576.19212 763.8517 567.63477 754.20508 C 556.70089 741.87942 550.10446 729.32493 546.6582 716.86914 C 531.66203 721.88952 525.5415 729.36915 525.07031 737.6875 C 474.80344 704.78199 412.87065 669.13077 386.85547 642.32812 C 322.8664 576.40216 443.48823 564.09817 472.21875 444.46094 C 494.67706 350.94194 492.18877 224.53325 449.67188 251.28711 C 521.31217 149.87241 568.26194 61.524142 565.56445 0 L 202.06836 0 z M 546.6582 716.86914 C 558.16533 713.01682 574.88806 710.61055 598.31641 710.38867 C 745.33095 708.99637 692.05104 643.2362 626.10938 594.36133 C 610.69657 609.96146 587.47168 620.83745 562.91406 627.69336 C 549.98496 652.95949 537.72426 684.57918 546.6582 716.86914 z M 562.91406 627.69336 C 587.178 580.27662 613.7793 555.25797 506.99023 590.32617 C 387.7893 629.47028 482.47106 650.15116 562.91406 627.69336 z M 626.10938 594.36133 C 638.83765 581.47835 646.24244 565.37924 644.65234 545.6582 C 634.82957 423.83209 495.14242 516.33216 568.97656 557.4375 C 585.86966 566.84232 606.54599 579.86127 626.10938 594.36133 z M 896.42383 536.44141 C 895.52637 511.55758 890.00599 483.99959 878.85938 453.42578 C 751.8148 104.95845 677.45095 179.90689 637.98047 459.79102 C 616.84433 609.66681 781.99459 567.08192 896.42383 536.44141 z M 889.9082 237.94727 C 812.94346 236.10806 851.13271 245.61913 889.9082 237.94727 z M 924.9668 174.41992 C 878.87648 126.80629 719.58545 295.1851 903.94922 187.01562 C 911.47647 182.59926 918.43325 178.41923 924.9668 174.41992 z M 976.45703 124.51953 C 978.77787 127.01277 981.24201 130.35074 983.83984 134.54102 C 1021.2611 104.82372 1000.2069 104.74365 976.45703 124.51953 z M 1199.3809 234.5625 C 1200.3708 235.07428 1201.3495 235.53819 1202.3145 235.95508 C 1186.1353 325.48396 1203.8828 418.09893 1286.666 509.42383 C 1268.7679 450.26451 1278.0385 398.4028 1301.6094 354.82227 C 1304.8068 363.74828 1314.0837 374.7821 1332.166 388.32031 C 1334.6992 390.21689 1337.2069 391.97646 1339.6992 393.66992 C 1345.8115 361.16771 1357.561 333.85733 1374.9688 329.02539 C 1402.7977 321.30075 1348.9511 315.76429 1318.7715 327.71875 C 1360.5967 270.42354 1426.1423 230.63066 1477.5703 211.2832 C 1467.4401 164.08272 1470.165 81.717872 1474.9004 0 L 1308.918 0 C 1261.5969 72.615498 1218.5741 151.05759 1203.0371 232.10156 C 1201.8302 232.93262 1200.6119 233.75339 1199.3809 234.5625 z M 1477.5703 211.2832 C 1485.8154 249.70001 1502.571 264.82546 1533.6816 237.3457 C 1534.5018 236.62128 1535.2312 235.93239 1536 235.22852 L 1536 197.85742 C 1522.0082 197.78944 1501.2982 202.35665 1477.5703 211.2832 z M 1339.6992 393.66992 C 1328.8712 451.24841 1335.7405 525.12249 1360.2305 519.19922 C 1398.5447 509.93234 1296.3824 584.11643 1412.793 531.13086 C 1529.2035 478.14529 1492.8574 449.14224 1501.0371 407.04297 C 1509.0217 365.94789 1441.6941 462.97188 1339.6992 393.66992 z M 710.38281 1181.0723 C 696.1563 1138.1271 680.36122 1092.0727 661.77148 1041.0703 C 557.97866 756.30663 337.24398 1276.9471 710.38281 1181.0723 z M 366.59766 1293.6875 C 514.43996 1302.395 278.38378 1365.2938 334.95508 1509.0391 C 339.76248 1521.2545 345.1229 1530.0646 350.9668 1536 L 400.0957 1536 C 467.10988 1493.0827 558.9757 1324.4738 635.84375 1345.8574 C 582.30291 1315.9672 487.12163 1255.5231 463.07617 1201.2793 C 449.07325 1169.6903 442.34254 1114.0833 439.35938 1066.3574 C 439.24462 1079.6775 439.07558 1094.4549 438.8125 1111.3906 C 437.21859 1214.0003 403.28929 1267.5781 366.59766 1293.6875 z M 439.35938 1066.3574 C 440.60376 921.91663 434.05688 981.52627 439.35938 1066.3574 z M 635.84375 1345.8574 C 674.01405 1367.1668 691.0584 1372.9757 645.9043 1349.8086 C 642.58239 1348.1042 639.22717 1346.7986 635.84375 1345.8574 z M 173.99219 388.69141 C 179.64699 361.60401 184.22655 333.78231 187.21875 305.61328 C 193.3931 247.48706 205.31261 205.28602 218.43555 174.88086 C 212.11375 152.88503 207.24386 132.46729 203.75195 113.5332 C 173.77979 115.12158 132.80607 114.74079 77.761719 109.70703 C 40.565232 106.30544 15.444564 110.21479 0 119.41016 L 0 214.28711 C 34.896334 275.07447 109.5725 347.34105 173.99219 388.69141 z M 596.97852 0 C 598.29741 4.1514813 599.99068 8.9925659 602.13281 14.673828 C 645.56338 129.8585 638.58359 103.56607 714.07617 80.294922 C 714.40916 90.25727 716.51234 102.33386 721.06836 116.91992 C 760.88076 244.37895 825.21528 47.366038 788.43555 21.083984 C 779.92488 15.002433 775.84961 9.1855974 774.03516 4.8769531 C 773.31687 11.874743 770.20025 24.611 760.94727 45.367188 C 749.21776 34.345399 715.19945 34.531023 714.06055 75.402344 C 683.58627 64.73568 646.04445 24.631105 621.02539 0 L 596.97852 0 z M 774.03516 4.8769531 C 774.25639 2.7216405 774.24701 1.1336942 774.12695 0 L 772.77148 0 C 772.8429 1.2111891 773.19415 2.8798836 774.03516 4.8769531 z M 746.4375 70.722656 C 739.85117 77.117229 731.84051 78.999217 722.97266 77.671875 C 725.92025 76.850293 728.97191 76.038966 732.15234 75.246094 C 737.72528 73.85678 742.43787 72.330938 746.4375 70.722656 z M 937.48242 605.03125 C 960.58649 618.44664 1002.2083 643.66341 920.63477 726.34766 C 862.52589 785.24772 838.60025 822.58405 827.37695 851.33398 C 678.15611 639.7993 661.78301 866.04664 924.84375 617.12695 C 929.27232 612.93644 933.48279 608.90592 937.48242 605.03125 z M 1332.7773 1198.8262 C 1288.8035 1235.4064 1260.0391 1274.8886 1251.5293 1312.8496 C 1200.2882 1278.3714 1150.9117 1242.6197 1114.582 1205.9707 C 1164.3939 1227.7967 1230.0153 1235.8843 1302.7129 1210.4355 C 1314.4328 1206.3328 1324.3938 1202.4748 1332.7773 1198.8262 z "
       transform="matrix(0.26458333,0,0,0.26458333,0,-109.40002)"
       id="path1365" />
  </g>
</svg>
