<?xml version="1.0" encoding="UTF-8" standalone="no"?>
<!-- Created with Inkscape (http://www.inkscape.org/) -->

<svg
   xmlns:dc="http://purl.org/dc/elements/1.1/"
   xmlns:cc="http://creativecommons.org/ns#"
   xmlns:rdf="http://www.w3.org/1999/02/22-rdf-syntax-ns#"
   xmlns:svg="http://www.w3.org/2000/svg"
   xmlns="http://www.w3.org/2000/svg"
   xmlns:sodipodi="http://sodipodi.sourceforge.net/DTD/sodipodi-0.dtd"
   xmlns:inkscape="http://www.inkscape.org/namespaces/inkscape"
   width="210mm"
   height="221.823mm"
   viewBox="0 0 210 221.823"
   version="1.1"
   id="svg914"
   inkscape:version="0.92.4 (5da689c313, 2019-01-14)"
   sodipodi:docname="stock-market-board.svg">
  <defs
     id="defs908" />
  <sodipodi:namedview
     id="base"
     pagecolor="#ffffff"
     bordercolor="#666666"
     borderopacity="1.0"
     inkscape:pageopacity="0.0"
     inkscape:pageshadow="2"
     inkscape:zoom="0.35"
     inkscape:cx="-1136.0801"
     inkscape:cy="1005.0024"
     inkscape:document-units="mm"
     inkscape:current-layer="layer1"
     showgrid="true"
     inkscape:snap-bbox="true"
     inkscape:snap-grids="true"
     inkscape:bbox-nodes="true"
     inkscape:snap-global="true"
     inkscape:snap-bbox-edge-midpoints="true"
     inkscape:snap-center="false"
     inkscape:snap-bbox-midpoints="true"
     inkscape:snap-midpoints="true"
     inkscape:snap-smooth-nodes="true"
     inkscape:snap-intersection-paths="true"
     inkscape:object-paths="true"
     inkscape:window-width="1920"
     inkscape:window-height="1017"
     inkscape:window-x="-8"
     inkscape:window-y="-8"
     inkscape:window-maximized="1"
     inkscape:bbox-paths="true"
     inkscape:snap-nodes="true"
     inkscape:snap-page="true">
    <inkscape:grid
       type="xygrid"
       id="grid1459"
       units="mm"
       spacingx="3"
       spacingy="3"
       enabled="false" />
  </sodipodi:namedview>
  <metadata
     id="metadata911">
    <rdf:RDF>
      <cc:Work
         rdf:about="">
        <dc:format>image/svg+xml</dc:format>
        <dc:type
           rdf:resource="http://purl.org/dc/dcmitype/StillImage" />
        <dc:title></dc:title>
      </cc:Work>
    </rdf:RDF>
  </metadata>
  <g
     inkscape:label="Layer 1"
     inkscape:groupmode="layer"
     id="layer1"
     transform="translate(0,-75.177)">
    <g
       transform="matrix(0.61737326,0,0,0.61737326,2.048664e-6,-48.204486)"
       id="g1226">
      <path
         inkscape:connector-curvature="0"
         style="opacity:1;fill:#e7ff70;fill-opacity:1;stroke:none;stroke-width:12.01052761;stroke-linecap:square;stroke-linejoin:miter;stroke-miterlimit:4;stroke-dasharray:none;stroke-opacity:1"
         d="m 27.809186,363.96591 a 16.5,16.067608 0 0 0 -16.500275,16.06774 16.5,16.067608 0 0 0 16.500275,16.06775 16.5,16.067608 0 0 0 16.49977,-16.06775 16.5,16.067608 0 0 0 -16.49977,-16.06774 z m -1.55649,7.95247 h 3.66851 v 13.34027 h 3.24631 v 2.89028 h -10.67221 v -2.89028 h 4.09122 v -10.29394 l -4.13567,3.06803 v -3.4463 z"
         id="path1216" />
      <rect
         rx="5"
         ry="5"
         y="357.05133"
         x="55.690823"
         height="44.897156"
         width="47.618195"
         id="rect1218"
         style="opacity:1;fill:#e7ff70;fill-opacity:1;stroke:none;stroke-width:4.40358686;stroke-linecap:square;stroke-linejoin:miter;stroke-miterlimit:4;stroke-dasharray:none;stroke-opacity:1" />
      <path
         id="path1220"
         d="M 0,327.00018 V 431.99999 H 159.00011 V 327.00018 Z m 6.9453124,6.94531 H 152.0548 v 91.10919 H 6.9453124 Z"
         style="color:#000000;font-style:normal;font-variant:normal;font-weight:normal;font-stretch:normal;font-size:medium;line-height:normal;font-family:sans-serif;font-variant-ligatures:normal;font-variant-position:normal;font-variant-caps:normal;font-variant-numeric:normal;font-variant-alternates:normal;font-feature-settings:normal;text-indent:0;text-align:start;text-decoration:none;text-decoration-line:none;text-decoration-style:solid;text-decoration-color:#000000;letter-spacing:normal;word-spacing:normal;text-transform:none;writing-mode:lr-tb;direction:ltr;text-orientation:mixed;dominant-baseline:auto;baseline-shift:baseline;text-anchor:start;white-space:normal;shape-padding:0;clip-rule:nonzero;display:inline;overflow:visible;visibility:visible;opacity:1;isolation:auto;mix-blend-mode:normal;color-interpolation:sRGB;color-interpolation-filters:linearRGB;solid-color:#000000;solid-opacity:1;vector-effect:none;fill:#e7ff70;fill-opacity:1;fill-rule:nonzero;stroke:none;stroke-width:13.89099884;stroke-linecap:square;stroke-linejoin:miter;stroke-miterlimit:4;stroke-dasharray:none;stroke-dashoffset:0;stroke-opacity:1;color-rendering:auto;image-rendering:auto;shape-rendering:auto;text-rendering:auto;enable-background:accumulate"
         inkscape:connector-curvature="0" />
      <path
         inkscape:connector-curvature="0"
         style="opacity:1;fill:#e7ff70;fill-opacity:1;stroke:none;stroke-width:12.01052761;stroke-linecap:square;stroke-linejoin:miter;stroke-miterlimit:4;stroke-dasharray:none;stroke-opacity:1"
         d="m 129.76826,363.43209 a 16.5,16.067608 0 0 0 -16.50028,16.06774 16.5,16.067608 0 0 0 16.50028,16.06775 16.5,16.067608 0 0 0 16.49977,-16.06775 16.5,16.067608 0 0 0 -16.49977,-16.06774 z m 0.0667,7.84137 c 1.05238,0 1.96397,0.20027 2.73472,0.60047 0.78557,0.38537 1.39279,0.92652 1.82263,1.62317 0.44467,0.69662 0.66714,1.51892 0.66714,2.46756 0,1.05235 -0.25947,2.06065 -0.77824,3.02408 -0.51878,0.96345 -1.34847,1.97122 -2.48978,3.0236 l -2.9347,2.71249 h 6.38049 v 3.00138 h -10.49393 v -3.13471 l 5.15834,-4.98057 c 0.6077,-0.59288 1.05955,-1.14091 1.35599,-1.64486 0.31126,-0.50395 0.46715,-1.05248 0.46715,-1.64536 0,-0.6522 -0.17808,-1.15634 -0.53382,-1.51207 -0.3409,-0.35573 -0.81495,-0.53329 -1.42265,-0.53329 -0.667,0 -1.19334,0.19976 -1.57871,0.59996 -0.37055,0.38537 -0.55604,0.92652 -0.55604,1.62314 h -3.33468 c 0,-1.06717 0.22196,-1.98617 0.66663,-2.75693 0.45948,-0.78557 1.10421,-1.39329 1.93424,-1.82314 0.83004,-0.42984 1.80875,-0.64492 2.93522,-0.64492 z"
         id="path1222" />
      <path
         style="opacity:1;fill:#f1ffaf;fill-opacity:1;stroke:none;stroke-width:1.50760734;stroke-linecap:square;stroke-linejoin:miter;stroke-miterlimit:4;stroke-dasharray:none;stroke-opacity:1;paint-order:fill markers stroke"
         d="m 60.789738,361.89464 c -0.704302,0 -1.273658,4.93005 -1.307295,11.16091 -0.628551,0.18167 -1.086031,0.75859 -1.086031,1.44721 v 6.72905 c 0,0.83522 0.672453,1.50752 1.507668,1.50752 h 1.771309 c 0.835214,0 1.507674,-0.6723 1.507674,-1.50752 v 13.59677 c 0,0.72133 7.446503,1.302 16.696259,1.302 9.249753,0 16.696414,-0.58067 16.696414,-1.302 v -13.59677 c 0,0.83522 0.672299,1.50752 1.507514,1.50752 h 1.771469 c 0.835211,0 1.507671,-0.6723 1.507671,-1.50752 v -6.72905 c 0,-0.68856 -0.45757,-1.26535 -1.08603,-1.44705 -0.0336,-6.23093 -0.602984,-11.16107 -1.307299,-11.16107 -0.704308,0 -1.273817,4.93014 -1.307448,11.16107 -0.628474,0.1817 -1.085877,0.75849 -1.085877,1.44705 v -3.85254 c 0,-0.72132 -7.446661,-1.30214 -16.696414,-1.30214 -9.249756,0 -16.696259,0.58082 -16.696259,1.30214 v 3.85254 c 0,-0.68862 -0.45748,-1.26554 -1.086037,-1.44721 -0.0336,-6.23086 -0.602987,-11.16091 -1.307288,-11.16091 z m 12.795726,13.2839 a 4.4726059,4.4726059 0 0 1 4.47253,4.47268 4.4726059,4.4726059 0 0 1 -4.47253,4.47253 4.4726059,4.4726059 0 0 1 -4.472684,-4.47253 4.4726059,4.4726059 0 0 1 4.472684,-4.47268 z m 12.348692,0 a 4.4726059,4.4726059 0 0 1 4.472533,4.47268 4.4726059,4.4726059 0 0 1 -4.472533,4.47253 4.4726059,4.4726059 0 0 1 -4.472684,-4.47253 4.4726059,4.4726059 0 0 1 4.472684,-4.47268 z m -16.027031,12.79199 h 9.972197 9.972201 v 5.12851 h -7.011238 l -2.960963,-5.12851 -2.960963,5.12851 h -7.011234 z"
         id="path1224"
         inkscape:connector-curvature="0" />
    </g>
    <g
       id="g1238"
       transform="matrix(0.61737326,0,0,0.61737326,111.83759,-48.204476)">
      <path
         id="path1228"
         d="m 27.809186,363.96591 a 16.5,16.067608 0 0 0 -16.500275,16.06774 16.5,16.067608 0 0 0 16.500275,16.06775 16.5,16.067608 0 0 0 16.49977,-16.06775 16.5,16.067608 0 0 0 -16.49977,-16.06774 z m -1.55649,7.95247 h 3.66851 v 13.34027 h 3.24631 v 2.89028 h -10.67221 v -2.89028 h 4.09122 v -10.29394 l -4.13567,3.06803 v -3.4463 z"
         style="opacity:1;fill:#9ebd6e;fill-opacity:1;stroke:none;stroke-width:12.01052761;stroke-linecap:square;stroke-linejoin:miter;stroke-miterlimit:4;stroke-dasharray:none;stroke-opacity:1"
         inkscape:connector-curvature="0" />
      <rect
         style="opacity:1;fill:#9ebd6e;fill-opacity:1;stroke:none;stroke-width:4.40358686;stroke-linecap:square;stroke-linejoin:miter;stroke-miterlimit:4;stroke-dasharray:none;stroke-opacity:1"
         id="rect1230"
         width="47.618195"
         height="44.897156"
         x="55.690823"
         y="357.05133"
         ry="5"
         rx="5" />
      <path
         inkscape:connector-curvature="0"
         style="color:#000000;font-style:normal;font-variant:normal;font-weight:normal;font-stretch:normal;font-size:medium;line-height:normal;font-family:sans-serif;font-variant-ligatures:normal;font-variant-position:normal;font-variant-caps:normal;font-variant-numeric:normal;font-variant-alternates:normal;font-feature-settings:normal;text-indent:0;text-align:start;text-decoration:none;text-decoration-line:none;text-decoration-style:solid;text-decoration-color:#000000;letter-spacing:normal;word-spacing:normal;text-transform:none;writing-mode:lr-tb;direction:ltr;text-orientation:mixed;dominant-baseline:auto;baseline-shift:baseline;text-anchor:start;white-space:normal;shape-padding:0;clip-rule:nonzero;display:inline;overflow:visible;visibility:visible;opacity:1;isolation:auto;mix-blend-mode:normal;color-interpolation:sRGB;color-interpolation-filters:linearRGB;solid-color:#000000;solid-opacity:1;vector-effect:none;fill:#9ebd6e;fill-opacity:1;fill-rule:nonzero;stroke:none;stroke-width:13.89099884;stroke-linecap:square;stroke-linejoin:miter;stroke-miterlimit:4;stroke-dasharray:none;stroke-dashoffset:0;stroke-opacity:1;color-rendering:auto;image-rendering:auto;shape-rendering:auto;text-rendering:auto;enable-background:accumulate"
         d="M 0,327.00018 V 431.99999 H 159.00011 V 327.00018 Z m 6.9453124,6.94531 H 152.0548 v 91.10919 H 6.9453124 Z"
         id="path1232" />
      <path
         id="path1234"
         d="m 129.76826,363.43209 a 16.5,16.067608 0 0 0 -16.50028,16.06774 16.5,16.067608 0 0 0 16.50028,16.06775 16.5,16.067608 0 0 0 16.49977,-16.06775 16.5,16.067608 0 0 0 -16.49977,-16.06774 z m 0.0667,7.84137 c 1.05238,0 1.96397,0.20027 2.73472,0.60047 0.78557,0.38537 1.39279,0.92652 1.82263,1.62317 0.44467,0.69662 0.66714,1.51892 0.66714,2.46756 0,1.05235 -0.25947,2.06065 -0.77824,3.02408 -0.51878,0.96345 -1.34847,1.97122 -2.48978,3.0236 l -2.9347,2.71249 h 6.38049 v 3.00138 h -10.49393 v -3.13471 l 5.15834,-4.98057 c 0.6077,-0.59288 1.05955,-1.14091 1.35599,-1.64486 0.31126,-0.50395 0.46715,-1.05248 0.46715,-1.64536 0,-0.6522 -0.17808,-1.15634 -0.53382,-1.51207 -0.3409,-0.35573 -0.81495,-0.53329 -1.42265,-0.53329 -0.667,0 -1.19334,0.19976 -1.57871,0.59996 -0.37055,0.38537 -0.55604,0.92652 -0.55604,1.62314 h -3.33468 c 0,-1.06717 0.22196,-1.98617 0.66663,-2.75693 0.45948,-0.78557 1.10421,-1.39329 1.93424,-1.82314 0.83004,-0.42984 1.80875,-0.64492 2.93522,-0.64492 z"
         style="opacity:1;fill:#9ebd6e;fill-opacity:1;stroke:none;stroke-width:12.01052761;stroke-linecap:square;stroke-linejoin:miter;stroke-miterlimit:4;stroke-dasharray:none;stroke-opacity:1"
         inkscape:connector-curvature="0" />
      <path
         inkscape:connector-curvature="0"
         id="path1236"
         d="m 60.789738,361.89464 c -0.704302,0 -1.273658,4.93005 -1.307295,11.16091 -0.628551,0.18167 -1.086031,0.75859 -1.086031,1.44721 v 6.72905 c 0,0.83522 0.672453,1.50752 1.507668,1.50752 h 1.771309 c 0.835214,0 1.507674,-0.6723 1.507674,-1.50752 v 13.59677 c 0,0.72133 7.446503,1.302 16.696259,1.302 9.249753,0 16.696414,-0.58067 16.696414,-1.302 v -13.59677 c 0,0.83522 0.672299,1.50752 1.507514,1.50752 h 1.771469 c 0.835211,0 1.507671,-0.6723 1.507671,-1.50752 v -6.72905 c 0,-0.68856 -0.45757,-1.26535 -1.08603,-1.44705 -0.0336,-6.23093 -0.602984,-11.16107 -1.307299,-11.16107 -0.704308,0 -1.273817,4.93014 -1.307448,11.16107 -0.628474,0.1817 -1.085877,0.75849 -1.085877,1.44705 v -3.85254 c 0,-0.72132 -7.446661,-1.30214 -16.696414,-1.30214 -9.249756,0 -16.696259,0.58082 -16.696259,1.30214 v 3.85254 c 0,-0.68862 -0.45748,-1.26554 -1.086037,-1.44721 -0.0336,-6.23086 -0.602987,-11.16091 -1.307288,-11.16091 z m 12.795726,13.2839 a 4.4726059,4.4726059 0 0 1 4.47253,4.47268 4.4726059,4.4726059 0 0 1 -4.47253,4.47253 4.4726059,4.4726059 0 0 1 -4.472684,-4.47253 4.4726059,4.4726059 0 0 1 4.472684,-4.47268 z m 12.348692,0 a 4.4726059,4.4726059 0 0 1 4.472533,4.47268 4.4726059,4.4726059 0 0 1 -4.472533,4.47253 4.4726059,4.4726059 0 0 1 -4.472684,-4.47253 4.4726059,4.4726059 0 0 1 4.472684,-4.47268 z m -16.027031,12.79199 h 9.972197 9.972201 v 5.12851 h -7.011238 l -2.960963,-5.12851 -2.960963,5.12851 h -7.011234 z"
         style="opacity:1;fill:#b5cd91;fill-opacity:1;stroke:none;stroke-width:1.50760734;stroke-linecap:square;stroke-linejoin:miter;stroke-miterlimit:4;stroke-dasharray:none;stroke-opacity:1;paint-order:fill markers stroke" />
    </g>
    <g
       transform="matrix(0.61737326,0,0,0.61737326,2.048664e-6,30.294758)"
       id="g1214">
      <path
         inkscape:connector-curvature="0"
         style="opacity:1;fill:#98b9f2;fill-opacity:1;stroke:none;stroke-width:12.01052761;stroke-linecap:square;stroke-linejoin:miter;stroke-miterlimit:4;stroke-dasharray:none;stroke-opacity:1"
         d="m 27.809186,363.96591 a 16.5,16.067608 0 0 0 -16.500275,16.06774 16.5,16.067608 0 0 0 16.500275,16.06775 16.5,16.067608 0 0 0 16.49977,-16.06775 16.5,16.067608 0 0 0 -16.49977,-16.06774 z m -1.55649,7.95247 h 3.66851 v 13.34027 h 3.24631 v 2.89028 h -10.67221 v -2.89028 h 4.09122 v -10.29394 l -4.13567,3.06803 v -3.4463 z"
         id="path1204" />
      <rect
         rx="5"
         ry="5"
         y="357.05133"
         x="55.690823"
         height="44.897156"
         width="47.618195"
         id="rect1206"
         style="opacity:1;fill:#98b9f2;fill-opacity:1;stroke:none;stroke-width:4.40358686;stroke-linecap:square;stroke-linejoin:miter;stroke-miterlimit:4;stroke-dasharray:none;stroke-opacity:1" />
      <path
         id="path1208"
         d="M 0,327.00018 V 431.99999 H 159.00011 V 327.00018 Z m 6.9453124,6.94531 H 152.0548 v 91.10919 H 6.9453124 Z"
         style="color:#000000;font-style:normal;font-variant:normal;font-weight:normal;font-stretch:normal;font-size:medium;line-height:normal;font-family:sans-serif;font-variant-ligatures:normal;font-variant-position:normal;font-variant-caps:normal;font-variant-numeric:normal;font-variant-alternates:normal;font-feature-settings:normal;text-indent:0;text-align:start;text-decoration:none;text-decoration-line:none;text-decoration-style:solid;text-decoration-color:#000000;letter-spacing:normal;word-spacing:normal;text-transform:none;writing-mode:lr-tb;direction:ltr;text-orientation:mixed;dominant-baseline:auto;baseline-shift:baseline;text-anchor:start;white-space:normal;shape-padding:0;clip-rule:nonzero;display:inline;overflow:visible;visibility:visible;opacity:1;isolation:auto;mix-blend-mode:normal;color-interpolation:sRGB;color-interpolation-filters:linearRGB;solid-color:#000000;solid-opacity:1;vector-effect:none;fill:#98b9f2;fill-opacity:1;fill-rule:nonzero;stroke:none;stroke-width:13.89099884;stroke-linecap:square;stroke-linejoin:miter;stroke-miterlimit:4;stroke-dasharray:none;stroke-dashoffset:0;stroke-opacity:1;color-rendering:auto;image-rendering:auto;shape-rendering:auto;text-rendering:auto;enable-background:accumulate"
         inkscape:connector-curvature="0" />
      <path
         inkscape:connector-curvature="0"
         style="opacity:1;fill:#98b9f2;fill-opacity:1;stroke:none;stroke-width:12.01052761;stroke-linecap:square;stroke-linejoin:miter;stroke-miterlimit:4;stroke-dasharray:none;stroke-opacity:1"
         d="m 129.76826,363.43209 a 16.5,16.067608 0 0 0 -16.50028,16.06774 16.5,16.067608 0 0 0 16.50028,16.06775 16.5,16.067608 0 0 0 16.49977,-16.06775 16.5,16.067608 0 0 0 -16.49977,-16.06774 z m 0.0667,7.84137 c 1.05238,0 1.96397,0.20027 2.73472,0.60047 0.78557,0.38537 1.39279,0.92652 1.82263,1.62317 0.44467,0.69662 0.66714,1.51892 0.66714,2.46756 0,1.05235 -0.25947,2.06065 -0.77824,3.02408 -0.51878,0.96345 -1.34847,1.97122 -2.48978,3.0236 l -2.9347,2.71249 h 6.38049 v 3.00138 h -10.49393 v -3.13471 l 5.15834,-4.98057 c 0.6077,-0.59288 1.05955,-1.14091 1.35599,-1.64486 0.31126,-0.50395 0.46715,-1.05248 0.46715,-1.64536 0,-0.6522 -0.17808,-1.15634 -0.53382,-1.51207 -0.3409,-0.35573 -0.81495,-0.53329 -1.42265,-0.53329 -0.667,0 -1.19334,0.19976 -1.57871,0.59996 -0.37055,0.38537 -0.55604,0.92652 -0.55604,1.62314 h -3.33468 c 0,-1.06717 0.22196,-1.98617 0.66663,-2.75693 0.45948,-0.78557 1.10421,-1.39329 1.93424,-1.82314 0.83004,-0.42984 1.80875,-0.64492 2.93522,-0.64492 z"
         id="path1210" />
      <path
         style="fill:#c4d7f8;fill-opacity:1;stroke:none;stroke-width:0.08816275px;stroke-linecap:butt;stroke-linejoin:miter;stroke-opacity:1"
         d="m 73.35826,372.54441 -1.80347,2.543 c 0,0 0.957366,0.0666 3.42873,0.17791 2.471359,0.11134 4.029787,0.44539 4.029787,0.44539 l 1.208936,-3.04029 z m -10.412204,2.58718 c -0.0068,5.8e-4 -0.580687,0.0602 -0.820184,0.25739 -0.300105,0.24715 -0.661922,0.24089 -0.918352,0.19986 -0.181027,-0.029 -0.303381,-0.0727 -0.376881,-0.10145 -0.04573,-0.003 -0.472541,-0.0283 -1.084396,0.22032 -0.307162,0.12479 -0.446368,0.26316 -0.514767,0.35494 -0.06744,0.0905 -0.0601,0.099 -0.05989,0.0994 l -0.144114,1.45952 c 0.411223,0.0567 1.716703,0.22584 2.855244,0.11741 1.511153,-0.14391 3.43495,0.38846 3.43495,0.38846 l 0.02135,0.005 0.02049,0.009 c 0,0 0.326541,0.13216 0.634568,0.36887 0.154006,0.11836 0.310674,0.26417 0.421059,0.46229 0.07082,0.12709 0.111376,0.28626 0.109724,0.4516 0.341975,0.23402 1.56971,0.94463 3.417752,0.37601 1.198539,-0.3688 1.880476,-0.33651 2.311116,-0.13256 0.199463,0.0945 0.327917,0.22952 0.406242,0.35286 l 15.74581,0.0626 0.02732,0.004 c 0,0 0.714424,0.11902 1.430444,0.0821 0.358008,-0.0185 0.712147,-0.08 0.952431,-0.18977 0.240289,-0.10964 0.350267,-0.22257 0.379859,-0.42967 0.02479,-0.17374 -0.08649,-0.41768 -0.367103,-0.69831 -0.280612,-0.28062 -0.699581,-0.56828 -1.129761,-0.81576 -0.860387,-0.49492 -1.754843,-0.83529 -1.754843,-0.83529 l 0.01481,-0.073 -1.006405,-0.0614 -7.99553,-1.02745 -0.01332,-0.003 c 0,0 -1.527506,-0.32801 -3.975228,-0.43826 -2.464783,-0.11103 -3.418143,-0.17745 -3.424874,-0.17793 z m 25.116321,1.75811 c 0,0 3.652333,1.38543 3.463423,2.70787 -0.188911,1.32244 -3.148515,0.8187 -3.148515,0.8187 l -15.518082,-0.0614 c 0.09139,0.0483 0.192388,0.10735 0.299502,0.18771 0.155491,0.11665 0.306192,0.26518 0.394083,0.45931 0.08788,0.19411 0.100175,0.43712 -0.01217,0.68053 -0.348477,0.75502 -0.416415,1.20237 -0.423444,1.25342 l 16.960382,0.0623 c 0,0 4.928267,-1.39827 8.385757,-0.84747 l -0.523371,-2.13618 -3.458084,-0.10734 -0.0058,-0.333 5.689422,-0.3668 c -0.286095,-1.00652 -0.705424,-1.87701 -0.705424,-1.87701 l -7.394055,-0.28585 z m -29.398741,1.02509 c 0,0 0.126968,0.0188 0.322908,0.0437 -0.164283,-0.0214 -0.322908,-0.0437 -0.322908,-0.0437 z m 0.79706,0.26568 c 2.13e-4,0 0.0017,2.1e-4 0.0034,3.2e-4 v -3.2e-4 c -0.0011,-1e-4 -0.0034,0 -0.0034,0 z m 0.03822,0.003 c -0.354731,0.091 -0.643129,0.23139 -0.838569,0.42758 -0.199647,0.20045 -0.314984,0.45624 -0.320251,0.81961 -0.01096,0.75742 0.05906,1.23306 0.187694,1.52088 0.128638,0.28781 0.298664,0.40538 0.57853,0.494 0.559736,0.17729 1.538843,0.13164 2.849609,0.67875 1.212735,0.50618 3.988375,0.68562 6.426606,0.71611 2.325931,0.0291 4.249534,-0.0594 4.432178,-0.0679 0.02852,-0.15795 0.110603,-0.55284 0.423142,-1.22999 0.07658,-0.16594 0.06535,-0.28506 0.01154,-0.40388 -0.05377,-0.11879 -0.162739,-0.23412 -0.290585,-0.33002 -0.255713,-0.19184 -0.566656,-0.29801 -0.566656,-0.29801 l -0.102909,-0.0344 -0.01039,-0.10823 c 0,0 5.17e-4,-0.0159 -0.02611,-0.0643 -0.02668,-0.0484 -0.07682,-0.11441 -0.190367,-0.17346 -0.227081,-0.11814 -0.732644,-0.20321 -1.766408,0.0869 -0.06671,0.0186 -0.135304,0.0387 -0.206388,0.0605 -2.387799,0.73472 -4.027118,-0.5634 -4.027118,-0.5634 l -0.09489,-0.0759 0.04298,-0.11327 c 0.04298,-0.11341 0.02651,-0.20356 -0.0326,-0.30957 -0.05908,-0.10602 -0.167553,-0.21579 -0.288811,-0.30898 -0.235918,-0.18128 -0.497777,-0.29298 -0.512398,-0.2992 -0.01882,-0.005 -1.355505,-0.35758 -2.588673,-0.38904 0.0067,1.7e-4 0.0052,2.6e-4 -0.0052,0 -0.07211,-0.002 -0.143746,-0.003 -0.215282,-0.003 -0.04689,3.7e-4 -0.09261,5.8e-4 -0.136395,0.003 h -3.05e-4 -2.87e-4 c -0.02702,5.7e-4 -0.05537,0.003 -0.0851,0.003 -0.07469,0.003 -0.147481,0.008 -0.21616,0.0142 -0.09807,0.009 -0.197885,0.0164 -0.298303,0.0219 -0.03718,0.003 -0.07238,0.003 -0.105271,0.004 -0.06668,0.003 -0.134106,0.005 -0.20282,0.007 -0.03805,5.7e-4 -0.07509,8.9e-4 -0.111204,0.002 -0.06793,5.7e-4 -0.135988,5.7e-4 -0.204599,2.8e-4 -0.03465,-2.6e-4 -0.06897,-5.7e-4 -0.103491,-8.8e-4 -0.07859,-9e-4 -0.156542,-0.003 -0.234551,-0.005 -0.01715,-5.7e-4 -0.03558,-8.9e-4 -0.05486,-0.002 -0.166309,-0.006 -0.324972,-0.0155 -0.480969,-0.0259 h -2.87e-4 c -0.06581,-0.004 -0.127289,-0.009 -0.189777,-0.0139 -0.159171,-0.0123 -0.305223,-0.0252 -0.4442,-0.0391 z m 40.576284,1.36313 -2.097027,0.13522 0.225059,0.007 0.571703,2.33366 0.46911,0.0371 c 0.31448,-0.0152 0.525423,-0.10496 0.675486,-0.24285 0.150949,-0.13872 0.246839,-0.3344 0.297409,-0.58118 0.0942,-0.45966 0.008,-1.08354 -0.14174,-1.68873 z m -19.274464,5.37512 a 19.860453,0.76681276 0 0 0 -19.860397,0.76681 19.860453,0.76681276 0 0 0 19.860397,0.76682 19.860453,0.76681276 0 0 0 19.860404,-0.76682 19.860453,0.76681276 0 0 0 -19.860404,-0.76681 z"
         id="path1212"
         inkscape:connector-curvature="0" />
    </g>
    <g
       id="g973"
       transform="matrix(0.61737327,0,0,0.61737327,3.7489414e-6,-126.70374)">
      <rect
         rx="5"
         ry="5"
         y="357.05133"
         x="55.690823"
         height="44.897156"
         width="47.618195"
         id="rect888"
         style="opacity:1;fill:#c42021;fill-opacity:1;stroke:none;stroke-width:4.40358686;stroke-linecap:square;stroke-linejoin:miter;stroke-miterlimit:4;stroke-dasharray:none;stroke-opacity:1" />
      <path
         id="path900"
         d="m 29.121219,363.43209 a 16.5,16.067608 0 0 0 -16.500284,16.06774 16.5,16.067608 0 0 0 16.500284,16.06775 16.5,16.067608 0 0 0 16.499768,-16.06775 16.5,16.067608 0 0 0 -16.499768,-16.06774 z m -1.556494,7.95247 h 3.668512 v 13.34027 h 3.246313 v 2.89028 H 23.807332 v -2.89028 h 4.091223 v -10.29394 l -4.135665,3.06803 v -3.4463 z"
         style="opacity:1;fill:#c42021;fill-opacity:1;stroke:none;stroke-width:12.01052761;stroke-linecap:square;stroke-linejoin:miter;stroke-miterlimit:4;stroke-dasharray:none;stroke-opacity:1"
         inkscape:connector-curvature="0" />
      <path
         id="rect912"
         d="M 0,327.00018 V 431.99999 H 159.00011 V 327.00018 Z m 6.9453124,6.94531 H 152.0548 v 91.10919 H 6.9453124 Z"
         style="color:#000000;font-style:normal;font-variant:normal;font-weight:normal;font-stretch:normal;font-size:medium;line-height:normal;font-family:sans-serif;font-variant-ligatures:normal;font-variant-position:normal;font-variant-caps:normal;font-variant-numeric:normal;font-variant-alternates:normal;font-feature-settings:normal;text-indent:0;text-align:start;text-decoration:none;text-decoration-line:none;text-decoration-style:solid;text-decoration-color:#000000;letter-spacing:normal;word-spacing:normal;text-transform:none;writing-mode:lr-tb;direction:ltr;text-orientation:mixed;dominant-baseline:auto;baseline-shift:baseline;text-anchor:start;white-space:normal;shape-padding:0;clip-rule:nonzero;display:inline;overflow:visible;visibility:visible;opacity:1;isolation:auto;mix-blend-mode:normal;color-interpolation:sRGB;color-interpolation-filters:linearRGB;solid-color:#000000;solid-opacity:1;vector-effect:none;fill:#c42021;fill-opacity:1;fill-rule:nonzero;stroke:none;stroke-width:13.89099884;stroke-linecap:square;stroke-linejoin:miter;stroke-miterlimit:4;stroke-dasharray:none;stroke-dashoffset:0;stroke-opacity:1;color-rendering:auto;image-rendering:auto;shape-rendering:auto;text-rendering:auto;enable-background:accumulate"
         inkscape:connector-curvature="0" />
      <path
         id="ellipse925"
         d="m 129.87889,363.43209 a 16.5,16.067608 0 0 0 -16.50028,16.06774 16.5,16.067608 0 0 0 16.50028,16.06775 16.5,16.067608 0 0 0 16.49977,-16.06775 16.5,16.067608 0 0 0 -16.49977,-16.06774 z m 0.0667,7.84137 c 1.05238,0 1.96397,0.20027 2.73472,0.60047 0.78557,0.38537 1.39279,0.92652 1.82263,1.62317 0.44467,0.69662 0.66714,1.51892 0.66714,2.46756 0,1.05235 -0.25947,2.06065 -0.77824,3.02408 -0.51878,0.96345 -1.34847,1.97122 -2.48978,3.0236 l -2.9347,2.71249 h 6.38049 v 3.00138 h -10.49393 v -3.13471 l 5.15834,-4.98057 c 0.6077,-0.59288 1.05955,-1.14091 1.35599,-1.64486 0.31126,-0.50395 0.46715,-1.05248 0.46715,-1.64536 0,-0.6522 -0.17808,-1.15634 -0.53382,-1.51207 -0.3409,-0.35573 -0.81495,-0.53329 -1.42265,-0.53329 -0.667,0 -1.19334,0.19976 -1.57871,0.59996 -0.37055,0.38537 -0.55604,0.92652 -0.55604,1.62314 h -3.33468 c 0,-1.06717 0.22196,-1.98617 0.66663,-2.75693 0.45948,-0.78557 1.10421,-1.39329 1.93424,-1.82314 0.83004,-0.42984 1.80875,-0.64492 2.93522,-0.64492 z"
         style="opacity:1;fill:#c42021;fill-opacity:1;stroke:none;stroke-width:12.01052761;stroke-linecap:square;stroke-linejoin:miter;stroke-miterlimit:4;stroke-dasharray:none;stroke-opacity:1"
         inkscape:connector-curvature="0" />
      <path
         style="opacity:1;fill:#df3739;fill-opacity:1;stroke:none;stroke-width:4.08591461;stroke-linecap:square;stroke-linejoin:miter;stroke-miterlimit:4;stroke-dasharray:none;stroke-opacity:1;paint-order:markers stroke fill"
         d="m 91.90599,360.74459 a 5.5580353,5.5580353 0 0 0 -7.592297,2.03435 5.5580353,5.5580353 0 0 0 2.034274,7.59244 5.5580353,5.5580353 0 0 0 7.592507,-2.0344 5.5580353,5.5580353 0 0 0 -2.034484,-7.59239 z m -13.773064,5.75615 c -0.68495,-0.39544 -1.55475,-0.16249 -1.950207,0.52245 l -5.425522,9.3973 c -0.395458,0.68495 -0.162299,1.55469 0.522648,1.95015 l 1.733121,1.00061 c 0.684952,0.39547 1.554619,0.16242 1.950081,-0.52253 l 5.425522,-9.39727 c 0.395452,-0.68495 0.162429,-1.55461 -0.522521,-1.95009 z m 5.195012,2.99936 c -0.684951,-0.39546 -1.554745,-0.16251 -1.950206,0.52244 l -8.857854,15.34226 -0.713778,1.23629 a 4.4788052,10.285452 30 0 0 -1.263891,11.14696 4.4788052,10.285452 30 0 0 9.021469,-6.66812 l 0.713772,-1.2363 8.857859,-15.34225 c 0.395462,-0.68495 0.162299,-1.5547 -0.522652,-1.95015 z m 1.943505,3.63769 0.144269,0.0833 c 0.684952,0.39546 0.918034,1.26533 0.522576,1.95029 l -4.562057,7.9017 c -0.395456,0.68496 -1.265326,0.91804 -1.950277,0.52258 l -0.144269,-0.0833 c -0.684951,-0.39546 -0.917902,-1.26526 -0.522445,-1.95022 l 4.562052,-7.9017 c 0.395457,-0.68495 1.265205,-0.91811 1.950151,-0.52266 z m -14.701025,5.52113 c -0.410332,-0.23692 -0.934966,-0.091 -1.176351,0.32708 l -4.200922,7.27621 c -0.241383,0.41808 -0.105419,0.94539 0.304913,1.18229 0.410327,0.2369 0.935092,0.091 1.176471,-0.32701 l 4.200929,-7.27621 c 0.241382,-0.4181 0.105291,-0.94546 -0.30504,-1.18236 z m 2.486145,1.43536 c -0.410332,-0.2369 -0.934966,-0.091 -1.176347,0.3271 l -4.200928,7.2762 c -0.241381,0.41809 -0.105419,0.94539 0.304909,1.1823 0.410332,0.2369 0.935097,0.091 1.176481,-0.32702 l 4.200924,-7.27621 c 0.241382,-0.41809 0.105291,-0.94546 -0.305039,-1.18237 z"
         id="path954"
         inkscape:connector-curvature="0" />
    </g>
    <g
       id="g985"
       transform="matrix(0.61737323,0,0,0.61737323,111.83759,-126.70372)">
      <path
         id="path1043"
         d="m 129.87889,363.43209 a 16.5,16.067608 0 0 0 -16.50028,16.06774 16.5,16.067608 0 0 0 16.50028,16.06775 16.5,16.067608 0 0 0 16.49977,-16.06775 16.5,16.067608 0 0 0 -16.49977,-16.06774 z m -1.55649,7.95247 h 3.66851 v 13.34027 h 3.24631 v 2.89028 h -10.67221 v -2.89028 h 4.09122 v -10.29394 l -4.13567,3.06803 v -3.4463 z"
         style="opacity:1;fill:#f78764;fill-opacity:1;stroke:none;stroke-width:12.01052761;stroke-linecap:square;stroke-linejoin:miter;stroke-miterlimit:4;stroke-dasharray:none;stroke-opacity:1"
         inkscape:connector-curvature="0" />
      <rect
         style="opacity:1;fill:#f78764;fill-opacity:1;stroke:none;stroke-width:4.40358686;stroke-linecap:square;stroke-linejoin:miter;stroke-miterlimit:4;stroke-dasharray:none;stroke-opacity:1"
         id="rect975"
         width="47.618195"
         height="44.897156"
         x="55.690823"
         y="357.05133"
         ry="5"
         rx="5" />
      <path
         inkscape:connector-curvature="0"
         style="color:#000000;font-style:normal;font-variant:normal;font-weight:normal;font-stretch:normal;font-size:medium;line-height:normal;font-family:sans-serif;font-variant-ligatures:normal;font-variant-position:normal;font-variant-caps:normal;font-variant-numeric:normal;font-variant-alternates:normal;font-feature-settings:normal;text-indent:0;text-align:start;text-decoration:none;text-decoration-line:none;text-decoration-style:solid;text-decoration-color:#000000;letter-spacing:normal;word-spacing:normal;text-transform:none;writing-mode:lr-tb;direction:ltr;text-orientation:mixed;dominant-baseline:auto;baseline-shift:baseline;text-anchor:start;white-space:normal;shape-padding:0;clip-rule:nonzero;display:inline;overflow:visible;visibility:visible;opacity:1;isolation:auto;mix-blend-mode:normal;color-interpolation:sRGB;color-interpolation-filters:linearRGB;solid-color:#000000;solid-opacity:1;vector-effect:none;fill:#f78764;fill-opacity:1;fill-rule:nonzero;stroke:none;stroke-width:13.89099884;stroke-linecap:square;stroke-linejoin:miter;stroke-miterlimit:4;stroke-dasharray:none;stroke-dashoffset:0;stroke-opacity:1;color-rendering:auto;image-rendering:auto;shape-rendering:auto;text-rendering:auto;enable-background:accumulate"
         d="M 0,327.00018 V 431.99999 H 159.00011 V 327.00018 Z m 6.9453124,6.94531 H 152.0548 v 91.10919 H 6.9453124 Z"
         id="path979" />
      <path
         inkscape:connector-curvature="0"
         style="opacity:1;fill:#f78764;fill-opacity:1;stroke:none;stroke-width:12.01052761;stroke-linecap:square;stroke-linejoin:miter;stroke-miterlimit:4;stroke-dasharray:none;stroke-opacity:1"
         d="m 29.121216,363.43209 a 16.5,16.067608 0 0 0 -16.50028,16.06774 16.5,16.067608 0 0 0 16.50028,16.06775 16.5,16.067608 0 0 0 16.49977,-16.06775 16.5,16.067608 0 0 0 -16.49977,-16.06774 z m 0.0667,7.84137 c 1.05238,0 1.96397,0.20027 2.73472,0.60047 0.78557,0.38537 1.39279,0.92652 1.82263,1.62317 0.44467,0.69662 0.66714,1.51892 0.66714,2.46756 0,1.05235 -0.25947,2.06065 -0.77824,3.02408 -0.51878,0.96345 -1.34847,1.97122 -2.48978,3.0236 l -2.9347,2.71249 h 6.38049 v 3.00138 h -10.49393 v -3.13471 l 5.15834,-4.98057 c 0.6077,-0.59288 1.05955,-1.14091 1.35599,-1.64486 0.31126,-0.50395 0.46715,-1.05248 0.46715,-1.64536 0,-0.6522 -0.17808,-1.15634 -0.53382,-1.51207 -0.3409,-0.35573 -0.81495,-0.53329 -1.42265,-0.53329 -0.667,0 -1.19334,0.19976 -1.57871,0.59996 -0.37055,0.38537 -0.55604,0.92652 -0.55604,1.62314 h -3.33468 c 0,-1.06717 0.22196,-1.98617 0.66663,-2.75693 0.45948,-0.78557 1.10421,-1.39329 1.93424,-1.82314 0.83004,-0.42984 1.80875,-0.64492 2.93522,-0.64492 z"
         id="path981" />
      <path
         inkscape:connector-curvature="0"
         id="path983"
         d="m 91.90599,360.74459 a 5.5580353,5.5580353 0 0 0 -7.592297,2.03435 5.5580353,5.5580353 0 0 0 2.034274,7.59244 5.5580353,5.5580353 0 0 0 7.592507,-2.0344 5.5580353,5.5580353 0 0 0 -2.034484,-7.59239 z m -13.773064,5.75615 c -0.68495,-0.39544 -1.55475,-0.16249 -1.950207,0.52245 l -5.425522,9.3973 c -0.395458,0.68495 -0.162299,1.55469 0.522648,1.95015 l 1.733121,1.00061 c 0.684952,0.39547 1.554619,0.16242 1.950081,-0.52253 l 5.425522,-9.39727 c 0.395452,-0.68495 0.162429,-1.55461 -0.522521,-1.95009 z m 5.195012,2.99936 c -0.684951,-0.39546 -1.554745,-0.16251 -1.950206,0.52244 l -8.857854,15.34226 -0.713778,1.23629 a 4.4788052,10.285452 30 0 0 -1.263891,11.14696 4.4788052,10.285452 30 0 0 9.021469,-6.66812 l 0.713772,-1.2363 8.857859,-15.34225 c 0.395462,-0.68495 0.162299,-1.5547 -0.522652,-1.95015 z m 1.943505,3.63769 0.144269,0.0833 c 0.684952,0.39546 0.918034,1.26533 0.522576,1.95029 l -4.562057,7.9017 c -0.395456,0.68496 -1.265326,0.91804 -1.950277,0.52258 l -0.144269,-0.0833 c -0.684951,-0.39546 -0.917902,-1.26526 -0.522445,-1.95022 l 4.562052,-7.9017 c 0.395457,-0.68495 1.265205,-0.91811 1.950151,-0.52266 z m -14.701025,5.52113 c -0.410332,-0.23692 -0.934966,-0.091 -1.176351,0.32708 l -4.200922,7.27621 c -0.241383,0.41808 -0.105419,0.94539 0.304913,1.18229 0.410327,0.2369 0.935092,0.091 1.176471,-0.32701 l 4.200929,-7.27621 c 0.241382,-0.4181 0.105291,-0.94546 -0.30504,-1.18236 z m 2.486145,1.43536 c -0.410332,-0.2369 -0.934966,-0.091 -1.176347,0.3271 l -4.200928,7.2762 c -0.241381,0.41809 -0.105419,0.94539 0.304909,1.1823 0.410332,0.2369 0.935097,0.091 1.176481,-0.32702 l 4.200924,-7.27621 c 0.241382,-0.41809 0.105291,-0.94546 -0.305039,-1.18237 z"
         style="opacity:1;fill:#faad94;fill-opacity:1;stroke:none;stroke-width:4.08591461;stroke-linecap:square;stroke-linejoin:miter;stroke-miterlimit:4;stroke-dasharray:none;stroke-opacity:1;paint-order:markers stroke fill" />
    </g>
    <g
       id="g1101"
       transform="matrix(0.61737326,0,0,0.61737326,111.83758,30.294756)">
      <path
         id="path1091"
         d="m 27.809186,363.96591 a 16.5,16.067608 0 0 0 -16.500275,16.06774 16.5,16.067608 0 0 0 16.500275,16.06775 16.5,16.067608 0 0 0 16.49977,-16.06775 16.5,16.067608 0 0 0 -16.49977,-16.06774 z m -1.55649,7.95247 h 3.66851 v 13.34027 h 3.24631 v 2.89028 h -10.67221 v -2.89028 h 4.09122 v -10.29394 l -4.13567,3.06803 v -3.4463 z"
         style="opacity:1;fill:#805d93;fill-opacity:1;stroke:none;stroke-width:12.01052761;stroke-linecap:square;stroke-linejoin:miter;stroke-miterlimit:4;stroke-dasharray:none;stroke-opacity:1"
         inkscape:connector-curvature="0" />
      <rect
         style="opacity:1;fill:#805d93;fill-opacity:1;stroke:none;stroke-width:4.40358686;stroke-linecap:square;stroke-linejoin:miter;stroke-miterlimit:4;stroke-dasharray:none;stroke-opacity:1"
         id="rect1093"
         width="47.618195"
         height="44.897156"
         x="55.690823"
         y="357.05133"
         ry="5"
         rx="5" />
      <path
         inkscape:connector-curvature="0"
         style="color:#000000;font-style:normal;font-variant:normal;font-weight:normal;font-stretch:normal;font-size:medium;line-height:normal;font-family:sans-serif;font-variant-ligatures:normal;font-variant-position:normal;font-variant-caps:normal;font-variant-numeric:normal;font-variant-alternates:normal;font-feature-settings:normal;text-indent:0;text-align:start;text-decoration:none;text-decoration-line:none;text-decoration-style:solid;text-decoration-color:#000000;letter-spacing:normal;word-spacing:normal;text-transform:none;writing-mode:lr-tb;direction:ltr;text-orientation:mixed;dominant-baseline:auto;baseline-shift:baseline;text-anchor:start;white-space:normal;shape-padding:0;clip-rule:nonzero;display:inline;overflow:visible;visibility:visible;opacity:1;isolation:auto;mix-blend-mode:normal;color-interpolation:sRGB;color-interpolation-filters:linearRGB;solid-color:#000000;solid-opacity:1;vector-effect:none;fill:#805d93;fill-opacity:1;fill-rule:nonzero;stroke:none;stroke-width:13.89099884;stroke-linecap:square;stroke-linejoin:miter;stroke-miterlimit:4;stroke-dasharray:none;stroke-dashoffset:0;stroke-opacity:1;color-rendering:auto;image-rendering:auto;shape-rendering:auto;text-rendering:auto;enable-background:accumulate"
         d="M 0,327.00018 V 431.99999 H 159.00011 V 327.00018 Z m 6.9453124,6.94531 H 152.0548 v 91.10919 H 6.9453124 Z"
         id="path1095" />
      <path
         id="path1099"
         d="m 129.76826,363.43209 a 16.5,16.067608 0 0 0 -16.50028,16.06774 16.5,16.067608 0 0 0 16.50028,16.06775 16.5,16.067608 0 0 0 16.49977,-16.06775 16.5,16.067608 0 0 0 -16.49977,-16.06774 z m 0.0667,7.84137 c 1.05238,0 1.96397,0.20027 2.73472,0.60047 0.78557,0.38537 1.39279,0.92652 1.82263,1.62317 0.44467,0.69662 0.66714,1.51892 0.66714,2.46756 0,1.05235 -0.25947,2.06065 -0.77824,3.02408 -0.51878,0.96345 -1.34847,1.97122 -2.48978,3.0236 l -2.9347,2.71249 h 6.38049 v 3.00138 h -10.49393 v -3.13471 l 5.15834,-4.98057 c 0.6077,-0.59288 1.05955,-1.14091 1.35599,-1.64486 0.31126,-0.50395 0.46715,-1.05248 0.46715,-1.64536 0,-0.6522 -0.17808,-1.15634 -0.53382,-1.51207 -0.3409,-0.35573 -0.81495,-0.53329 -1.42265,-0.53329 -0.667,0 -1.19334,0.19976 -1.57871,0.59996 -0.37055,0.38537 -0.55604,0.92652 -0.55604,1.62314 h -3.33468 c 0,-1.06717 0.22196,-1.98617 0.66663,-2.75693 0.45948,-0.78557 1.10421,-1.39329 1.93424,-1.82314 0.83004,-0.42984 1.80875,-0.64492 2.93522,-0.64492 z"
         style="opacity:1;fill:#805d93;fill-opacity:1;stroke:none;stroke-width:12.01052761;stroke-linecap:square;stroke-linejoin:miter;stroke-miterlimit:4;stroke-dasharray:none;stroke-opacity:1"
         inkscape:connector-curvature="0" />
      <path
         inkscape:connector-curvature="0"
         id="path1757-8"
         d="m 73.35826,372.54441 -1.80347,2.543 c 0,0 0.957366,0.0666 3.42873,0.17791 2.471359,0.11134 4.029787,0.44539 4.029787,0.44539 l 1.208936,-3.04029 z m -10.412204,2.58718 c -0.0068,5.8e-4 -0.580687,0.0602 -0.820184,0.25739 -0.300105,0.24715 -0.661922,0.24089 -0.918352,0.19986 -0.181027,-0.029 -0.303381,-0.0727 -0.376881,-0.10145 -0.04573,-0.003 -0.472541,-0.0283 -1.084396,0.22032 -0.307162,0.12479 -0.446368,0.26316 -0.514767,0.35494 -0.06744,0.0905 -0.0601,0.099 -0.05989,0.0994 l -0.144114,1.45952 c 0.411223,0.0567 1.716703,0.22584 2.855244,0.11741 1.511153,-0.14391 3.43495,0.38846 3.43495,0.38846 l 0.02135,0.005 0.02049,0.009 c 0,0 0.326541,0.13216 0.634568,0.36887 0.154006,0.11836 0.310674,0.26417 0.421059,0.46229 0.07082,0.12709 0.111376,0.28626 0.109724,0.4516 0.341975,0.23402 1.56971,0.94463 3.417752,0.37601 1.198539,-0.3688 1.880476,-0.33651 2.311116,-0.13256 0.199463,0.0945 0.327917,0.22952 0.406242,0.35286 l 15.74581,0.0626 0.02732,0.004 c 0,0 0.714424,0.11902 1.430444,0.0821 0.358008,-0.0185 0.712147,-0.08 0.952431,-0.18977 0.240289,-0.10964 0.350267,-0.22257 0.379859,-0.42967 0.02479,-0.17374 -0.08649,-0.41768 -0.367103,-0.69831 -0.280612,-0.28062 -0.699581,-0.56828 -1.129761,-0.81576 -0.860387,-0.49492 -1.754843,-0.83529 -1.754843,-0.83529 l 0.01481,-0.073 -1.006405,-0.0614 -7.99553,-1.02745 -0.01332,-0.003 c 0,0 -1.527506,-0.32801 -3.975228,-0.43826 -2.464783,-0.11103 -3.418143,-0.17745 -3.424874,-0.17793 z m 25.116321,1.75811 c 0,0 3.652333,1.38543 3.463423,2.70787 -0.188911,1.32244 -3.148515,0.8187 -3.148515,0.8187 l -15.518082,-0.0614 c 0.09139,0.0483 0.192388,0.10735 0.299502,0.18771 0.155491,0.11665 0.306192,0.26518 0.394083,0.45931 0.08788,0.19411 0.100175,0.43712 -0.01217,0.68053 -0.348477,0.75502 -0.416415,1.20237 -0.423444,1.25342 l 16.960382,0.0623 c 0,0 4.928267,-1.39827 8.385757,-0.84747 l -0.523371,-2.13618 -3.458084,-0.10734 -0.0058,-0.333 5.689422,-0.3668 c -0.286095,-1.00652 -0.705424,-1.87701 -0.705424,-1.87701 l -7.394055,-0.28585 z m -29.398741,1.02509 c 0,0 0.126968,0.0188 0.322908,0.0437 -0.164283,-0.0214 -0.322908,-0.0437 -0.322908,-0.0437 z m 0.79706,0.26568 c 2.13e-4,0 0.0017,2.1e-4 0.0034,3.2e-4 v -3.2e-4 c -0.0011,-1e-4 -0.0034,0 -0.0034,0 z m 0.03822,0.003 c -0.354731,0.091 -0.643129,0.23139 -0.838569,0.42758 -0.199647,0.20045 -0.314984,0.45624 -0.320251,0.81961 -0.01096,0.75742 0.05906,1.23306 0.187694,1.52088 0.128638,0.28781 0.298664,0.40538 0.57853,0.494 0.559736,0.17729 1.538843,0.13164 2.849609,0.67875 1.212735,0.50618 3.988375,0.68562 6.426606,0.71611 2.325931,0.0291 4.249534,-0.0594 4.432178,-0.0679 0.02852,-0.15795 0.110603,-0.55284 0.423142,-1.22999 0.07658,-0.16594 0.06535,-0.28506 0.01154,-0.40388 -0.05377,-0.11879 -0.162739,-0.23412 -0.290585,-0.33002 -0.255713,-0.19184 -0.566656,-0.29801 -0.566656,-0.29801 l -0.102909,-0.0344 -0.01039,-0.10823 c 0,0 5.17e-4,-0.0159 -0.02611,-0.0643 -0.02668,-0.0484 -0.07682,-0.11441 -0.190367,-0.17346 -0.227081,-0.11814 -0.732644,-0.20321 -1.766408,0.0869 -0.06671,0.0186 -0.135304,0.0387 -0.206388,0.0605 -2.387799,0.73472 -4.027118,-0.5634 -4.027118,-0.5634 l -0.09489,-0.0759 0.04298,-0.11327 c 0.04298,-0.11341 0.02651,-0.20356 -0.0326,-0.30957 -0.05908,-0.10602 -0.167553,-0.21579 -0.288811,-0.30898 -0.235918,-0.18128 -0.497777,-0.29298 -0.512398,-0.2992 -0.01882,-0.005 -1.355505,-0.35758 -2.588673,-0.38904 0.0067,1.7e-4 0.0052,2.6e-4 -0.0052,0 -0.07211,-0.002 -0.143746,-0.003 -0.215282,-0.003 -0.04689,3.7e-4 -0.09261,5.8e-4 -0.136395,0.003 h -3.05e-4 -2.87e-4 c -0.02702,5.7e-4 -0.05537,0.003 -0.0851,0.003 -0.07469,0.003 -0.147481,0.008 -0.21616,0.0142 -0.09807,0.009 -0.197885,0.0164 -0.298303,0.0219 -0.03718,0.003 -0.07238,0.003 -0.105271,0.004 -0.06668,0.003 -0.134106,0.005 -0.20282,0.007 -0.03805,5.7e-4 -0.07509,8.9e-4 -0.111204,0.002 -0.06793,5.7e-4 -0.135988,5.7e-4 -0.204599,2.8e-4 -0.03465,-2.6e-4 -0.06897,-5.7e-4 -0.103491,-8.8e-4 -0.07859,-9e-4 -0.156542,-0.003 -0.234551,-0.005 -0.01715,-5.7e-4 -0.03558,-8.9e-4 -0.05486,-0.002 -0.166309,-0.006 -0.324972,-0.0155 -0.480969,-0.0259 h -2.87e-4 c -0.06581,-0.004 -0.127289,-0.009 -0.189777,-0.0139 -0.159171,-0.0123 -0.305223,-0.0252 -0.4442,-0.0391 z m 40.576284,1.36313 -2.097027,0.13522 0.225059,0.007 0.571703,2.33366 0.46911,0.0371 c 0.31448,-0.0152 0.525423,-0.10496 0.675486,-0.24285 0.150949,-0.13872 0.246839,-0.3344 0.297409,-0.58118 0.0942,-0.45966 0.008,-1.08354 -0.14174,-1.68873 z m -19.274464,5.37512 a 19.860453,0.76681276 0 0 0 -19.860397,0.76681 19.860453,0.76681276 0 0 0 19.860397,0.76682 19.860453,0.76681276 0 0 0 19.860404,-0.76682 19.860453,0.76681276 0 0 0 -19.860404,-0.76681 z"
         style="fill:#9878aa;fill-opacity:1;stroke:none;stroke-width:0.08816275px;stroke-linecap:butt;stroke-linejoin:miter;stroke-opacity:1" />
    </g>
  </g>
</svg>
