<?xml version="1.0" encoding="UTF-8" standalone="no"?>
<!-- Created with Inkscape (http://www.inkscape.org/) -->

<svg
   xmlns:dc="http://purl.org/dc/elements/1.1/"
   xmlns:cc="http://creativecommons.org/ns#"
   xmlns:rdf="http://www.w3.org/1999/02/22-rdf-syntax-ns#"
   xmlns:svg="http://www.w3.org/2000/svg"
   xmlns="http://www.w3.org/2000/svg"
   xmlns:sodipodi="http://sodipodi.sourceforge.net/DTD/sodipodi-0.dtd"
   xmlns:inkscape="http://www.inkscape.org/namespaces/inkscape"
   width="12in"
   height="12in"
   viewBox="0 0 304.8 304.79998"
   version="1.1"
   id="svg8"
   inkscape:version="0.92.4 (5da689c313, 2019-01-14)"
   sodipodi:docname="napkin.svg">
  <defs
     id="defs2" />
  <sodipodi:namedview
     id="base"
     pagecolor="#ffffff"
     bordercolor="#666666"
     borderopacity="1.0"
     inkscape:pageopacity="0.0"
     inkscape:pageshadow="2"
     inkscape:zoom="0.35355339"
     inkscape:cx="-19.665367"
     inkscape:cy="141.03439"
     inkscape:document-units="mm"
     inkscape:current-layer="layer1"
     showgrid="true"
     inkscape:snap-page="true"
     inkscape:snap-bbox="true"
     inkscape:snap-center="true"
     inkscape:snap-object-midpoints="true"
     inkscape:snap-intersection-paths="true"
     inkscape:snap-nodes="false"
     inkscape:snap-bbox-edge-midpoints="true"
     inkscape:window-width="1920"
     inkscape:window-height="1017"
     inkscape:window-x="-8"
     inkscape:window-y="-8"
     inkscape:window-maximized="1"
     inkscape:bbox-nodes="true"
     units="in">
    <inkscape:grid
       type="xygrid"
       id="grid4518"
       spacingx="9.9999999"
       spacingy="9.9999999"
       units="mm"
       enabled="false" />
  </sodipodi:namedview>
  <metadata
     id="metadata5">
    <rdf:RDF>
      <cc:Work
         rdf:about="">
        <dc:format>image/svg+xml</dc:format>
        <dc:type
           rdf:resource="http://purl.org/dc/dcmitype/StillImage" />
        <dc:title></dc:title>
      </cc:Work>
    </rdf:RDF>
  </metadata>
  <g
     inkscape:label="Layer 1"
     inkscape:groupmode="layer"
     id="layer1"
     transform="translate(0,7.7999947)">
    <path
       style="color:#000000;font-style:normal;font-variant:normal;font-weight:normal;font-stretch:normal;font-size:medium;line-height:normal;font-family:sans-serif;font-variant-ligatures:normal;font-variant-position:normal;font-variant-caps:normal;font-variant-numeric:normal;font-variant-alternates:normal;font-feature-settings:normal;text-indent:0;text-align:start;text-decoration:none;text-decoration-line:none;text-decoration-style:solid;text-decoration-color:#000000;letter-spacing:normal;word-spacing:normal;text-transform:none;writing-mode:lr-tb;direction:ltr;text-orientation:mixed;dominant-baseline:auto;baseline-shift:baseline;text-anchor:start;white-space:normal;shape-padding:0;clip-rule:nonzero;display:inline;overflow:visible;visibility:visible;opacity:1;isolation:auto;mix-blend-mode:normal;color-interpolation:sRGB;color-interpolation-filters:linearRGB;solid-color:#000000;solid-opacity:1;vector-effect:none;fill:#000000;fill-opacity:1;fill-rule:nonzero;stroke:none;stroke-width:0.80464607;stroke-linecap:butt;stroke-linejoin:miter;stroke-miterlimit:4;stroke-dasharray:none;stroke-dashoffset:0;stroke-opacity:1;color-rendering:auto;image-rendering:auto;shape-rendering:auto;text-rendering:auto;enable-background:accumulate"
       d="m 150.85542,-7.7999947 -6.75934,5.8383986 -8.94069,2.70939376 4.85774,23.52018134 -5.45022,1.590434 -17.61892,-11.195896 12.59459,40.447608 9.3383,19.811262 -0.12887,7.549849 -15.87919,-6.482744 14.36576,40.928508 5.28992,10.93187 0.53434,1.25883 -0.82351,-1.09224 -6.8222,-10.04708 -28.2632,-32.905621 -2.32435,16.993431 L 98.221823,98.392855 85.734094,80.3999 57.002572,49.270155 57.888939,70.126518 53.78713,74.050735 35.847609,58.083544 l -6.817489,6.388449 -8.436211,2.934129 -0.238879,0.534336 -0.117868,0.649059 -0.504475,0.427469 -0.342604,0.474615 1.676871,8.772527 -2.123197,9.097843 22.797256,7.552987 -1.34841,5.514662 -18.505288,9.66046 41.326118,9.31786 21.826027,1.81832 6.474882,3.8865 -13.554827,10.51069 42.628945,8.02288 12.11213,0.8848 1.3547,0.16659 -1.3547,0.16658 -12.11213,0.8848 -42.628945,8.02289 13.554827,10.51069 -6.474882,3.8865 -21.826027,1.81831 -41.326118,9.31787 18.505288,9.66047 1.34841,5.51465 -22.797256,7.55298 2.123197,9.09785 -1.676871,8.77253 0.342604,0.47461 0.504475,0.42747 0.117868,0.64906 0.238879,0.53433 8.436211,2.93414 6.817489,6.38844 17.939521,-15.96719 4.101809,3.92422 -0.886367,20.85636 28.731522,-31.12975 12.487729,-17.99294 6.603757,-3.66335 2.32435,16.99343 28.2632,-32.90562 6.8222,-10.04707 0.82351,-1.09225 -0.53434,1.25884 -5.28992,10.93187 -14.36576,40.92851 15.87919,-6.48274 0.12887,7.54984 -9.3383,19.81126 -12.59459,40.44761 17.61892,-11.19589 5.45022,1.59043 -4.85774,23.52018 8.94069,2.7094 6.75934,5.83839 0.58148,-0.0597 0.62234,-0.22317 0.62235,0.22317 0.58148,0.0597 6.75934,-5.83839 8.94069,-2.7094 -4.85774,-23.52018 5.45022,-1.59043 17.61892,11.19589 -12.5946,-40.44761 -9.33829,-19.81126 0.12887,-7.54984 15.87919,6.48274 -14.36577,-40.92851 -5.28992,-10.93187 -0.53433,-1.25884 0.82351,1.09225 6.8222,10.04707 28.26319,32.90562 2.32436,-16.99343 6.60376,3.66335 12.48773,17.99294 28.73152,31.12975 -0.88637,-20.85636 4.10181,-3.92422 17.93951,15.96719 6.8175,-6.38844 8.43621,-2.93414 0.23888,-0.53433 0.11786,-0.65063 0.50448,-0.4259 0.3426,-0.47461 -1.67687,-8.77253 2.1232,-9.09785 -22.79726,-7.55298 1.34842,-5.51465 18.50528,-9.66047 -41.32611,-9.31787 -21.82603,-1.81831 -6.47489,-3.8865 13.55484,-10.51069 -42.62896,-8.02289 -12.11212,-0.8848 -1.3547,-0.16658 1.3547,-0.16659 12.11212,-0.8848 42.62896,-8.02288 -13.55484,-10.51069 6.47489,-3.8865 21.82603,-1.81832 41.32611,-9.31786 -18.50528,-9.66046 -1.34842,-5.514662 22.79726,-7.552987 -2.1232,-9.097843 1.67687,-8.772527 -0.3426,-0.474615 -0.50448,-0.427469 -0.11786,-0.649059 -0.23888,-0.534336 -8.43621,-2.934129 -6.8175,-6.388449 -17.93951,15.967191 -4.10181,-3.924217 0.88637,-20.856363 -28.73152,31.129745 -12.48773,17.992955 -6.60376,3.663335 -2.32436,-16.993431 -28.26319,32.905621 -6.8222,10.04708 -0.82351,1.09224 0.53433,-1.25883 5.28992,-10.93187 14.36577,-40.928508 -15.87919,6.482744 -0.12887,-7.549849 9.33829,-19.811262 12.5946,-40.447608 -17.61892,11.195896 -5.45022,-1.590434 4.85774,-23.52018134 -8.94069,-2.70939376 -6.75934,-5.8383986 -0.58148,0.05972 -0.62235,0.2231636 -0.62234,-0.2231636 z m 1.12053,5.2600592 0.0833,0.031432 0.0833,-0.031432 5.55394,4.7995882 5.77868,1.7523051 -4.86402,23.5626132 11.67051,3.40403 8.56665,-5.44079 -8.67352,27.857726 -9.66361,20.51062 0.26088,15.531865 12.55688,-5.126472 -10.80457,30.79343 -5.22706,10.79828 -2.74711,6.47489 2.99699,-13.21537 6.75463,-19.23293 -8.76782,3.58162 -0.41647,-24.645427 10.03293,-21.305834 4.66916,-14.997534 -15.86662,-5.096615 3.26259,-23.611332 -2.16878,-0.65849 -2.98756,-2.577382 -2.98756,2.577382 -2.16877,0.65849 3.2673,23.611332 -15.87133,5.096615 4.66915,14.997534 10.03764,21.305834 -0.42118,24.645427 -8.76781,-3.58162 6.75463,19.23293 2.99699,13.21537 -2.74869,-6.47489 -5.22705,-10.79828 -10.80457,-30.79343 12.55687,5.126472 0.26246,-15.531865 -9.66518,-20.51062 -8.67196,-27.857726 8.56508,5.44079 11.67209,-3.40403 -4.86402,-23.5626132 5.77867,-1.7523051 z m -89.718034,64.4581205 19.789266,21.439416 12.930912,18.624729 13.581546,7.54041 1.83874,-13.438527 21.26498,24.753867 6.73891,9.92606 4.23539,5.61838 -9.94807,-9.20472 -13.2798,-15.46586 -1.28084,9.38387 L 96.576386,109.13299 83.140994,89.791624 72.487294,78.249982 60.141006,89.441168 41.324546,74.811383 l -1.654868,1.547995 -3.726202,1.298127 0.73864,3.877074 -0.513905,2.206485 22.080619,8.976832 -3.521898,16.292514 15.32285,3.45589 23.47146,1.95976 21.132958,12.68732 -7.48697,5.80224 20.03442,3.76707 12.94349,4.01223 -6.9825,-0.85651 -11.9644,-0.87222 -32.071122,-6.03956 10.718143,-8.31206 -13.319097,-7.99303 -22.596093,-1.88589 -28.461211,-6.41831 8.99412,-4.69743 2.888553,-11.810379 -22.838117,-7.568702 1.371984,-5.880836 -1.379842,-7.208809 0.06915,-0.05657 0.01415,-0.08801 6.933785,-2.410795 4.406695,-4.126954 17.974095,15.992338 8.783529,-8.404778 z m 179.602654,0 -0.42903,10.136654 8.78352,8.406351 17.97409,-15.99234 4.4067,4.126954 6.93378,2.410795 0.0142,0.08801 0.0691,0.05658 -1.37985,7.208811 1.37198,5.880836 -22.83811,7.568702 2.88698,11.808812 8.99569,4.699 -28.46278,6.41831 -22.59453,1.88589 -13.32066,7.99146 10.71814,8.31205 -32.06955,6.03956 -11.96597,0.87223 -6.98093,0.85808 12.94349,-4.01223 20.03443,-3.76707 -7.48698,-5.80224 21.1361,-12.68261 23.46832,-1.96447 15.32285,-3.45589 -3.52033,-16.287802 22.07905,-8.981547 -0.51391,-2.206485 0.73864,-3.877074 -3.7262,-1.298127 -1.65487,-1.547995 -18.81331,14.6345 -12.34943,-11.195901 -10.65371,11.541642 -13.43381,19.346079 -21.55414,11.95811 -1.28084,-9.38387 -13.2798,15.46586 -9.94806,9.20472 4.23539,-5.61995 6.73734,-9.92607 21.26654,-24.753867 1.83874,13.438537 13.58155,-7.53884 12.93091,-18.626301 z m -89.80133,77.681345 0.41804,0.89423 -0.41804,0.55477 -0.41804,-0.55477 z m -4.41455,2.54909 0.98381,0.0849 0.27031,0.63963 -0.68992,0.0849 z m 8.82911,0 -0.5642,0.80936 -0.68992,-0.0849 0.27031,-0.63963 z m -5.73154,0.2656 0.26874,0.0236 -0.14458,0.1933 1.19282,-0.10215 1.19282,0.10215 -0.14457,-0.1933 0.26873,-0.0236 0.11473,0.24674 -0.23889,-0.0299 0.68522,0.98067 0.50762,1.08595 0.0943,-0.22316 0.15559,0.22316 -0.15559,0.22317 -0.0943,-0.22317 -0.5092,1.08753 -0.68364,0.9791 0.23889,-0.0299 -0.11473,0.24517 -0.26873,-0.022 0.14457,-0.1933 -1.19439,0.10215 -1.19125,-0.10215 0.14458,0.19173 -0.26874,0.0236 -0.11472,-0.24516 0.23888,0.0298 -0.68521,-0.98066 -0.50762,-1.08596 -0.0943,0.22317 -0.15559,-0.22317 0.15559,-0.22316 0.0943,0.22316 0.50762,-1.08596 0.68521,-0.98066 -0.23888,0.0299 z m -2.53337,4.02323 0.68992,0.0849 -0.27031,0.63963 -0.98381,0.0849 z m 7.70071,0 0.5642,0.80936 -0.98381,-0.0849 -0.27189,-0.63963 z m -3.85036,1.90947 0.41804,0.55476 -0.41804,0.89423 -0.41804,-0.89423 z m -11.9141,0.3536 -12.94349,4.01223 -20.03442,3.76706 7.48697,5.80226 -21.136096,12.6826 -23.468322,1.96446 -15.32285,3.45589 3.520326,16.2878 -22.079047,8.98155 0.513905,2.20649 -0.73864,3.87551 3.726202,1.29969 1.654868,1.548 18.813316,-14.6345 12.349432,11.19589 10.6537,-11.54164 13.433815,-19.34608 21.554141,-11.95811 1.28084,9.38387 13.2798,-15.46586 9.94807,-9.20471 -4.23539,5.61995 -6.73735,9.92606 -21.26654,24.75387 -1.83874,-13.43853 -13.581546,7.53884 -12.930912,18.62472 -19.789266,21.43943 0.42904,-10.13823 -8.783529,-8.40636 -17.974095,15.99391 -4.406695,-4.12852 -6.933785,-2.40922 -0.01415,-0.088 -0.06915,-0.0566 1.379842,-7.21038 -1.371984,-5.87926 22.838117,-7.57028 -2.886981,-11.80881 -8.995692,-4.69743 28.462782,-6.41831 22.594525,-1.88589 13.320666,-7.99145 -10.718135,-8.31206 32.069548,-6.03956 11.96597,-0.87222 z m 23.82821,0 6.9825,0.8565 11.9644,0.87223 32.07112,6.03956 -10.71814,8.31206 13.31909,7.99302 22.59609,1.88589 28.46122,6.41831 -8.99413,4.69744 -2.88855,11.81038 22.83812,7.5687 -1.37199,5.88083 1.37985,7.20882 -0.0691,0.0566 -0.0142,0.088 -6.93379,2.4108 -4.40669,4.12695 -17.97409,-15.99234 -8.78353,8.40478 0.42904,10.13823 -19.78927,-21.43943 -12.93091,-18.62472 -13.58154,-7.54041 -1.83875,13.43853 -21.26497,-24.75387 -6.73891,-9.92606 -4.23539,-5.61838 9.94806,9.20471 13.2798,15.46586 1.28084,-9.38387 21.55257,11.96283 13.43539,19.34136 10.6537,11.54164 12.34629,-11.19117 18.81645,14.62978 1.65487,-1.548 3.7262,-1.29969 -0.73864,-3.87551 0.51392,-2.20649 -22.08063,-8.97683 3.5219,-16.29251 -15.32285,-3.45589 -23.47146,-1.95975 -21.13296,-12.68732 7.48698,-5.80226 -20.03443,-3.76706 z m -14.40505,8.31677 -2.99699,13.21537 -6.75463,19.23292 8.76781,-3.58161 0.41647,24.64543 -10.03293,21.30583 -4.66915,14.99753 15.86662,5.09662 -3.26259,23.61133 2.16877,0.65849 2.98756,2.57738 2.98756,-2.57738 2.16878,-0.65849 -3.2673,-23.61133 15.87133,-5.09662 -4.66916,-14.99753 -10.03764,-21.30583 0.42118,-24.64543 8.76782,3.58161 -6.75463,-19.23292 -2.99699,-13.21537 2.74868,6.47488 5.22706,10.7983 10.80457,30.79342 -12.55688,-5.12648 -0.26245,15.53188 9.66518,20.51061 8.67195,27.85773 -8.56508,-5.44079 -11.67208,3.40403 4.86402,23.56261 -5.77868,1.7523 -5.55394,4.79959 -0.0833,-0.0315 -0.0833,0.0315 -5.55395,-4.79959 -5.77867,-1.7523 4.86402,-23.56261 -11.67051,-3.40403 -8.56666,5.44079 8.67353,-27.85773 9.66361,-20.51061 -0.26088,-15.53188 -12.55688,5.12648 10.80457,-30.79342 5.22706,-10.7983 z"
       id="path4562"
       inkscape:connector-curvature="0" />
    <circle
       style="opacity:1;fill:none;fill-opacity:1;stroke:#0000ff;stroke-width:0.8259806;stroke-linecap:square;stroke-linejoin:miter;stroke-miterlimit:4;stroke-dasharray:none;stroke-opacity:1"
       id="path2202"
       cx="152.0591"
       cy="144.54199"
       r="151.6461" />
  </g>
</svg>
