<?xml version="1.0" encoding="UTF-8" standalone="no"?>
<svg
   xmlns="http://www.w3.org/2000/svg"
   width="6in"
   height="4in"
   viewBox="0 0 152.4 101.6"
   version="1.1">
  <path
     style="fill:#000000"
     d="m 76.066283,3.2690921 c -20.324426,0 -38.698963,5.4477544 -51.900706,14.1526239 -13.201433,8.70467 -21.1666668,20.551751 -21.1666668,33.514749 0,1.180854 0.067791,2.352125 0.1979205,3.512966 -0.022053,0.209303 -0.047989,0.417951 -0.065629,0.627866 l 0.1477944,0.01292 c 1.5051069,11.328831 9.1095999,21.598154 20.8865809,29.363582 13.201745,8.704882 31.576282,14.152108 51.900706,14.152108 20.324429,0 38.701537,-5.447226 51.903297,-14.152108 9.19927,-6.06576 15.85164,-13.659577 19.04224,-22.092192 0.97318,-2.371368 1.60873,-4.818726 1.86139,-7.319449 0.007,-0.06491 0.009,-0.129439 0.0155,-0.194302 0.16139,-1.291159 0.24753,-2.595147 0.24753,-3.911391 0,-12.962998 -7.96524,-24.810079 -21.16666,-33.514749 C 114.76782,8.7168364 96.390714,3.2690921 76.066283,3.2690921 Z m 0,0.2645833 c 20.277137,0 38.607687,5.4385461 51.757567,14.1092156 12.66267,8.349432 20.45126,19.571028 21.01164,31.868856 -1.12822,-9.795589 -7.85097,-18.74126 -18.12035,-25.674918 -12.17392,-8.21956 -29.33831,-13.625052 -48.13866,-14.2968022 -1.304433,-0.0466 -2.60314,-0.070631 -3.894852,-0.07338 -1.291711,-0.00275 -2.576745,0.015811 -3.85351,0.05581 C 56.953386,10.082477 40.59616,14.7788 28.021673,22.08138 14.3385,30.027818 5.1350587,41.067996 3.349793,53.235551 c -0.056166,-0.762195 -0.0863,-1.52867 -0.086299,-2.299086 0,-12.854628 7.897615,-24.622684 21.04781,-33.293574 C 37.461188,8.9722215 55.789151,3.5336754 76.066283,3.5336754 Z m 2.613795,6.1618976 c 1.28888,0.00274 2.584704,0.026863 3.886583,0.073381 18.761759,0.67037 35.891319,6.06553 48.021359,14.25546 11.68997,7.892804 18.7276,18.367962 18.1529,29.710332 -0.29626,3.297513 -1.11249,6.511449 -2.40347,9.607164 -3.31735,7.234417 -9.85646,13.712962 -18.55598,18.688264 C 115.85534,88.850804 99.883953,92.842723 82.65813,92.088992 67.499178,91.425702 53.669807,86.967468 43.943697,80.276277 38.888343,76.798393 34.946967,72.72078 32.494266,68.26099 c -0.117507,-0.02397 -0.178551,-0.03521 -0.29042,-0.05788 2.466713,4.562272 6.472079,8.725612 11.61066,12.260749 9.770155,6.721491 23.63643,11.188571 38.833806,11.85354 17.266978,0.75552 33.277438,-3.244731 45.246328,-10.089822 6.97258,-3.987657 12.57239,-8.944025 16.24811,-14.490588 -3.62048,6.193795 -9.19737,11.799887 -16.3189,16.495632 -13.14988,8.670682 -31.480427,14.1087 -51.757567,14.1087 -20.277135,0 -38.605095,-5.438007 -51.754979,-14.1087 C 12.304222,76.315486 4.6803045,65.813607 3.4448776,54.262362 4.849087,41.794241 14.121262,30.416245 28.136909,22.276717 41.569424,14.475846 59.346887,9.6545255 78.680078,9.695573 Z m 0.09818,16.237252 c -12.202517,-0.05946 -23.456278,2.907712 -32.127753,7.751981 -0.243184,0.135853 -0.482825,0.274109 -0.721921,0.412896 0.109733,0.02394 0.230939,0.05145 0.330213,0.07183 0.167341,-0.09603 0.333465,-0.192717 0.502812,-0.287322 9.525865,-5.321569 22.200092,-8.371399 35.820553,-7.603669 11.556397,0.651391 22.091028,4.17169 29.415778,9.365321 4.18498,2.967371 7.31715,6.475952 9.0041,10.306346 0.16444,0.163777 0.31892,0.338812 0.46406,0.524515 -1.63474,-4.115456 -4.90715,-7.875457 -9.3369,-11.016382 -7.36908,-5.225058 -17.940545,-8.75466 -29.535153,-9.40821 -1.280829,-0.0722 -2.553459,-0.111155 -3.815789,-0.117306 z m -35.704795,9.957532 c -3.316894,2.252565 -6.135399,4.808281 -8.33541,7.582482 0.06954,0.03398 0.140589,0.0674 0.211357,0.100769 2.188853,-2.751142 4.993209,-5.289124 8.296651,-7.527189 -0.05741,-0.0522 -0.114835,-0.10572 -0.172598,-0.156062 z m 34.789607,6.400641 c -3.594503,0.06372 -6.999886,0.735825 -10.015411,1.847432 0.201623,0.0075 0.399354,0.01689 0.593762,0.02842 4.176056,-1.447162 9.069695,-2.051298 14.148491,-1.380794 2.380932,0.314331 4.660381,0.95576 6.657474,1.832962 h 0.55294 C 87.674065,43.624447 85.206241,42.903301 82.619368,42.56178 81.010005,42.349311 79.41905,42.263414 77.86307,42.290994 Z m -11.899017,2.621548 c -0.238932,0.108939 -0.477406,0.218172 -0.710033,0.332795 -0.809363,0.398801 -1.57658,0.833596 -2.303219,1.296046 -0.0014,0.03059 -0.0047,0.06006 -0.0047,0.09147 0,0.05763 0.0054,0.116131 0.0078,0.174149 0.753232,-0.486362 1.553655,-0.94162 2.399853,-1.358572 0.293828,-0.14478 0.593079,-0.28503 0.897104,-0.420648 -0.09105,-0.04613 -0.18637,-0.08458 -0.286806,-0.115236 z m 28.138853,2.546096 v 0.321429 c 0.141666,0.140618 0.277386,0.283101 0.40721,0.427363 0.03465,-0.07596 0.06913,-0.152501 0.10542,-0.226344 -0.162478,-0.177114 -0.333171,-0.351287 -0.51263,-0.522448 z m 1.107424,1.239718 c -0.03932,0.07511 -0.07336,0.154265 -0.110588,0.230994 0.462116,0.632429 0.811467,1.292114 1.025261,1.970421 0.413646,1.312371 0.33502,2.693101 -0.380855,4.099491 -0.345805,0.679355 -0.912416,1.357805 -1.641242,1.980759 v 0.29714 c 0.816713,-0.670716 1.455973,-1.414637 1.842781,-2.174544 0.740253,-1.454272 0.826404,-2.907176 0.396359,-4.271574 -0.233448,-0.740656 -0.621478,-1.453832 -1.131716,-2.132687 z m -65.078712,3.634404 c -0.242303,0.899443 -0.427263,1.809345 -0.543637,2.729031 -0.274987,2.173179 -0.199615,4.310764 0.188619,6.395993 0.103269,0.136874 0.208042,0.272502 0.313677,0.407209 -0.460016,-2.204862 -0.56755,-4.46982 -0.275953,-6.774261 0.111204,-0.878846 0.285687,-1.749124 0.513662,-2.610179 -0.06581,-0.04828 -0.130945,-0.09824 -0.196368,-0.147793 z m 26.69501,0.618567 c -0.335325,0.680534 -0.597564,1.377492 -0.777732,2.086694 -0.385995,1.51941 -0.427791,3.013464 -0.172082,4.460708 0.0602,-0.07763 0.123685,-0.152934 0.189137,-0.226343 -0.213301,-1.358069 -0.15739,-2.756521 0.203605,-4.177522 0.165981,-0.653362 0.407964,-1.296929 0.710552,-1.928048 -0.05499,-0.0681 -0.10395,-0.142115 -0.15348,-0.215489 z m 25.788607,1.991092 c -1.010843,2.49e-4 -1.661007,0.21127 -2.032953,0.568442 -0.371943,0.357158 -0.436369,0.854411 -0.302823,1.347721 0.267094,0.986629 1.277054,2.026105 2.298568,2.431375 0.708093,0.280919 1.432462,0.469403 2.160074,0.581359 v -0.230476 c -0.700006,-0.11031 -1.395998,-0.294074 -2.075842,-0.56379 -0.942586,-0.37396 -1.925428,-1.3969 -2.164209,-2.27893 -0.119388,-0.441021 -0.06492,-0.827858 0.242363,-1.122929 0.307282,-0.295071 0.895869,-0.504113 1.874822,-0.504362 z m 31.123685,12.572876 c -0.0716,0.05438 -0.14211,0.109323 -0.21446,0.163298 h 0.21446 z m -1.49345,1.069186 c -0.97056,0.65372 -1.99759,1.272728 -3.07733,1.852084 -7.12902,3.825189 -16.511214,5.935988 -26.523449,5.144386 -7.665389,-0.606049 -14.672646,-3.032921 -19.583818,-6.518463 -0.122195,0.0076 -0.247451,0.0132 -0.374655,0.01705 4.964694,3.608165 12.114935,6.109522 19.940902,6.728272 10.055011,0.79498 19.47697,-1.322229 26.64851,-5.170228 1.18943,-0.63821 2.31544,-1.324759 3.37395,-2.053104 z"
 />
  <path
     d="m 38.29495,32.78667 c -3.69222,0 -6.612506,1.07434 -8.760705,3.22254 -2.114635,2.1482 -3.1719,4.71606 -3.1719,7.70341 0,3.65865 1.040705,6.36056 3.121774,8.10596 1.040535,0.87271 2.131439,1.57755 3.272668,2.1146 1.174798,0.53705 3.037301,1.17462 5.588289,1.91306 2.584553,0.70489 4.565049,1.54428 5.94124,2.51768 1.409755,0.97341 2.1146,2.38309 2.1146,4.2292 0,1.81254 -0.65413,3.17203 -1.963187,4.0783 -1.275496,0.90627 -2.752458,1.35961 -4.430739,1.35961 -2.550988,0 -4.984816,-1.09091 -7.300846,-3.27267 -2.282463,-2.18177 -4.162044,-4.73307 -5.638933,-7.65328 h -0.85576 l 0.503327,11.98325 h 0.704869 c 0.436353,-1.00697 0.889688,-1.5105 1.359606,-1.5105 0.268526,0 1.628013,0.2515 4.078304,0.75499 2.483855,0.50348 4.682222,0.75551 6.595461,0.75551 3.692221,0 6.662706,-1.0909 8.911604,-3.27267 2.282462,-2.21533 3.423562,-5.13561 3.423562,-8.7607 0,-2.21533 -0.452818,-4.12855 -1.35909,-5.73971 -0.369224,-0.70488 -0.889834,-1.34296 -1.561145,-1.91357 -0.637746,-0.60418 -1.258755,-1.09064 -1.862936,-1.45986 -0.570617,-0.40279 -1.325658,-0.77229 -2.265495,-1.10795 -0.906272,-0.36921 -1.67839,-0.65436 -2.316136,-0.85576 -0.604182,-0.2014 -1.896396,-0.57037 -3.876768,-1.10742 -1.980372,-0.53706 -3.658642,-1.22534 -5.034833,-2.06448 -1.342625,-0.8727 -2.013831,-2.09764 -2.013831,-3.67522 0,-1.61116 0.57081,-2.8868 1.71204,-3.82664 1.141232,-0.9734 2.735151,-1.46038 4.782653,-1.46038 2.081069,0 3.994806,0.88959 5.74022,2.66857 1.778976,1.74542 3.47381,4.07833 5.084961,6.99854 h 0.805635 L 49.271026,33.34064 h -0.553971 c -0.369224,0.67131 -0.788922,1.00718 -1.25884,1.00718 -0.469919,0 -1.678295,-0.25203 -3.625102,-0.75551 -1.913241,-0.53706 -3.759184,-0.80564 -5.538163,-0.80564 z m 28.377079,11.32851 c -7.015216,0 -10.522871,2.06433 -10.522871,6.1929 0,2.78595 1.443323,4.17908 4.329967,4.17908 1.275495,0 2.33276,-0.35243 3.171902,-1.05731 0.839139,-0.73844 1.258837,-1.59439 1.258837,-2.5678 0,-1.00696 -0.134551,-1.86292 -0.403077,-2.5678 H 63.24795 c -0.201396,-0.57061 -0.301792,-1.12435 -0.301792,-1.6614 0,-0.57062 0.23495,-1.00687 0.704869,-1.30896 0.503483,-0.33566 1.057214,-0.50384 1.661395,-0.50384 1.00697,0 1.678175,0.55373 2.013831,1.66139 0.369224,1.0741 0.553972,3.20571 0.553972,6.39444 v 1.89808 1.97869 0.80564 2.93263 1.74977 c 0,1.51045 -0.234948,2.70226 -0.704866,3.57497 -0.436354,0.83914 -0.923327,1.25832 -1.460376,1.25832 -0.503486,0 -0.855906,-0.25151 -1.057301,-0.75499 -0.167828,-0.50349 -0.251664,-1.62802 -0.251664,-3.37344 v -0.80563 c 0,-2.54736 0.726612,-4.02332 2.174028,-4.44624 0.260268,-0.0897 0.459928,-0.24579 0.467154,-0.47801 -0.09714,-0.26836 -0.239326,-0.45025 -0.467154,-0.46302 h -0.160197 c -3.927179,0 -6.846948,0.45333 -8.76019,1.35961 -1.879674,0.8727 -2.819466,2.50077 -2.819466,4.88394 0,4.06144 2.483511,6.09213 7.451225,6.09213 1.678283,0 2.953935,-0.30222 3.826639,-0.9064 0.872707,-0.60418 1.527352,-1.54398 1.963706,-2.81947 0.604181,2.48385 2.920026,3.72587 6.947895,3.72587 2.215332,0 3.809769,-0.55425 4.783172,-1.66191 0.973402,-1.10767 1.527135,-3.13837 1.661398,-6.09214 l -0.754994,-0.0501 c -0.201393,3.45726 -0.873115,5.18573 -2.014347,5.18573 -0.973402,0 -1.45986,-0.87252 -1.45986,-2.61793 V 53.63141 c 0,-3.62508 -0.772118,-6.10911 -2.316136,-7.45174 C 73.418438,44.80348 70.66634,44.1152 66.672029,44.1152 Z m 34.731731,0 c -3.759352,0 -6.193181,1.71191 -7.300846,5.1356 V 44.61902 H 81.969287 v 0.90589 h 2.768822 V 67.6786 h -2.768822 v 0.90589 H 95.915723 V 67.6786 H 94.102914 V 53.78229 c 0,-1.98037 0.369499,-3.67572 1.107943,-5.08548 0.772009,-1.44332 1.627961,-2.16473 2.567801,-2.16473 0.33565,0 0.60424,0.1004 0.80564,0.30179 0.43635,0.43636 0.65422,1.9304 0.65422,4.48138 V 67.6786 h -1.76217 v 0.90589 H 110.41613 V 67.6786 h -1.81281 V 53.47998 c 0,-2.01393 0.3695,-3.67513 1.10794,-4.98419 0.73845,-1.30906 1.5944,-1.96371 2.56781,-1.96371 0.33565,0 0.60372,0.1004 0.80512,0.30179 0.43635,0.43636 0.65474,1.9304 0.65474,4.48138 V 67.6786 h -1.76217 v 0.90589 h 13.94643 V 67.6786 h -2.81946 V 52.52345 c 0,-5.60546 -2.46695,-8.40827 -7.4011,-8.40827 -3.75935,0 -6.22631,1.81282 -7.4011,5.43791 -0.80557,-3.62509 -3.10485,-5.43791 -6.89777,-5.43791 z M 76.066537,0.13789021 c -20.882207,0 -39.812362,5.56223999 -53.625,14.66991979 -13.812638,9.10768 -22.57421866,21.88278 -22.57421866,36.12891 0,14.24613 8.76158066,27.02318 22.57421866,36.13086 13.812638,9.10768 32.742793,14.66992 53.625,14.66992 20.882206,0 39.814313,-5.56224 53.626953,-14.66992 13.81264,-9.10768 22.57422,-21.88473 22.57422,-36.13086 0,-14.24613 -8.76158,-27.02123 -22.57422,-36.12891 C 115.88085,5.7001302 96.948743,0.13789021 76.066537,0.13789021 Z"
     style="stroke:#0000ff;stroke-width:0.265;fill:none"/>
</svg>
