<?xml version="1.0" encoding="UTF-8" standalone="no"?>
<!-- Created with Inkscape (http://www.inkscape.org/) -->

<svg
   xmlns:dc="http://purl.org/dc/elements/1.1/"
   xmlns:cc="http://creativecommons.org/ns#"
   xmlns:rdf="http://www.w3.org/1999/02/22-rdf-syntax-ns#"
   xmlns:svg="http://www.w3.org/2000/svg"
   xmlns="http://www.w3.org/2000/svg"
   xmlns:sodipodi="http://sodipodi.sourceforge.net/DTD/sodipodi-0.dtd"
   xmlns:inkscape="http://www.inkscape.org/namespaces/inkscape"
   width="100mm"
   height="100mm"
   viewBox="0 0 100 100"
   version="1.1"
   id="svg8"
   inkscape:version="0.92.4 (5da689c313, 2019-01-14)"
   sodipodi:docname="snowflake.svg">
  <defs
     id="defs2" />
  <sodipodi:namedview
     id="base"
     pagecolor="#ffffff"
     bordercolor="#666666"
     borderopacity="1.0"
     inkscape:pageopacity="0.0"
     inkscape:pageshadow="2"
     inkscape:zoom="0.70000001"
     inkscape:cx="-205.94882"
     inkscape:cy="137.26686"
     inkscape:document-units="mm"
     inkscape:current-layer="layer1"
     showgrid="true"
     inkscape:snap-page="true"
     inkscape:snap-bbox="true"
     inkscape:snap-center="true"
     inkscape:snap-object-midpoints="true"
     inkscape:snap-intersection-paths="true"
     inkscape:snap-nodes="false"
     inkscape:snap-bbox-edge-midpoints="true"
     inkscape:window-width="1920"
     inkscape:window-height="1017"
     inkscape:window-x="-8"
     inkscape:window-y="-8"
     inkscape:window-maximized="1">
    <inkscape:grid
       type="xygrid"
       id="grid4518"
       spacingx="9.9999999"
       spacingy="9.9999999"
       units="mm"
       enabled="false" />
  </sodipodi:namedview>
  <metadata
     id="metadata5">
    <rdf:RDF>
      <cc:Work
         rdf:about="">
        <dc:format>image/svg+xml</dc:format>
        <dc:type
           rdf:resource="http://purl.org/dc/dcmitype/StillImage" />
        <dc:title />
      </cc:Work>
    </rdf:RDF>
  </metadata>
  <g
     inkscape:label="Layer 1"
     inkscape:groupmode="layer"
     id="layer1"
     transform="translate(0,-197)">
    <path
       style="color:#000000;font-style:normal;font-variant:normal;font-weight:normal;font-stretch:normal;font-size:medium;line-height:normal;font-family:sans-serif;font-variant-ligatures:normal;font-variant-position:normal;font-variant-caps:normal;font-variant-numeric:normal;font-variant-alternates:normal;font-feature-settings:normal;text-indent:0;text-align:start;text-decoration:none;text-decoration-line:none;text-decoration-style:solid;text-decoration-color:#000000;letter-spacing:normal;word-spacing:normal;text-transform:none;writing-mode:lr-tb;direction:ltr;text-orientation:mixed;dominant-baseline:auto;baseline-shift:baseline;text-anchor:start;white-space:normal;shape-padding:0;clip-rule:nonzero;display:inline;overflow:visible;visibility:visible;opacity:1;isolation:auto;mix-blend-mode:normal;color-interpolation:sRGB;color-interpolation-filters:linearRGB;solid-color:#000000;solid-opacity:1;vector-effect:none;fill:none;fill-opacity:1;fill-rule:nonzero;stroke:#0000ff;stroke-width:1.00000001;stroke-linecap:butt;stroke-linejoin:miter;stroke-miterlimit:4;stroke-dasharray:none;stroke-dashoffset:0;stroke-opacity:1;color-rendering:auto;image-rendering:auto;shape-rendering:auto;text-rendering:auto;enable-background:accumulate"
       d="M 187.48047 -0.3515625 L 179.08008 6.9042969 L 167.96875 10.271484 L 174.00586 39.501953 L 167.23242 41.478516 L 145.33594 27.564453 L 160.98828 77.832031 L 172.59375 102.45312 L 172.43359 111.83594 L 152.69922 103.7793 L 170.55273 154.64453 L 177.12695 168.23047 L 177.79102 169.79492 L 176.76758 168.4375 L 168.28906 155.95117 L 133.16406 115.05664 L 130.27539 136.17578 L 122.06836 131.62305 L 106.54883 109.26172 L 70.841797 70.574219 L 71.943359 96.494141 L 66.845703 101.37109 L 44.550781 81.527344 L 36.078125 89.466797 L 25.59375 93.113281 L 25.296875 93.777344 L 25.150391 94.583984 L 24.523438 95.115234 L 24.097656 95.705078 L 26.181641 106.60742 L 23.542969 117.91406 L 51.875 127.30078 L 50.199219 134.1543 L 27.201172 146.16016 L 78.560547 157.74023 L 105.68555 160 L 113.73242 164.83008 L 96.886719 177.89258 L 149.86523 187.86328 L 164.91797 188.96289 L 166.60156 189.16992 L 164.91797 189.37695 L 149.86523 190.47656 L 96.886719 200.44727 L 113.73242 213.50977 L 105.68555 218.33984 L 78.560547 220.59961 L 27.201172 232.17969 L 50.199219 244.18555 L 51.875 251.03906 L 23.542969 260.42578 L 26.181641 271.73242 L 24.097656 282.63477 L 24.523438 283.22461 L 25.150391 283.75586 L 25.296875 284.5625 L 25.59375 285.22656 L 36.078125 288.87305 L 44.550781 296.8125 L 66.845703 276.96875 L 71.943359 281.8457 L 70.841797 307.76562 L 106.54883 269.07812 L 122.06836 246.7168 L 130.27539 242.16406 L 133.16406 263.2832 L 168.28906 222.38867 L 176.76758 209.90234 L 177.79102 208.54492 L 177.12695 210.10938 L 170.55273 223.69531 L 152.69922 274.56055 L 172.43359 266.50391 L 172.59375 275.88672 L 160.98828 300.50781 L 145.33594 350.77539 L 167.23242 336.86133 L 174.00586 338.83789 L 167.96875 368.06836 L 179.08008 371.43555 L 187.48047 378.69141 L 188.20312 378.61719 L 188.97656 378.33984 L 189.75 378.61719 L 190.47266 378.69141 L 198.87305 371.43555 L 209.98438 368.06836 L 203.94727 338.83789 L 210.7207 336.86133 L 232.61719 350.77539 L 216.96484 300.50781 L 205.35938 275.88672 L 205.51953 266.50391 L 225.25391 274.56055 L 207.40039 223.69531 L 200.82617 210.10938 L 200.16211 208.54492 L 201.18555 209.90234 L 209.66406 222.38867 L 244.78906 263.2832 L 247.67773 242.16406 L 255.88477 246.7168 L 271.4043 269.07812 L 307.11133 307.76562 L 306.00977 281.8457 L 311.10742 276.96875 L 333.40234 296.8125 L 341.875 288.87305 L 352.35938 285.22656 L 352.65625 284.5625 L 352.80273 283.75391 L 353.42969 283.22461 L 353.85547 282.63477 L 351.77148 271.73242 L 354.41016 260.42578 L 326.07812 251.03906 L 327.75391 244.18555 L 350.75195 232.17969 L 299.39258 220.59961 L 272.26758 218.33984 L 264.2207 213.50977 L 281.06641 200.44727 L 228.08789 190.47656 L 213.03516 189.37695 L 211.35156 189.16992 L 213.03516 188.96289 L 228.08789 187.86328 L 281.06641 177.89258 L 264.2207 164.83008 L 272.26758 160 L 299.39258 157.74023 L 350.75195 146.16016 L 327.75391 134.1543 L 326.07812 127.30078 L 354.41016 117.91406 L 351.77148 106.60742 L 353.85547 95.705078 L 353.42969 95.115234 L 352.80273 94.583984 L 352.65625 93.777344 L 352.35938 93.113281 L 341.875 89.466797 L 333.40234 81.527344 L 311.10742 101.37109 L 306.00977 96.494141 L 307.11133 70.574219 L 271.4043 109.26172 L 255.88477 131.62305 L 247.67773 136.17578 L 244.78906 115.05664 L 209.66406 155.95117 L 201.18555 168.4375 L 200.16211 169.79492 L 200.82617 168.23047 L 207.40039 154.64453 L 225.25391 103.7793 L 205.51953 111.83594 L 205.35938 102.45312 L 216.96484 77.832031 L 232.61719 27.564453 L 210.7207 41.478516 L 203.94727 39.501953 L 209.98438 10.271484 L 198.87305 6.9042969 L 190.47266 -0.3515625 L 189.75 -0.27734375 L 188.97656 0 L 188.20312 -0.27734375 L 187.48047 -0.3515625 z M 188.87305 6.1855469 L 188.97656 6.2246094 L 189.08008 6.1855469 L 195.98242 12.150391 L 203.16406 14.328125 L 197.11914 43.611328 L 211.62305 47.841797 L 222.26953 41.080078 L 211.49023 75.701172 L 199.48047 101.19141 L 199.80469 120.49414 L 215.41016 114.12305 L 201.98242 152.39258 L 195.48633 165.8125 L 192.07227 173.85938 L 195.79688 157.43555 L 204.19141 133.5332 L 193.29492 137.98438 L 192.77734 107.35547 L 205.24609 80.876953 L 211.04883 62.238281 L 191.33008 55.904297 L 195.38477 26.560547 L 192.68945 25.742188 L 188.97656 22.539062 L 185.26367 25.742188 L 182.56836 26.560547 L 186.62891 55.904297 L 166.9043 62.238281 L 172.70703 80.876953 L 185.18164 107.35547 L 184.6582 137.98438 L 173.76172 133.5332 L 182.15625 157.43555 L 185.88086 173.85938 L 182.46484 165.8125 L 175.96875 152.39258 L 162.54102 114.12305 L 178.14648 120.49414 L 178.47266 101.19141 L 166.46094 75.701172 L 155.68359 41.080078 L 166.32812 47.841797 L 180.83398 43.611328 L 174.78906 14.328125 L 181.9707 12.150391 L 188.87305 6.1855469 z M 77.373047 86.292969 L 101.9668 112.9375 L 118.03711 136.08398 L 134.91602 145.45508 L 137.20117 128.75391 L 163.62891 159.51758 L 172.00391 171.85352 L 177.26758 178.83594 L 164.9043 167.39648 L 148.40039 148.17578 L 146.80859 159.83789 L 120.02344 144.9707 L 103.32617 120.93359 L 90.085938 106.58984 L 74.742188 120.49805 L 51.357422 102.31641 L 49.300781 104.24023 L 44.669922 105.85352 L 45.587891 110.67188 L 44.949219 113.41406 L 72.390625 124.57031 L 68.013672 144.81836 L 87.056641 149.11328 L 116.22656 151.54883 L 142.49023 167.31641 L 133.18555 174.52734 L 158.08398 179.20898 L 174.16992 184.19531 L 165.49219 183.13086 L 150.62305 182.04688 L 110.76562 174.54102 L 124.08594 164.21094 L 107.5332 154.27734 L 79.451172 151.93359 L 44.080078 143.95703 L 55.257812 138.11914 L 58.847656 123.44141 L 30.464844 114.03516 L 32.169922 106.72656 L 30.455078 97.767578 L 30.541016 97.697266 L 30.558594 97.587891 L 39.175781 94.591797 L 44.652344 89.462891 L 66.990234 109.33789 L 77.90625 98.892578 L 77.373047 86.292969 z M 300.58008 86.292969 L 300.04688 98.890625 L 310.96289 109.33789 L 333.30078 89.462891 L 338.77734 94.591797 L 347.39453 97.587891 L 347.41211 97.697266 L 347.49805 97.767578 L 345.7832 106.72656 L 347.48828 114.03516 L 319.10547 123.44141 L 322.69336 138.11719 L 333.87305 143.95703 L 298.5 151.93359 L 270.41992 154.27734 L 253.86523 164.20898 L 267.18555 174.53906 L 227.33008 182.04492 L 212.45898 183.12891 L 203.7832 184.19531 L 219.86914 179.20898 L 244.76758 174.52734 L 235.46289 167.31641 L 261.73047 151.55469 L 290.89648 149.11328 L 309.93945 144.81836 L 305.56445 124.57617 L 333.00391 113.41406 L 332.36523 110.67188 L 333.2832 105.85352 L 328.65234 104.24023 L 326.5957 102.31641 L 303.21484 120.50391 L 287.86719 106.58984 L 274.62695 120.93359 L 257.93164 144.97656 L 231.14453 159.83789 L 229.55273 148.17578 L 213.04883 167.39648 L 200.68555 178.83594 L 205.94922 171.85156 L 214.32227 159.51562 L 240.75195 128.75195 L 243.03711 145.45312 L 259.91602 136.08398 L 275.98633 112.93555 L 300.58008 86.292969 z M 188.97656 182.83398 L 189.49609 183.94531 L 188.97656 184.63477 L 188.45703 183.94531 L 188.97656 182.83398 z M 183.49023 186.00195 L 184.71289 186.10742 L 185.04883 186.90234 L 184.19141 187.00781 L 183.49023 186.00195 z M 194.46289 186.00195 L 193.76172 187.00781 L 192.9043 186.90234 L 193.24023 186.10742 L 194.46289 186.00195 z M 187.33984 186.33203 L 187.67383 186.36133 L 187.49414 186.60156 L 188.97656 186.47461 L 190.45898 186.60156 L 190.2793 186.36133 L 190.61328 186.33203 L 190.75586 186.63867 L 190.45898 186.60156 L 191.31055 187.82031 L 191.94141 189.16992 L 192.05859 188.89258 L 192.25195 189.16992 L 192.05859 189.44727 L 191.94141 189.16992 L 191.30859 190.52148 L 190.45898 191.73828 L 190.75586 191.70117 L 190.61328 192.00586 L 190.2793 191.97852 L 190.45898 191.73828 L 188.97461 191.86523 L 187.49414 191.73828 L 187.67383 191.97656 L 187.33984 192.00586 L 187.19727 191.70117 L 187.49414 191.73828 L 186.64258 190.51953 L 186.01172 189.16992 L 185.89453 189.44727 L 185.70117 189.16992 L 185.89453 188.89258 L 186.01172 189.16992 L 186.64258 187.82031 L 187.49414 186.60156 L 187.19727 186.63867 L 187.33984 186.33203 z M 184.19141 191.33203 L 185.04883 191.4375 L 184.71289 192.23242 L 183.49023 192.33789 L 184.19141 191.33203 z M 193.76172 191.33203 L 194.46289 192.33789 L 193.24023 192.23242 L 192.90234 191.4375 L 193.76172 191.33203 z M 188.97656 193.70508 L 189.49609 194.39453 L 188.97656 195.50586 L 188.45703 194.39453 L 188.97656 193.70508 z M 174.16992 194.14453 L 158.08398 199.13086 L 133.18555 203.8125 L 142.49023 211.02344 L 116.22266 226.78516 L 87.056641 229.22656 L 68.013672 233.52148 L 72.388672 253.76367 L 44.949219 264.92578 L 45.587891 267.66797 L 44.669922 272.48438 L 49.300781 274.09961 L 51.357422 276.02344 L 74.738281 257.83594 L 90.085938 271.75 L 103.32617 257.40625 L 120.02148 233.36328 L 146.80859 218.50195 L 148.40039 230.16406 L 164.9043 210.94336 L 177.26758 199.50391 L 172.00391 206.48828 L 163.63086 218.82422 L 137.20117 249.58789 L 134.91602 232.88672 L 118.03711 242.25586 L 101.9668 265.40234 L 77.373047 292.04688 L 77.90625 279.44727 L 66.990234 269 L 44.652344 288.87695 L 39.175781 283.74609 L 30.558594 280.75195 L 30.541016 280.64258 L 30.455078 280.57227 L 32.169922 271.61133 L 30.464844 264.30469 L 58.847656 254.89648 L 55.259766 240.2207 L 44.080078 234.38281 L 79.453125 226.40625 L 107.5332 224.0625 L 124.08789 214.13086 L 110.76758 203.80078 L 150.62305 196.29492 L 165.49414 195.21094 L 174.16992 194.14453 z M 203.7832 194.14453 L 212.46094 195.20898 L 227.33008 196.29297 L 267.1875 203.79883 L 253.86719 214.12891 L 270.41992 224.0625 L 298.50195 226.40625 L 333.87305 234.38281 L 322.69531 240.2207 L 319.10547 254.89844 L 347.48828 264.30469 L 345.7832 271.61328 L 347.49805 280.57227 L 347.41211 280.64258 L 347.39453 280.75195 L 338.77734 283.74805 L 333.30078 288.87695 L 310.96289 269.00195 L 300.04688 279.44727 L 300.58008 292.04688 L 275.98633 265.40234 L 259.91602 242.25586 L 243.03711 232.88477 L 240.75195 249.58594 L 214.32422 218.82227 L 205.94922 206.48633 L 200.68555 199.50391 L 213.04883 210.94336 L 229.55273 230.16406 L 231.14453 218.50195 L 257.92969 233.36914 L 274.62695 257.40625 L 287.86719 271.75 L 303.21094 257.8418 L 326.5957 276.02344 L 328.65234 274.09961 L 333.2832 272.48438 L 332.36523 267.66797 L 333.00391 264.92578 L 305.5625 253.76953 L 309.93945 233.52148 L 290.89648 229.22656 L 261.72656 226.79102 L 235.46289 211.02344 L 244.76758 203.8125 L 219.86914 199.13086 L 203.7832 194.14453 z M 185.88086 204.48047 L 182.15625 220.9043 L 173.76172 244.80664 L 184.6582 240.35547 L 185.17578 270.98438 L 172.70703 297.46289 L 166.9043 316.10156 L 186.62305 322.43555 L 182.56836 351.7793 L 185.26367 352.59766 L 188.97656 355.80078 L 192.68945 352.59766 L 195.38477 351.7793 L 191.32422 322.43555 L 211.04883 316.10156 L 205.24609 297.46289 L 192.77148 270.98438 L 193.29492 240.35547 L 204.19141 244.80664 L 195.79688 220.9043 L 192.07227 204.48047 L 195.48828 212.52734 L 201.98438 225.94727 L 215.41211 264.2168 L 199.80664 257.8457 L 199.48047 277.14844 L 211.49219 302.63867 L 222.26953 337.25977 L 211.625 330.49805 L 197.11914 334.72852 L 203.16406 364.01172 L 195.98242 366.18945 L 189.08008 372.1543 L 188.97656 372.11523 L 188.87305 372.1543 L 181.9707 366.18945 L 174.78906 364.01172 L 180.83398 334.72852 L 166.33008 330.49805 L 155.68359 337.25977 L 166.46289 302.63867 L 178.47266 277.14844 L 178.14844 257.8457 L 162.54297 264.2168 L 175.9707 225.94727 L 182.4668 212.52734 L 185.88086 204.48047 z "
       id="path4562"
       transform="matrix(0.26458333,0,0,0.26458333,0,197)" />
  </g>
</svg>
