<?xml version="1.0" encoding="UTF-8" standalone="no"?>
<!-- Created with Inkscape (http://www.inkscape.org/) -->

<svg
   xmlns:dc="http://purl.org/dc/elements/1.1/"
   xmlns:cc="http://creativecommons.org/ns#"
   xmlns:rdf="http://www.w3.org/1999/02/22-rdf-syntax-ns#"
   xmlns:svg="http://www.w3.org/2000/svg"
   xmlns="http://www.w3.org/2000/svg"
   xmlns:sodipodi="http://sodipodi.sourceforge.net/DTD/sodipodi-0.dtd"
   xmlns:inkscape="http://www.inkscape.org/namespaces/inkscape"
   width="10.033mm"
   height="10.033mm"
   viewBox="0 0 10.033 10.033"
   version="1.1"
   id="svg3509"
   inkscape:version="0.92.4 (5da689c313, 2019-01-14)"
   sodipodi:docname="snowflake-simple.svg">
  <defs
     id="defs3503" />
  <sodipodi:namedview
     id="base"
     pagecolor="#ffffff"
     bordercolor="#666666"
     borderopacity="1.0"
     inkscape:pageopacity="0.0"
     inkscape:pageshadow="2"
     inkscape:zoom="2.8"
     inkscape:cx="15.209738"
     inkscape:cy="-54.983547"
     inkscape:document-units="mm"
     inkscape:current-layer="layer1"
     showgrid="false"
     inkscape:window-width="1920"
     inkscape:window-height="1017"
     inkscape:window-x="-8"
     inkscape:window-y="-8"
     inkscape:window-maximized="1" />
  <metadata
     id="metadata3506">
    <rdf:RDF>
      <cc:Work
         rdf:about="">
        <dc:format>image/svg+xml</dc:format>
        <dc:type
           rdf:resource="http://purl.org/dc/dcmitype/StillImage" />
        <dc:title></dc:title>
      </cc:Work>
    </rdf:RDF>
  </metadata>
  <g
     inkscape:label="Layer 1"
     inkscape:groupmode="layer"
     id="layer1"
     transform="translate(0,-286.967)">
    <path
       style="fill:none;stroke:#000000;stroke-width:0.26458332px;stroke-linecap:butt;stroke-linejoin:miter;stroke-opacity:1"
       d="m 6.2768025,296.85835 -0.28793,-0.1394 -0.33441,-0.011 -0.0499,-0.85868 -0.20339,-0.004 -0.50565,0.55065 0.0607,-1.51591 0.13947,-0.77197 -0.0745,-0.26004 -0.48918,0.37142 0.0457,-0.60145 -0.26103,0.54372 -0.23802,-0.56639 -0.19456,0.18805 -0.26525,0.73809 -0.70534,1.34336 -0.16251,-0.7297 -0.17827,-0.0979 -0.47265,0.71868 -0.29514,-0.15768 -0.31902,-0.0233 -0.0141,-0.0155 -0.0103,-0.0213 -0.0212,-0.0102 -0.0153,-0.0141 -0.0233,-0.31908 -0.15789,-0.29504 0.71879,-0.47262 -0.0979,-0.17826 -0.72954,-0.16261 1.34314,-0.70543 0.73829,-0.26514 0.18774,-0.19441 -0.56624,-0.2381 0.54405,-0.26121 -0.60184,0.0455 0.3714,-0.48908 -0.25979,-0.0745 -0.77202,0.13928 -1.51583996,0.0608 0.55042996,-0.50583 -0.004,-0.20311 -0.85885996,-0.0502 -0.0108,-0.33446 -0.13929,-0.28774 0.006,-0.0199 0.0132,-0.0197 -0.001,-0.0234 0.005,-0.0204 0.26464,-0.17969 0.17668,-0.28435 0.76843996,0.38613 0.10575,-0.17372 -0.22418,-0.71345 1.28252,0.81073 0.59876,0.50658 0.26253,0.0655 -0.0773,-0.60944 0.49822,0.34053 -0.34032,-0.49828 0.60935,0.0771 -0.0655,-0.26247 -0.5067,-0.59857 -0.81049,-1.28248 0.71316,0.22381 0.17395,-0.10547 -0.38613,-0.76858 0.2841,-0.17673 0.17973,-0.26443 0.0203,-0.004 0.0237,0.002 0.0195,-0.0132 0.0198,-0.006 0.28787,0.13916 0.33441,0.011 0.0501,0.85862 0.20314,0.004 0.50566,-0.55065 -0.0606,1.51615 -0.13953,0.77173 0.0745,0.26004 0.48918,-0.37142 -0.0456,0.60169 0.2612,-0.54403 0.23802,0.56639 0.19432,-0.18798 0.265259,-0.7381 0.705341,-1.34335 0.162799,0.72987 0.178201,0.0976 0.47266,-0.71867 0.294899,0.15774 0.319021,0.0233 0.0141,0.0155 0.0103,0.0213 0.0212,0.0105 0.0155,0.014 0.0232,0.31884 0.15766,0.29511 -0.71855,0.47254 0.0977,0.17834 0.72984,0.16278 -1.3432,0.70519 -0.73822,0.26538 -0.18798,0.19447 0.56617,0.23787 -0.54398,0.26145 0.60177,-0.0458 -0.3714,0.48907 0.26003,0.0744 0.77178,-0.13921 1.51608,-0.0609 -0.55067,0.50589 0.005,0.2033 0.85856,0.05 0.011,0.33439 0.13937,0.28799 -0.006,0.0199 -0.0132,0.0194 0.001,0.0237 -0.005,0.0204 -0.26464,0.17969 -0.17652,0.28406 -0.76867,-0.38606 -0.10545,0.17389 0.22389,0.71325 -1.28253,-0.81071 -0.59852,-0.50664 -0.26252,-0.0656 0.0771,0.60952 -0.49822,-0.34053 0.34033,0.49827 -0.60935,-0.0771 0.0655,0.26247 0.50675,0.59881 0.81051,1.28248 -0.71323,-0.22405 -0.17371,0.10541 0.38589,0.76864 -0.28411,0.17672 -0.17966,0.26469 -0.0203,0.004 -0.0235,-0.002 -0.0195,0.0132 z"
       id="path3474"
       inkscape:connector-curvature="0" />
  </g>
</svg>
