<svg xmlns="http://www.w3.org/2000/svg" width="1920" height="1920"><ellipse fill="#EAD7D1" cx="26.642920868471265" cy="0.03297457005828619" rx="8" ry="8"/><ellipse fill="#EAD7D1" cx="22.32720274478197" cy="114.62021479383111" rx="8" ry="8"/><ellipse fill="#EAD7D1" cx="46.732782293111086" cy="254.50490827206522" rx="8" ry="8"/><ellipse fill="#EAD7D1" cx="61.52513844426721" cy="364.89853798411787" rx="8" ry="8"/><ellipse fill="#EAD7D1" cx="45.600721263326705" cy="458.1218967679888" rx="8" ry="8"/><ellipse fill="#EAD7D1" cx="24.625753005966544" cy="509.7851694794372" rx="8" ry="8"/><ellipse fill="#EAD7D1" cx="90.34309543203562" cy="640.8203722676262" rx="8" ry="8"/><ellipse fill="#EAD7D1" cx="72.02955442480743" cy="765.9906724002212" rx="8" ry="8"/><ellipse fill="#EAD7D1" cx="80.58585098478943" cy="862.619145354256" rx="8" ry="8"/><ellipse fill="#EAD7D1" cx="56.96913106366992" cy="912.1236338745803" rx="8" ry="8"/><ellipse fill="#EAD7D1" cx="24.193100933916867" cy="1081.5375918755308" rx="8" ry="8"/><ellipse fill="#EAD7D1" cx="32.3521607555449" cy="1108.7830028962344" rx="8" ry="8"/><ellipse fill="#EAD7D1" cx="78.95766077563167" cy="1290.7988656777889" rx="8" ry="8"/><ellipse fill="#EAD7D1" cx="55.171978822909296" cy="1346.8797182431445" rx="8" ry="8"/><ellipse fill="#EAD7D1" cx="35.61653404030949" cy="1409.7447057953104" rx="8" ry="8"/><ellipse fill="#EAD7D1" cx="75.2272559562698" cy="1552.662223437801" rx="8" ry="8"/><ellipse fill="#EAD7D1" cx="20.47672572080046" cy="1612.93769327458" rx="8" ry="8"/><ellipse fill="#EAD7D1" cx="32.869906700216234" cy="1725.051057478413" rx="8" ry="8"/><ellipse fill="#EAD7D1" cx="34.877196745947" cy="1826.1206227820367" rx="8" ry="8"/><ellipse fill="#EAD7D1" cx="17.744940402917564" cy="1933.8428957853466" rx="8" ry="8"/><ellipse fill="#EAD7D1" cx="181.67456462979317" cy="43.36242298595607" rx="8" ry="8"/><ellipse fill="#EAD7D1" cx="147.77573132887483" cy="173.13624455127865" rx="8" ry="8"/><ellipse fill="#EAD7D1" cx="175.65535784233361" cy="296.4176959125325" rx="8" ry="8"/><ellipse fill="#EAD7D1" cx="151.83873120695353" cy="353.5483410349116" rx="8" ry="8"/><ellipse fill="#EAD7D1" cx="138.48155541345477" cy="440.18378141336143" rx="8" ry="8"/><ellipse fill="#EAD7D1" cx="121.02013742551208" cy="564.7591115906835" rx="8" ry="8"/><ellipse fill="#EAD7D1" cx="102.10290844552219" cy="638.8058421667665" rx="8" ry="8"/><ellipse fill="#EAD7D1" cx="196.56378012150526" cy="746.7965796822682" rx="8" ry="8"/><ellipse fill="#EAD7D1" cx="148.919307324104" cy="807.7157681807876" rx="8" ry="8"/><ellipse fill="#EAD7D1" cx="100.58505437336862" cy="916.8946550227702" rx="8" ry="8"/><ellipse fill="#EAD7D1" cx="100.04347958602011" cy="1075.2600965090096" rx="8" ry="8"/><ellipse fill="#EAD7D1" cx="133.7965794140473" cy="1122.5912660593167" rx="8" ry="8"/><ellipse fill="#EAD7D1" cx="199.1299599641934" cy="1288.9544122153893" rx="8" ry="8"/><ellipse fill="#EAD7D1" cx="146.89542076084763" cy="1386.881234520115" rx="8" ry="8"/><ellipse fill="#EAD7D1" cx="107.5675088679418" cy="1425.1867022365332" rx="8" ry="8"/><ellipse fill="#EAD7D1" cx="172.51333913300186" cy="1582.2029682807624" rx="8" ry="8"/><ellipse fill="#EAD7D1" cx="178.1342504778877" cy="1609.5703684724867" rx="8" ry="8"/><ellipse fill="#EAD7D1" cx="122.13707987684757" cy="1744.860838376917" rx="8" ry="8"/><ellipse fill="#EAD7D1" cx="136.2851356389001" cy="1803.4316912759095" rx="8" ry="8"/><ellipse fill="#EAD7D1" cx="182.26288207806647" cy="1977.9538343893364" rx="8" ry="8"/><ellipse fill="#EAD7D1" cx="255.92889664694667" cy="87.46000186074525" rx="8" ry="8"/><ellipse fill="#EAD7D1" cx="205.10769691318274" cy="158.14830472227186" rx="8" ry="8"/><ellipse fill="#EAD7D1" cx="272.52950123511255" cy="220.0847062515095" rx="8" ry="8"/><ellipse fill="#EAD7D1" cx="230.80903927329928" cy="363.6336593190208" rx="8" ry="8"/><ellipse fill="#EAD7D1" cx="246.51982095092535" cy="400.0289833173156" rx="8" ry="8"/><ellipse fill="#EAD7D1" cx="219.60135325789452" cy="561.7863704450428" rx="8" ry="8"/><ellipse fill="#EAD7D1" cx="261.78396919276565" cy="621.1444464977831" rx="8" ry="8"/><ellipse fill="#EAD7D1" cx="226.10400314442813" cy="794.0628610551357" rx="8" ry="8"/><ellipse fill="#EAD7D1" cx="258.7356733623892" cy="817.3534781904891" rx="8" ry="8"/><ellipse fill="#EAD7D1" cx="278.1544696073979" cy="964.139267988503" rx="8" ry="8"/><ellipse fill="#EAD7D1" cx="255.16108213923872" cy="1034.2685491079465" rx="8" ry="8"/><ellipse fill="#EAD7D1" cx="245.89333224575967" cy="1140.1601693592966" rx="8" ry="8"/><ellipse fill="#EAD7D1" cx="254.87891419325024" cy="1260.2858897298574" rx="8" ry="8"/><ellipse fill="#EAD7D1" cx="226.17679368704557" cy="1355.1511876750737" rx="8" ry="8"/><ellipse fill="#EAD7D1" cx="278.2572725554928" cy="1451.525954902172" rx="8" ry="8"/><ellipse fill="#EAD7D1" cx="201.38897083234042" cy="1563.8172077015042" rx="8" ry="8"/><ellipse fill="#EAD7D1" cx="265.953470999375" cy="1608.1609977874905" rx="8" ry="8"/><ellipse fill="#EAD7D1" cx="283.8758484926075" cy="1715.6097159255296" rx="8" ry="8"/><ellipse fill="#EAD7D1" cx="285.1286621764302" cy="1805.5835048668087" rx="8" ry="8"/><ellipse fill="#EAD7D1" cx="267.17746085487306" cy="1912.0636171428487" rx="8" ry="8"/><ellipse fill="#EAD7D1" cx="372.65797457657754" cy="91.30720354150981" rx="8" ry="8"/><ellipse fill="#EAD7D1" cx="378.92054363619536" cy="174.2632019566372" rx="8" ry="8"/><ellipse fill="#EAD7D1" cx="381.78976711351424" cy="215.3575544245541" rx="8" ry="8"/><ellipse fill="#EAD7D1" cx="392.69675901159644" cy="363.30842026509345" rx="8" ry="8"/><ellipse fill="#EAD7D1" cx="322.8500869125128" cy="469.5407441817224" rx="8" ry="8"/><ellipse fill="#EAD7D1" cx="351.2562926393002" cy="577.6246118359268" rx="8" ry="8"/><ellipse fill="#EAD7D1" cx="382.0101456483826" cy="627.0902904449031" rx="8" ry="8"/><ellipse fill="#EAD7D1" cx="331.95728114806116" cy="707.4274233542383" rx="8" ry="8"/><ellipse fill="#EAD7D1" cx="376.79324485361576" cy="885.2701329160482" rx="8" ry="8"/><ellipse fill="#EAD7D1" cx="395.4435931285843" cy="944.3494086153805" rx="8" ry="8"/><ellipse fill="#EAD7D1" cx="367.23629275802523" cy="1022.6600328227505" rx="8" ry="8"/><ellipse fill="#EAD7D1" cx="313.18135175388306" cy="1194.4757284829393" rx="8" ry="8"/><ellipse fill="#EAD7D1" cx="383.11429887544364" cy="1285.5736737838015" rx="8" ry="8"/><ellipse fill="#EAD7D1" cx="354.52289956156164" cy="1366.0747316898778" rx="8" ry="8"/><ellipse fill="#EAD7D1" cx="308.0287456745282" cy="1467.3371771816164" rx="8" ry="8"/><ellipse fill="#EAD7D1" cx="305.56801268830895" cy="1517.0140460832044" rx="8" ry="8"/><ellipse fill="#EAD7D1" cx="322.7623290847987" cy="1678.022217238322" rx="8" ry="8"/><ellipse fill="#EAD7D1" cx="319.0916598774493" cy="1708.162638056092" rx="8" ry="8"/><ellipse fill="#EAD7D1" cx="333.63767692353576" cy="1806.5718841040507" rx="8" ry="8"/><ellipse fill="#EAD7D1" cx="383.73788236640394" cy="1991.435751481913" rx="8" ry="8"/><ellipse fill="#EAD7D1" cx="449.0251081297174" cy="77.93251327238977" rx="8" ry="8"/><ellipse fill="#EAD7D1" cx="476.7954775132239" cy="178.10585687402636" rx="8" ry="8"/><ellipse fill="#EAD7D1" cx="486.2560152076185" cy="229.22976042609662" rx="8" ry="8"/><ellipse fill="#EAD7D1" cx="455.76059326995164" cy="358.83076258469373" rx="8" ry="8"/><ellipse fill="#EAD7D1" cx="416.6330561740324" cy="442.24341756198555" rx="8" ry="8"/><ellipse fill="#EAD7D1" cx="430.4323034361005" cy="546.176859154366" rx="8" ry="8"/><ellipse fill="#EAD7D1" cx="465.0360848521814" cy="698.50235034246" rx="8" ry="8"/><ellipse fill="#EAD7D1" cx="408.1912178080529" cy="735.9845805447549" rx="8" ry="8"/><ellipse fill="#EAD7D1" cx="450.66364819649607" cy="819.3908739602193" rx="8" ry="8"/><ellipse fill="#EAD7D1" cx="439.8397237993777" cy="906.7186211934313" rx="8" ry="8"/><ellipse fill="#EAD7D1" cx="401.9136495888233" cy="1085.3552238550037" rx="8" ry="8"/><ellipse fill="#EAD7D1" cx="410.64752666279674" cy="1142.9412688594311" rx="8" ry="8"/><ellipse fill="#EAD7D1" cx="424.94085575453937" cy="1232.1827897336334" rx="8" ry="8"/><ellipse fill="#EAD7D1" cx="463.49008546676487" cy="1321.3269484229386" rx="8" ry="8"/><ellipse fill="#EAD7D1" cx="437.6552731730044" cy="1472.8598316200078" rx="8" ry="8"/><ellipse fill="#EAD7D1" cx="415.40928466711193" cy="1588.9068040298298" rx="8" ry="8"/><ellipse fill="#EAD7D1" cx="463.8518475461751" cy="1657.948944112286" rx="8" ry="8"/><ellipse fill="#EAD7D1" cx="431.1952230753377" cy="1736.3779087783769" rx="8" ry="8"/><ellipse fill="#EAD7D1" cx="438.56086905580014" cy="1814.3271107692271" rx="8" ry="8"/><ellipse fill="#EAD7D1" cx="402.60127417277545" cy="1917.5333911785856" rx="8" ry="8"/><ellipse fill="#EAD7D1" cx="566.0206251777709" cy="86.79163123015314" rx="8" ry="8"/><ellipse fill="#EAD7D1" cx="524.9171428382397" cy="114.66156165115535" rx="8" ry="8"/><ellipse fill="#EAD7D1" cx="583.6569607025012" cy="221.38760020025074" rx="8" ry="8"/><ellipse fill="#EAD7D1" cx="599.5234924834222" cy="360.23186387028545" rx="8" ry="8"/><ellipse fill="#EAD7D1" cx="527.9872278915718" cy="434.5221377676353" rx="8" ry="8"/><ellipse fill="#EAD7D1" cx="539.6560115041211" cy="555.0644534640014" rx="8" ry="8"/><ellipse fill="#EAD7D1" cx="590.5322212493047" cy="624.7625755378976" rx="8" ry="8"/><ellipse fill="#EAD7D1" cx="538.0355254746974" cy="764.0891965478659" rx="8" ry="8"/><ellipse fill="#EAD7D1" cx="590.1832369389012" cy="841.3932346506044" rx="8" ry="8"/><ellipse fill="#EAD7D1" cx="550.5556682590395" cy="916.8871632544324" rx="8" ry="8"/><ellipse fill="#EAD7D1" cx="549.8607575427741" cy="1045.8572707371786" rx="8" ry="8"/><ellipse fill="#EAD7D1" cx="508.4076540078968" cy="1136.0140101518482" rx="8" ry="8"/><ellipse fill="#EAD7D1" cx="538.4547480382025" cy="1220.6903419923037" rx="8" ry="8"/><ellipse fill="#EAD7D1" cx="525.7407009135932" cy="1311.0508936690167" rx="8" ry="8"/><ellipse fill="#EAD7D1" cx="546.8810479389504" cy="1484.6358510898426" rx="8" ry="8"/><ellipse fill="#EAD7D1" cx="547.3399910144508" cy="1541.2854379275814" rx="8" ry="8"/><ellipse fill="#EAD7D1" cx="555.1495068473741" cy="1663.0465066991746" rx="8" ry="8"/><ellipse fill="#EAD7D1" cx="517.3202493228018" cy="1770.3664481872693" rx="8" ry="8"/><ellipse fill="#EAD7D1" cx="548.7943583168089" cy="1843.8150013564155" rx="8" ry="8"/><ellipse fill="#EAD7D1" cx="526.9617333309725" cy="1920.5198504729196" rx="8" ry="8"/><ellipse fill="#EAD7D1" cx="659.8508245777339" cy="87.11787690408528" rx="8" ry="8"/><ellipse fill="#EAD7D1" cx="647.721967403777" cy="142.79606398195028" rx="8" ry="8"/><ellipse fill="#EAD7D1" cx="616.4823708124459" cy="234.9316505715251" rx="8" ry="8"/><ellipse fill="#EAD7D1" cx="603.6355392308906" cy="374.6362491045147" rx="8" ry="8"/><ellipse fill="#EAD7D1" cx="681.6636790987104" cy="483.0120967468247" rx="8" ry="8"/><ellipse fill="#EAD7D1" cx="681.75440474879" cy="512.7687893109396" rx="8" ry="8"/><ellipse fill="#EAD7D1" cx="636.4854648709297" cy="642.1457975171506" rx="8" ry="8"/><ellipse fill="#EAD7D1" cx="647.8900661692023" cy="734.5559682929888" rx="8" ry="8"/><ellipse fill="#EAD7D1" cx="692.6070366287604" cy="867.5306641263887" rx="8" ry="8"/><ellipse fill="#EAD7D1" cx="678.9355797693133" cy="954.2527046520263" rx="8" ry="8"/><ellipse fill="#EAD7D1" cx="698.7160762771964" cy="1056.0732852201909" rx="8" ry="8"/><ellipse fill="#EAD7D1" cx="658.5069610970095" cy="1157.031974522397" rx="8" ry="8"/><ellipse fill="#EAD7D1" cx="619.2200380144641" cy="1231.8732341751456" rx="8" ry="8"/><ellipse fill="#EAD7D1" cx="664.6725225262344" cy="1390.9183026989922" rx="8" ry="8"/><ellipse fill="#EAD7D1" cx="640.7699709292501" cy="1487.4388719908893" rx="8" ry="8"/><ellipse fill="#EAD7D1" cx="676.1966604739428" cy="1549.723464786075" rx="8" ry="8"/><ellipse fill="#EAD7D1" cx="696.6776585904881" cy="1615.3426988283172" rx="8" ry="8"/><ellipse fill="#EAD7D1" cx="629.8837582813576" cy="1761.3532447256148" rx="8" ry="8"/><ellipse fill="#EAD7D1" cx="661.3152529345825" cy="1824.509982462041" rx="8" ry="8"/><ellipse fill="#EAD7D1" cx="646.1920804809779" cy="1926.124223228544" rx="8" ry="8"/><ellipse fill="#EAD7D1" cx="793.7296822667122" cy="71.0885020205751" rx="8" ry="8"/><ellipse fill="#EAD7D1" cx="757.486089412123" cy="187.875380855985" rx="8" ry="8"/><ellipse fill="#EAD7D1" cx="769.7470829356462" cy="268.62427168525755" rx="8" ry="8"/><ellipse fill="#EAD7D1" cx="724.0643597440794" cy="334.99376559630036" rx="8" ry="8"/><ellipse fill="#EAD7D1" cx="761.9993434753269" cy="458.116809790954" rx="8" ry="8"/><ellipse fill="#EAD7D1" cx="779.6192328678444" cy="551.8094717292115" rx="8" ry="8"/><ellipse fill="#EAD7D1" cx="711.7096552625299" cy="628.7062731804326" rx="8" ry="8"/><ellipse fill="#EAD7D1" cx="730.613699904643" cy="732.2942386846989" rx="8" ry="8"/><ellipse fill="#EAD7D1" cx="770.1540144858882" cy="897.8745331754908" rx="8" ry="8"/><ellipse fill="#EAD7D1" cx="775.1929874299094" cy="982.9576234333217" rx="8" ry="8"/><ellipse fill="#EAD7D1" cx="774.6600321261212" cy="1049.5549524435773" rx="8" ry="8"/><ellipse fill="#EAD7D1" cx="737.2466146945953" cy="1116.4499372709543" rx="8" ry="8"/><ellipse fill="#EAD7D1" cx="779.5202668057755" cy="1291.6063107782975" rx="8" ry="8"/><ellipse fill="#EAD7D1" cx="743.3463010238484" cy="1333.007685863413" rx="8" ry="8"/><ellipse fill="#EAD7D1" cx="706.1126797925681" cy="1443.5806322377175" rx="8" ry="8"/><ellipse fill="#EAD7D1" cx="795.4777804668993" cy="1500.6213815882802" rx="8" ry="8"/><ellipse fill="#EAD7D1" cx="766.9471333036199" cy="1696.9410373829305" rx="8" ry="8"/><ellipse fill="#EAD7D1" cx="728.7366704782471" cy="1765.280428971164" rx="8" ry="8"/><ellipse fill="#EAD7D1" cx="710.4795204009861" cy="1815.6819604802877" rx="8" ry="8"/><ellipse fill="#EAD7D1" cx="758.3878199802712" cy="1909.0234932955354" rx="8" ry="8"/><ellipse fill="#EAD7D1" cx="878.6687542917207" cy="79.18208825867623" rx="8" ry="8"/><ellipse fill="#EAD7D1" cx="872.884431341663" cy="155.11593287810683" rx="8" ry="8"/><ellipse fill="#EAD7D1" cx="891.4495322853327" cy="205.7738111820072" rx="8" ry="8"/><ellipse fill="#EAD7D1" cx="819.7006972972304" cy="379.0237087290734" rx="8" ry="8"/><ellipse fill="#EAD7D1" cx="877.6103789685294" cy="467.1406505163759" rx="8" ry="8"/><ellipse fill="#EAD7D1" cx="857.0900229504332" cy="534.8671874031425" rx="8" ry="8"/><ellipse fill="#EAD7D1" cx="802.2172936005518" cy="651.6953096725047" rx="8" ry="8"/><ellipse fill="#EAD7D1" cx="826.8120512599126" cy="744.7102240053937" rx="8" ry="8"/><ellipse fill="#EAD7D1" cx="810.6348566245288" cy="812.4774964060634" rx="8" ry="8"/><ellipse fill="#EAD7D1" cx="884.7240216331556" cy="990.7210973091424" rx="8" ry="8"/><ellipse fill="#EAD7D1" cx="828.4598405472934" cy="1027.3454478476197" rx="8" ry="8"/><ellipse fill="#EAD7D1" cx="894.611329282634" cy="1146.790424361825" rx="8" ry="8"/><ellipse fill="#EAD7D1" cx="833.4025514079258" cy="1269.7897959500551" rx="8" ry="8"/><ellipse fill="#EAD7D1" cx="893.4313018573448" cy="1370.8715162007138" rx="8" ry="8"/><ellipse fill="#EAD7D1" cx="840.0840103859082" cy="1470.5954531440511" rx="8" ry="8"/><ellipse fill="#EAD7D1" cx="801.763125625439" cy="1518.7128052581102" rx="8" ry="8"/><ellipse fill="#EAD7D1" cx="847.285793768242" cy="1606.5847320016474" rx="8" ry="8"/><ellipse fill="#EAD7D1" cx="818.128347187303" cy="1723.588783154264" rx="8" ry="8"/><ellipse fill="#EAD7D1" cx="819.2098709056154" cy="1833.497756626457" rx="8" ry="8"/><ellipse fill="#EAD7D1" cx="847.9913634015247" cy="1993.3896181872115" rx="8" ry="8"/><ellipse fill="#EAD7D1" cx="915.1419185334817" cy="63.29426928423345" rx="8" ry="8"/><ellipse fill="#EAD7D1" cx="955.1690467400476" cy="113.18923896178603" rx="8" ry="8"/><ellipse fill="#EAD7D1" cx="991.4359264774248" cy="296.8834724044427" rx="8" ry="8"/><ellipse fill="#EAD7D1" cx="924.7234500711784" cy="310.8180287992582" rx="8" ry="8"/><ellipse fill="#EAD7D1" cx="974.072627001442" cy="444.1893813665956" rx="8" ry="8"/><ellipse fill="#EAD7D1" cx="932.4736170237884" cy="510.7159827137366" rx="8" ry="8"/><ellipse fill="#EAD7D1" cx="969.0437381854281" cy="629.3706502765417" rx="8" ry="8"/><ellipse fill="#EAD7D1" cx="951.9182903924957" cy="735.3397869504988" rx="8" ry="8"/><ellipse fill="#EAD7D1" cx="931.0111124999821" cy="871.0877259029076" rx="8" ry="8"/><ellipse fill="#EAD7D1" cx="993.6624251073226" cy="999.9838496558368" rx="8" ry="8"/><ellipse fill="#EAD7D1" cx="983.746570488438" cy="1008.7536366423592" rx="8" ry="8"/><ellipse fill="#EAD7D1" cx="929.6670353738591" cy="1132.258216990158" rx="8" ry="8"/><ellipse fill="#EAD7D1" cx="904.543420067057" cy="1209.9202132551" rx="8" ry="8"/><ellipse fill="#EAD7D1" cx="982.9532378586009" cy="1395.6149066332728" rx="8" ry="8"/><ellipse fill="#EAD7D1" cx="975.1721292035654" cy="1484.4448558520526" rx="8" ry="8"/><ellipse fill="#EAD7D1" cx="944.7709587402642" cy="1517.5773746566847" rx="8" ry="8"/><ellipse fill="#EAD7D1" cx="930.776811321266" cy="1622.1011818852276" rx="8" ry="8"/><ellipse fill="#EAD7D1" cx="960.7685678871349" cy="1726.2554570334032" rx="8" ry="8"/><ellipse fill="#EAD7D1" cx="962.7731216372922" cy="1823.6959995003417" rx="8" ry="8"/><ellipse fill="#EAD7D1" cx="905.4273795569316" cy="1965.1256033685058" rx="8" ry="8"/><ellipse fill="#EAD7D1" cx="1018.5191566357389" cy="9.401540271937847" rx="8" ry="8"/><ellipse fill="#EAD7D1" cx="1081.905741780065" cy="180.78151866793633" rx="8" ry="8"/><ellipse fill="#EAD7D1" cx="1096.740827918984" cy="216.3387669948861" rx="8" ry="8"/><ellipse fill="#EAD7D1" cx="1053.7032638443634" cy="313.3799558272585" rx="8" ry="8"/><ellipse fill="#EAD7D1" cx="1051.7762034200132" cy="496.98596380185336" rx="8" ry="8"/><ellipse fill="#EAD7D1" cx="1067.2418341971934" cy="568.0479814764112" rx="8" ry="8"/><ellipse fill="#EAD7D1" cx="1035.9028155682608" cy="664.9654084816575" rx="8" ry="8"/><ellipse fill="#EAD7D1" cx="1045.0965647120029" cy="728.6383434198797" rx="8" ry="8"/><ellipse fill="#EAD7D1" cx="1052.0291950553656" cy="809.356201463379" rx="8" ry="8"/><ellipse fill="#EAD7D1" cx="1000.3544059349224" cy="909.1893984470516" rx="8" ry="8"/><ellipse fill="#EAD7D1" cx="1081.4570773160085" cy="1035.6385422172025" rx="8" ry="8"/><ellipse fill="#EAD7D1" cx="1054.9696083180606" cy="1142.4906045431271" rx="8" ry="8"/><ellipse fill="#EAD7D1" cx="1030.5277607403696" cy="1201.777536701411" rx="8" ry="8"/><ellipse fill="#EAD7D1" cx="1055.4884578566998" cy="1351.2938254745677" rx="8" ry="8"/><ellipse fill="#EAD7D1" cx="1022.4233500426635" cy="1493.0760223884135" rx="8" ry="8"/><ellipse fill="#EAD7D1" cx="1032.6081091770902" cy="1572.0732402056456" rx="8" ry="8"/><ellipse fill="#EAD7D1" cx="1004.3927269754931" cy="1608.9525481685996" rx="8" ry="8"/><ellipse fill="#EAD7D1" cx="1000.1972403377295" cy="1782.7429085737094" rx="8" ry="8"/><ellipse fill="#EAD7D1" cx="1065.709572704509" cy="1898.998876218684" rx="8" ry="8"/><ellipse fill="#EAD7D1" cx="1087.8242323407903" cy="1988.3723352337256" rx="8" ry="8"/><ellipse fill="#EAD7D1" cx="1174.1475927410647" cy="27.39506245125085" rx="8" ry="8"/><ellipse fill="#EAD7D1" cx="1193.4366872068495" cy="111.94485039450228" rx="8" ry="8"/><ellipse fill="#EAD7D1" cx="1156.6269114380702" cy="248.66368854418397" rx="8" ry="8"/><ellipse fill="#EAD7D1" cx="1126.060022925958" cy="367.54161324352026" rx="8" ry="8"/><ellipse fill="#EAD7D1" cx="1141.0852492088452" cy="477.3802732350305" rx="8" ry="8"/><ellipse fill="#EAD7D1" cx="1136.8876855587587" cy="538.1685818079859" rx="8" ry="8"/><ellipse fill="#EAD7D1" cx="1170.0860939454287" cy="646.8511099694297" rx="8" ry="8"/><ellipse fill="#EAD7D1" cx="1190.8681003609672" cy="788.9781003119424" rx="8" ry="8"/><ellipse fill="#EAD7D1" cx="1115.9823454916477" cy="848.1257541570812" rx="8" ry="8"/><ellipse fill="#EAD7D1" cx="1198.3098805882037" cy="927.3142947815359" rx="8" ry="8"/><ellipse fill="#EAD7D1" cx="1120.515425922349" cy="1047.0901935826987" rx="8" ry="8"/><ellipse fill="#EAD7D1" cx="1187.9945702385157" cy="1177.0240329904482" rx="8" ry="8"/><ellipse fill="#EAD7D1" cx="1180.114576779306" cy="1236.642896500416" rx="8" ry="8"/><ellipse fill="#EAD7D1" cx="1103.8952918257564" cy="1318.7189978780225" rx="8" ry="8"/><ellipse fill="#EAD7D1" cx="1127.8813262470067" cy="1471.594513161108" rx="8" ry="8"/><ellipse fill="#EAD7D1" cx="1112.4461298808455" cy="1583.4327347343788" rx="8" ry="8"/><ellipse fill="#EAD7D1" cx="1138.7947596842423" cy="1634.9345864262432" rx="8" ry="8"/><ellipse fill="#EAD7D1" cx="1186.739116674289" cy="1778.5921882139519" rx="8" ry="8"/><ellipse fill="#EAD7D1" cx="1102.8178890934214" cy="1828.656459110789" rx="8" ry="8"/><ellipse fill="#EAD7D1" cx="1114.5268448861316" cy="1979.2709439061582" rx="8" ry="8"/><ellipse fill="#EAD7D1" cx="1270.0524471933022" cy="9.244695259258151" rx="8" ry="8"/><ellipse fill="#EAD7D1" cx="1264.5477386424318" cy="122.39374564960599" rx="8" ry="8"/><ellipse fill="#EAD7D1" cx="1277.1014938596636" cy="258.7394993985072" rx="8" ry="8"/><ellipse fill="#EAD7D1" cx="1250.5006701685488" cy="366.27311003394425" rx="8" ry="8"/><ellipse fill="#EAD7D1" cx="1239.3157880054787" cy="441.42985285725445" rx="8" ry="8"/><ellipse fill="#EAD7D1" cx="1203.5311908693984" cy="596.4445915305987" rx="8" ry="8"/><ellipse fill="#EAD7D1" cx="1220.5200134776533" cy="687.540477886796" rx="8" ry="8"/><ellipse fill="#EAD7D1" cx="1240.8620305592194" cy="759.5059763174504" rx="8" ry="8"/><ellipse fill="#EAD7D1" cx="1214.6186362253502" cy="853.2828588038683" rx="8" ry="8"/><ellipse fill="#EAD7D1" cx="1291.7542450129986" cy="974.7959442203864" rx="8" ry="8"/><ellipse fill="#EAD7D1" cx="1294.307933561504" cy="1061.8438580539078" rx="8" ry="8"/><ellipse fill="#EAD7D1" cx="1222.0665743108839" cy="1115.8941416302696" rx="8" ry="8"/><ellipse fill="#EAD7D1" cx="1207.5378018664196" cy="1256.297121127136" rx="8" ry="8"/><ellipse fill="#EAD7D1" cx="1251.966573880054" cy="1318.4777487069368" rx="8" ry="8"/><ellipse fill="#EAD7D1" cx="1268.072186410427" cy="1495.0077564222738" rx="8" ry="8"/><ellipse fill="#EAD7D1" cx="1208.0367562361062" cy="1564.3971930025145" rx="8" ry="8"/><ellipse fill="#EAD7D1" cx="1223.4609949635342" cy="1655.8930900879204" rx="8" ry="8"/><ellipse fill="#EAD7D1" cx="1241.610381519422" cy="1709.3814957421273" rx="8" ry="8"/><ellipse fill="#EAD7D1" cx="1294.297637953423" cy="1837.0622092625126" rx="8" ry="8"/><ellipse fill="#EAD7D1" cx="1215.4103020438924" cy="1986.582412198186" rx="8" ry="8"/><ellipse fill="#EAD7D1" cx="1391.6752367978916" cy="80.36604633089155" rx="8" ry="8"/><ellipse fill="#EAD7D1" cx="1387.2217001859099" cy="139.42452652845532" rx="8" ry="8"/><ellipse fill="#EAD7D1" cx="1389.5220640813932" cy="280.7393523864448" rx="8" ry="8"/><ellipse fill="#EAD7D1" cx="1324.3879077257589" cy="320.9466307424009" rx="8" ry="8"/><ellipse fill="#EAD7D1" cx="1325.5174883408472" cy="408.40265857987106" rx="8" ry="8"/><ellipse fill="#EAD7D1" cx="1370.770684024319" cy="517.3408346716315" rx="8" ry="8"/><ellipse fill="#EAD7D1" cx="1306.115911132656" cy="645.0816625496373" rx="8" ry="8"/><ellipse fill="#EAD7D1" cx="1324.9074464198202" cy="704.4507577782497" rx="8" ry="8"/><ellipse fill="#EAD7D1" cx="1383.6274470668286" cy="840.6595661304891" rx="8" ry="8"/><ellipse fill="#EAD7D1" cx="1352.2950949845836" cy="916.4848010055721" rx="8" ry="8"/><ellipse fill="#EAD7D1" cx="1311.5004050545394" cy="1072.1067640464753" rx="8" ry="8"/><ellipse fill="#EAD7D1" cx="1383.9159320108593" cy="1191.585650993511" rx="8" ry="8"/><ellipse fill="#EAD7D1" cx="1329.5881621306762" cy="1242.4769620643929" rx="8" ry="8"/><ellipse fill="#EAD7D1" cx="1378.8358624791726" cy="1344.417493743822" rx="8" ry="8"/><ellipse fill="#EAD7D1" cx="1394.0849231323227" cy="1477.531100763008" rx="8" ry="8"/><ellipse fill="#EAD7D1" cx="1328.1730206450447" cy="1526.1767053743824" rx="8" ry="8"/><ellipse fill="#EAD7D1" cx="1385.7124088332057" cy="1641.0298940027133" rx="8" ry="8"/><ellipse fill="#EAD7D1" cx="1327.042181789875" cy="1788.5884737595916" rx="8" ry="8"/><ellipse fill="#EAD7D1" cx="1383.326289942488" cy="1835.1421586237848" rx="8" ry="8"/><ellipse fill="#EAD7D1" cx="1349.6696044458076" cy="1903.2619069097564" rx="8" ry="8"/><ellipse fill="#EAD7D1" cx="1444.7536677587777" cy="52.518577594310045" rx="8" ry="8"/><ellipse fill="#EAD7D1" cx="1447.9564698645845" cy="158.69525028392673" rx="8" ry="8"/><ellipse fill="#EAD7D1" cx="1412.8130417317152" cy="201.7822433495894" rx="8" ry="8"/><ellipse fill="#EAD7D1" cx="1464.2557891085744" cy="330.17812240868807" rx="8" ry="8"/><ellipse fill="#EAD7D1" cx="1447.570440499112" cy="488.7623554794118" rx="8" ry="8"/><ellipse fill="#EAD7D1" cx="1493.569725449197" cy="518.4894990874454" rx="8" ry="8"/><ellipse fill="#EAD7D1" cx="1497.7227488765493" cy="655.6224249303341" rx="8" ry="8"/><ellipse fill="#EAD7D1" cx="1435.8366324799135" cy="749.3387849535793" rx="8" ry="8"/><ellipse fill="#EAD7D1" cx="1438.5251620784402" cy="885.6173630570993" rx="8" ry="8"/><ellipse fill="#EAD7D1" cx="1407.0177885936573" cy="960.6769948033616" rx="8" ry="8"/><ellipse fill="#EAD7D1" cx="1490.9537845058367" cy="1012.326058652252" rx="8" ry="8"/><ellipse fill="#EAD7D1" cx="1477.8321098303422" cy="1172.0646844478324" rx="8" ry="8"/><ellipse fill="#EAD7D1" cx="1419.5458872243762" cy="1210.897992248647" rx="8" ry="8"/><ellipse fill="#EAD7D1" cx="1485.9308043727651" cy="1360.0480286870152" rx="8" ry="8"/><ellipse fill="#EAD7D1" cx="1435.6344466097653" cy="1413.9817459508777" rx="8" ry="8"/><ellipse fill="#EAD7D1" cx="1405.390756833367" cy="1583.9715061709285" rx="8" ry="8"/><ellipse fill="#EAD7D1" cx="1477.8724398463964" cy="1671.563555765897" rx="8" ry="8"/><ellipse fill="#EAD7D1" cx="1424.7142364969477" cy="1748.6086652614176" rx="8" ry="8"/><ellipse fill="#EAD7D1" cx="1485.6689880602062" cy="1801.0266131488606" rx="8" ry="8"/><ellipse fill="#EAD7D1" cx="1478.8442981429398" cy="1942.8011264419183" rx="8" ry="8"/><ellipse fill="#EAD7D1" cx="1566.7077615391463" cy="79.86030557658523" rx="8" ry="8"/><ellipse fill="#EAD7D1" cx="1560.6686975806952" cy="196.12852812279016" rx="8" ry="8"/><ellipse fill="#EAD7D1" cx="1550.0193229643628" cy="293.58375943265855" rx="8" ry="8"/><ellipse fill="#EAD7D1" cx="1544.343551248312" cy="312.15250531677157" rx="8" ry="8"/><ellipse fill="#EAD7D1" cx="1543.3307619998232" cy="440.1414825813845" rx="8" ry="8"/><ellipse fill="#EAD7D1" cx="1519.1400526557118" cy="548.6589680658653" rx="8" ry="8"/><ellipse fill="#EAD7D1" cx="1539.7123752860352" cy="674.5104206958786" rx="8" ry="8"/><ellipse fill="#EAD7D1" cx="1582.5045038713142" cy="708.6013494525105" rx="8" ry="8"/><ellipse fill="#EAD7D1" cx="1539.7896585520357" cy="824.0545792970806" rx="8" ry="8"/><ellipse fill="#EAD7D1" cx="1502.0109887933359" cy="986.6169537883252" rx="8" ry="8"/><ellipse fill="#EAD7D1" cx="1502.385485288687" cy="1045.5190722597763" rx="8" ry="8"/><ellipse fill="#EAD7D1" cx="1500.610340340063" cy="1184.4349639490247" rx="8" ry="8"/><ellipse fill="#EAD7D1" cx="1504.313845303841" cy="1260.5123489396647" rx="8" ry="8"/><ellipse fill="#EAD7D1" cx="1521.8219704926014" cy="1353.2507891999558" rx="8" ry="8"/><ellipse fill="#EAD7D1" cx="1597.6193556562066" cy="1490.8097228268161" rx="8" ry="8"/><ellipse fill="#EAD7D1" cx="1503.379836678505" cy="1569.2400784697384" rx="8" ry="8"/><ellipse fill="#EAD7D1" cx="1587.6084808725864" cy="1655.0544283119962" rx="8" ry="8"/><ellipse fill="#EAD7D1" cx="1593.1382230948657" cy="1798.5718401148915" rx="8" ry="8"/><ellipse fill="#EAD7D1" cx="1588.3128542685881" cy="1801.603381964378" rx="8" ry="8"/><ellipse fill="#EAD7D1" cx="1581.562239350751" cy="1915.649028471671" rx="8" ry="8"/><ellipse fill="#EAD7D1" cx="1685.362851805985" cy="57.000427157618105" rx="8" ry="8"/><ellipse fill="#EAD7D1" cx="1609.4277346041054" cy="138.90148825012147" rx="8" ry="8"/><ellipse fill="#EAD7D1" cx="1634.5204372424632" cy="218.01239848136902" rx="8" ry="8"/><ellipse fill="#EAD7D1" cx="1670.8538267062977" cy="386.4719149423763" rx="8" ry="8"/><ellipse fill="#EAD7D1" cx="1603.980309725739" cy="429.5892956200987" rx="8" ry="8"/><ellipse fill="#EAD7D1" cx="1658.7010844610631" cy="516.0873132292181" rx="8" ry="8"/><ellipse fill="#EAD7D1" cx="1602.8095704969019" cy="692.4594194162637" rx="8" ry="8"/><ellipse fill="#EAD7D1" cx="1687.4457188881934" cy="791.4182469481602" rx="8" ry="8"/><ellipse fill="#EAD7D1" cx="1679.9827258568257" cy="888.6796120554209" rx="8" ry="8"/><ellipse fill="#EAD7D1" cx="1688.347447826527" cy="911.1862274818122" rx="8" ry="8"/><ellipse fill="#EAD7D1" cx="1678.4857021644711" cy="1077.9826203593984" rx="8" ry="8"/><ellipse fill="#EAD7D1" cx="1687.562517938204" cy="1161.864990927279" rx="8" ry="8"/><ellipse fill="#EAD7D1" cx="1695.7811740227044" cy="1263.3269091835245" rx="8" ry="8"/><ellipse fill="#EAD7D1" cx="1635.3265694109723" cy="1353.365891519934" rx="8" ry="8"/><ellipse fill="#EAD7D1" cx="1689.024451910518" cy="1441.7740793898702" rx="8" ry="8"/><ellipse fill="#EAD7D1" cx="1629.8163317143917" cy="1535.7718208339065" rx="8" ry="8"/><ellipse fill="#EAD7D1" cx="1652.6263518957421" cy="1675.8642410859466" rx="8" ry="8"/><ellipse fill="#EAD7D1" cx="1625.1560972770676" cy="1788.69655278977" rx="8" ry="8"/><ellipse fill="#EAD7D1" cx="1685.733211133629" cy="1882.5116199441254" rx="8" ry="8"/><ellipse fill="#EAD7D1" cx="1681.8368018371984" cy="1993.4634696459398" rx="8" ry="8"/><ellipse fill="#EAD7D1" cx="1758.563434286043" cy="96.92503607366234" rx="8" ry="8"/><ellipse fill="#EAD7D1" cx="1707.9863481456414" cy="169.46579350624233" rx="8" ry="8"/><ellipse fill="#EAD7D1" cx="1725.3458919702098" cy="223.96482932381332" rx="8" ry="8"/><ellipse fill="#EAD7D1" cx="1745.122485421598" cy="307.5260261306539" rx="8" ry="8"/><ellipse fill="#EAD7D1" cx="1715.7174786785617" cy="468.162300856784" rx="8" ry="8"/><ellipse fill="#EAD7D1" cx="1763.7705051572993" cy="500.3853218862787" rx="8" ry="8"/><ellipse fill="#EAD7D1" cx="1728.335314290598" cy="632.705580862239" rx="8" ry="8"/><ellipse fill="#EAD7D1" cx="1742.8316466044635" cy="723.6310217296705" rx="8" ry="8"/><ellipse fill="#EAD7D1" cx="1777.8893270296976" cy="837.7831284189597" rx="8" ry="8"/><ellipse fill="#EAD7D1" cx="1730.7455240748823" cy="932.949496130459" rx="8" ry="8"/><ellipse fill="#EAD7D1" cx="1785.2513956138864" cy="1082.2269263444468" rx="8" ry="8"/><ellipse fill="#EAD7D1" cx="1737.1637550648302" cy="1163.6228519724682" rx="8" ry="8"/><ellipse fill="#EAD7D1" cx="1720.0305978069082" cy="1270.0249314075336" rx="8" ry="8"/><ellipse fill="#EAD7D1" cx="1730.2303309785202" cy="1334.7627420444041" rx="8" ry="8"/><ellipse fill="#EAD7D1" cx="1764.8568481206894" cy="1458.976344903931" rx="8" ry="8"/><ellipse fill="#EAD7D1" cx="1718.1370071368292" cy="1569.9376514414325" rx="8" ry="8"/><ellipse fill="#EAD7D1" cx="1776.4013412874192" cy="1698.0085134040564" rx="8" ry="8"/><ellipse fill="#EAD7D1" cx="1772.788394917734" cy="1793.846769304946" rx="8" ry="8"/><ellipse fill="#EAD7D1" cx="1720.8709509577602" cy="1805.0208296393976" rx="8" ry="8"/><ellipse fill="#EAD7D1" cx="1756.4967634156346" cy="1962.2832695487887" rx="8" ry="8"/><ellipse fill="#EAD7D1" cx="1819.6043334668502" cy="94.27069798111916" rx="8" ry="8"/><ellipse fill="#EAD7D1" cx="1877.0376706728712" cy="153.3416884019971" rx="8" ry="8"/><ellipse fill="#EAD7D1" cx="1897.4279747344553" cy="220.49360547680408" rx="8" ry="8"/><ellipse fill="#EAD7D1" cx="1805.5785459466279" cy="348.732965788804" rx="8" ry="8"/><ellipse fill="#EAD7D1" cx="1841.907966742292" cy="455.9125783154741" rx="8" ry="8"/><ellipse fill="#EAD7D1" cx="1873.3892280841246" cy="522.838352387771" rx="8" ry="8"/><ellipse fill="#EAD7D1" cx="1855.6861487450078" cy="606.0276786796749" rx="8" ry="8"/><ellipse fill="#EAD7D1" cx="1850.627075904049" cy="715.4354754369706" rx="8" ry="8"/><ellipse fill="#EAD7D1" cx="1839.212891808711" cy="830.5252217687666" rx="8" ry="8"/><ellipse fill="#EAD7D1" cx="1815.8466830849648" cy="930.8473197277635" rx="8" ry="8"/><ellipse fill="#EAD7D1" cx="1829.0260375477374" cy="1058.3229806739837" rx="8" ry="8"/><ellipse fill="#EAD7D1" cx="1882.8146087704226" cy="1152.6778529863805" rx="8" ry="8"/><ellipse fill="#EAD7D1" cx="1874.7094857739285" cy="1290.6911349389702" rx="8" ry="8"/><ellipse fill="#EAD7D1" cx="1848.4799000667408" cy="1385.6990448432043" rx="8" ry="8"/><ellipse fill="#EAD7D1" cx="1889.480001735501" cy="1409.9016529740766" rx="8" ry="8"/><ellipse fill="#EAD7D1" cx="1840.2053081663325" cy="1528.8418531185016" rx="8" ry="8"/><ellipse fill="#EAD7D1" cx="1873.8931727129966" cy="1688.5206325910985" rx="8" ry="8"/><ellipse fill="#EAD7D1" cx="1858.5956383496523" cy="1795.0809761416167" rx="8" ry="8"/><ellipse fill="#EAD7D1" cx="1820.084610930644" cy="1834.8126682918519" rx="8" ry="8"/><ellipse fill="#EAD7D1" cx="1846.2582235224545" cy="1948.9504961995408" rx="8" ry="8"/><ellipse fill="#EAD7D1" cx="1994.1584196174517" cy="17.59984081145376" rx="8" ry="8"/><ellipse fill="#EAD7D1" cx="1961.8642437737435" cy="131.69128282461315" rx="8" ry="8"/><ellipse fill="#EAD7D1" cx="1922.9963718447834" cy="223.71690305881202" rx="8" ry="8"/><ellipse fill="#EAD7D1" cx="1961.0827720258385" cy="333.0498334253207" rx="8" ry="8"/><ellipse fill="#EAD7D1" cx="1997.7408324135467" cy="470.3241795068607" rx="8" ry="8"/><ellipse fill="#EAD7D1" cx="1952.7541601331905" cy="564.9995483458042" rx="8" ry="8"/><ellipse fill="#EAD7D1" cx="1983.2350141834468" cy="694.3221968133003" rx="8" ry="8"/><ellipse fill="#EAD7D1" cx="1945.0134392594919" cy="716.6884739184752" rx="8" ry="8"/><ellipse fill="#EAD7D1" cx="1945.66907400731" cy="844.63092579972" rx="8" ry="8"/><ellipse fill="#EAD7D1" cx="1919.3302562693134" cy="971.3201888371259" rx="8" ry="8"/><ellipse fill="#EAD7D1" cx="1944.5154655724764" cy="1002.6582507882267" rx="8" ry="8"/><ellipse fill="#EAD7D1" cx="1941.787733300589" cy="1188.2613371824846" rx="8" ry="8"/><ellipse fill="#EAD7D1" cx="1938.0974303465337" cy="1292.088605905883" rx="8" ry="8"/><ellipse fill="#EAD7D1" cx="1934.5761649077758" cy="1396.9448147108778" rx="8" ry="8"/><ellipse fill="#EAD7D1" cx="1901.2131826486439" cy="1429.2400015052408" rx="8" ry="8"/><ellipse fill="#EAD7D1" cx="1955.4824540391564" cy="1540.2421091217548" rx="8" ry="8"/><ellipse fill="#EAD7D1" cx="1919.276848505251" cy="1661.3210663432255" rx="8" ry="8"/><ellipse fill="#EAD7D1" cx="1903.0962848803028" cy="1734.14359705057" rx="8" ry="8"/><ellipse fill="#EAD7D1" cx="1922.5878789788112" cy="1843.7811175128445" rx="8" ry="8"/><ellipse fill="#EAD7D1" cx="1900.3661149181426" cy="1949.5735531440005" rx="8" ry="8"/></svg>