<svg width="11in" height="8.5in" xmlns="http://www.w3.org/2000/svg" version="1.1"><g transform="translate(0 5130)"><g transform="translate(68.75 0)"><g transform="translate(0 -208.1)"><g><text style="line-height: 1.25" x="76.199997" y="223.97498" fill="#000000" font-family="sans-serif" font-size="10.583px" letter-spacing="0px" stroke-width=".26458" word-spacing="0px" xml:space="preserve"><tspan x="76.199997" y="233.63048" stroke-width=".26458"></tspan></text><rect x="3.1877" y="236.69" width="56.961" height="24.467" fill="#d6d6d6" /><rect x="7.2571" y="265.25" width="28.575" height="4.0821" fill="#b8b8b8" /><rect x="39.914" y="265.25" width="12.246" height="4.0821" fill="#9a9a9a" /><rect x="11.339" y="273.41" width="12.246" height="4.0821" fill="#b8b8b8" /><rect x="3.175" y="273.41" width="4.0821" height="4.0821" fill="#9a9a9a" /><rect x="27.668" y="273.41" width="8.1643" height="4.0821" fill="#9a9a9a" /></g><g fill="#b8b8b8"><rect x="39.914" y="273.41" width="16.329" height="4.0821" /><rect x="7.2571" y="281.58" width="8.1643" height="4.0821" /><rect x="19.504" y="281.58" width="8.1643" height="4.0821" /><rect x="31.75" y="281.58" width="12.246" height="4.0821" /></g><g><rect x="3.175" y="289.74" width="12.246" height="4.0821" fill="#9a9a9a" /><rect x="19.504" y="289.74" width="4.0821" height="4.0821" fill="#b8b8b8" /><rect x="27.668" y="289.74" width="12.246" height="4.0821" fill="#b8b8b8" /><rect x="43.996" y="289.74" width="8.1643" height="4.0821" fill="#9a9a9a" /><rect x="56.243" y="289.74" width="4.0821" height="4.0821" fill="#b8b8b8" /><rect x="56.243" y="265.25" width="4.0821" height="4.0821" fill="#b8b8b8" /><rect x="48.079" y="281.58" width="12.246" height="4.0821" fill="#9a9a9a" /><rect x="3.175" y="217.62" width="25.4" height="6.35" fill="#9a9a9a" /><rect x="31.75" y="217.62" width="6.35" height="6.35" fill="#7c7c7c" /><rect x="41.275" y="217.62" width="19.05" height="6.35" fill="#9a9a9a" /><rect x="3.175" y="227.15" width="15.875" height="6.35" fill="#7c7c7c" /><rect x="22.225" y="227.15" width="19.05" height="6.35" fill="#9a9a9a" /><rect x="44.45" y="227.15" width="15.875" height="6.35" fill="#7c7c7c" /><rect x="12.7" y="211.27" width="38.1" height="3.175" fill="#6b6b6b" /></g><rect y="208.1" width="63.5" height="88.9" fill="#f7f7f7" fill-opacity=".65625" /><g transform="matrix(.45684 -.79126 .79126 .45684 -211.6 212.54)"><text style="font-feature-settings: normal;font-variant-caps: normal;font-variant-ligatures: normal;font-variant-numeric: normal;line-height: 1.25" x="50.258499" y="257.30814" fill="#ff0000" font-family="'Atomic Age'" font-size="14.455px" letter-spacing="0px" stroke-width=".36138" word-spacing="0px" xml:space="preserve"><tspan style="font-feature-settings: normal;font-variant-caps: normal;font-variant-ligatures: normal;font-variant-numeric: normal" x="50.258499" y="257.30814" fill="#ff0000" font-family="'Atomic Age'" font-size="14.455px" stroke-width=".36138">NEWSPAPER</tspan></text><rect x="47.625" y="243.02" width="95.25" height="19.05" rx="5" ry="5" fill="none" stroke="#f00" stroke-linecap="square" stroke-width="1.2335" /></g></g></g><g transform="translate(137.5 0)"><g transform="translate(0 -208.1)"><g><text style="line-height: 1.25" x="76.199997" y="223.97498" fill="#000000" font-family="sans-serif" font-size="10.583px" letter-spacing="0px" stroke-width=".26458" word-spacing="0px" xml:space="preserve"><tspan x="76.199997" y="233.63048" stroke-width=".26458"></tspan></text><rect x="3.1877" y="236.69" width="56.961" height="24.467" fill="#d6d6d6" /><rect x="7.2571" y="265.25" width="28.575" height="4.0821" fill="#b8b8b8" /><rect x="39.914" y="265.25" width="12.246" height="4.0821" fill="#9a9a9a" /><rect x="11.339" y="273.41" width="12.246" height="4.0821" fill="#b8b8b8" /><rect x="3.175" y="273.41" width="4.0821" height="4.0821" fill="#9a9a9a" /><rect x="27.668" y="273.41" width="8.1643" height="4.0821" fill="#9a9a9a" /></g><g fill="#b8b8b8"><rect x="39.914" y="273.41" width="16.329" height="4.0821" /><rect x="7.2571" y="281.58" width="8.1643" height="4.0821" /><rect x="19.504" y="281.58" width="8.1643" height="4.0821" /><rect x="31.75" y="281.58" width="12.246" height="4.0821" /></g><g><rect x="3.175" y="289.74" width="12.246" height="4.0821" fill="#9a9a9a" /><rect x="19.504" y="289.74" width="4.0821" height="4.0821" fill="#b8b8b8" /><rect x="27.668" y="289.74" width="12.246" height="4.0821" fill="#b8b8b8" /><rect x="43.996" y="289.74" width="8.1643" height="4.0821" fill="#9a9a9a" /><rect x="56.243" y="289.74" width="4.0821" height="4.0821" fill="#b8b8b8" /><rect x="56.243" y="265.25" width="4.0821" height="4.0821" fill="#b8b8b8" /><rect x="48.079" y="281.58" width="12.246" height="4.0821" fill="#9a9a9a" /><rect x="3.175" y="217.62" width="25.4" height="6.35" fill="#9a9a9a" /><rect x="31.75" y="217.62" width="6.35" height="6.35" fill="#7c7c7c" /><rect x="41.275" y="217.62" width="19.05" height="6.35" fill="#9a9a9a" /><rect x="3.175" y="227.15" width="15.875" height="6.35" fill="#7c7c7c" /><rect x="22.225" y="227.15" width="19.05" height="6.35" fill="#9a9a9a" /><rect x="44.45" y="227.15" width="15.875" height="6.35" fill="#7c7c7c" /><rect x="12.7" y="211.27" width="38.1" height="3.175" fill="#6b6b6b" /></g><rect y="208.1" width="63.5" height="88.9" fill="#f7f7f7" fill-opacity=".65625" /><g transform="matrix(.45684 -.79126 .79126 .45684 -211.6 212.54)"><text style="font-feature-settings: normal;font-variant-caps: normal;font-variant-ligatures: normal;font-variant-numeric: normal;line-height: 1.25" x="50.258499" y="257.30814" fill="#ff0000" font-family="'Atomic Age'" font-size="14.455px" letter-spacing="0px" stroke-width=".36138" word-spacing="0px" xml:space="preserve"><tspan style="font-feature-settings: normal;font-variant-caps: normal;font-variant-ligatures: normal;font-variant-numeric: normal" x="50.258499" y="257.30814" fill="#ff0000" font-family="'Atomic Age'" font-size="14.455px" stroke-width=".36138">NEWSPAPER</tspan></text><rect x="47.625" y="243.02" width="95.25" height="19.05" rx="5" ry="5" fill="none" stroke="#f00" stroke-linecap="square" stroke-width="1.2335" /></g></g></g><g transform="translate(206.25000000000003 0)"><g transform="translate(0 -208.1)"><g><text style="line-height: 1.25" x="76.199997" y="223.97498" fill="#000000" font-family="sans-serif" font-size="10.583px" letter-spacing="0px" stroke-width=".26458" word-spacing="0px" xml:space="preserve"><tspan x="76.199997" y="233.63048" stroke-width=".26458"></tspan></text><rect x="3.1877" y="236.69" width="56.961" height="24.467" fill="#d6d6d6" /><rect x="7.2571" y="265.25" width="28.575" height="4.0821" fill="#b8b8b8" /><rect x="39.914" y="265.25" width="12.246" height="4.0821" fill="#9a9a9a" /><rect x="11.339" y="273.41" width="12.246" height="4.0821" fill="#b8b8b8" /><rect x="3.175" y="273.41" width="4.0821" height="4.0821" fill="#9a9a9a" /><rect x="27.668" y="273.41" width="8.1643" height="4.0821" fill="#9a9a9a" /></g><g fill="#b8b8b8"><rect x="39.914" y="273.41" width="16.329" height="4.0821" /><rect x="7.2571" y="281.58" width="8.1643" height="4.0821" /><rect x="19.504" y="281.58" width="8.1643" height="4.0821" /><rect x="31.75" y="281.58" width="12.246" height="4.0821" /></g><g><rect x="3.175" y="289.74" width="12.246" height="4.0821" fill="#9a9a9a" /><rect x="19.504" y="289.74" width="4.0821" height="4.0821" fill="#b8b8b8" /><rect x="27.668" y="289.74" width="12.246" height="4.0821" fill="#b8b8b8" /><rect x="43.996" y="289.74" width="8.1643" height="4.0821" fill="#9a9a9a" /><rect x="56.243" y="289.74" width="4.0821" height="4.0821" fill="#b8b8b8" /><rect x="56.243" y="265.25" width="4.0821" height="4.0821" fill="#b8b8b8" /><rect x="48.079" y="281.58" width="12.246" height="4.0821" fill="#9a9a9a" /><rect x="3.175" y="217.62" width="25.4" height="6.35" fill="#9a9a9a" /><rect x="31.75" y="217.62" width="6.35" height="6.35" fill="#7c7c7c" /><rect x="41.275" y="217.62" width="19.05" height="6.35" fill="#9a9a9a" /><rect x="3.175" y="227.15" width="15.875" height="6.35" fill="#7c7c7c" /><rect x="22.225" y="227.15" width="19.05" height="6.35" fill="#9a9a9a" /><rect x="44.45" y="227.15" width="15.875" height="6.35" fill="#7c7c7c" /><rect x="12.7" y="211.27" width="38.1" height="3.175" fill="#6b6b6b" /></g><rect y="208.1" width="63.5" height="88.9" fill="#f7f7f7" fill-opacity=".65625" /><g transform="matrix(.45684 -.79126 .79126 .45684 -211.6 212.54)"><text style="font-feature-settings: normal;font-variant-caps: normal;font-variant-ligatures: normal;font-variant-numeric: normal;line-height: 1.25" x="50.258499" y="257.30814" fill="#ff0000" font-family="'Atomic Age'" font-size="14.455px" letter-spacing="0px" stroke-width=".36138" word-spacing="0px" xml:space="preserve"><tspan style="font-feature-settings: normal;font-variant-caps: normal;font-variant-ligatures: normal;font-variant-numeric: normal" x="50.258499" y="257.30814" fill="#ff0000" font-family="'Atomic Age'" font-size="14.455px" stroke-width=".36138">NEWSPAPER</tspan></text><rect x="47.625" y="243.02" width="95.25" height="19.05" rx="5" ry="5" fill="none" stroke="#f00" stroke-linecap="square" stroke-width="1.2335" /></g></g></g><g transform="translate(0 99.00000000000001)"><g transform="translate(0 -208.1)"><g><text style="line-height: 1.25" x="76.199997" y="223.97498" fill="#000000" font-family="sans-serif" font-size="10.583px" letter-spacing="0px" stroke-width=".26458" word-spacing="0px" xml:space="preserve"><tspan x="76.199997" y="233.63048" stroke-width=".26458"></tspan></text><rect x="3.1877" y="236.69" width="56.961" height="24.467" fill="#d6d6d6" /><rect x="7.2571" y="265.25" width="28.575" height="4.0821" fill="#b8b8b8" /><rect x="39.914" y="265.25" width="12.246" height="4.0821" fill="#9a9a9a" /><rect x="11.339" y="273.41" width="12.246" height="4.0821" fill="#b8b8b8" /><rect x="3.175" y="273.41" width="4.0821" height="4.0821" fill="#9a9a9a" /><rect x="27.668" y="273.41" width="8.1643" height="4.0821" fill="#9a9a9a" /></g><g fill="#b8b8b8"><rect x="39.914" y="273.41" width="16.329" height="4.0821" /><rect x="7.2571" y="281.58" width="8.1643" height="4.0821" /><rect x="19.504" y="281.58" width="8.1643" height="4.0821" /><rect x="31.75" y="281.58" width="12.246" height="4.0821" /></g><g><rect x="3.175" y="289.74" width="12.246" height="4.0821" fill="#9a9a9a" /><rect x="19.504" y="289.74" width="4.0821" height="4.0821" fill="#b8b8b8" /><rect x="27.668" y="289.74" width="12.246" height="4.0821" fill="#b8b8b8" /><rect x="43.996" y="289.74" width="8.1643" height="4.0821" fill="#9a9a9a" /><rect x="56.243" y="289.74" width="4.0821" height="4.0821" fill="#b8b8b8" /><rect x="56.243" y="265.25" width="4.0821" height="4.0821" fill="#b8b8b8" /><rect x="48.079" y="281.58" width="12.246" height="4.0821" fill="#9a9a9a" /><rect x="3.175" y="217.62" width="25.4" height="6.35" fill="#9a9a9a" /><rect x="31.75" y="217.62" width="6.35" height="6.35" fill="#7c7c7c" /><rect x="41.275" y="217.62" width="19.05" height="6.35" fill="#9a9a9a" /><rect x="3.175" y="227.15" width="15.875" height="6.35" fill="#7c7c7c" /><rect x="22.225" y="227.15" width="19.05" height="6.35" fill="#9a9a9a" /><rect x="44.45" y="227.15" width="15.875" height="6.35" fill="#7c7c7c" /><rect x="12.7" y="211.27" width="38.1" height="3.175" fill="#6b6b6b" /></g><rect y="208.1" width="63.5" height="88.9" fill="#f7f7f7" fill-opacity=".65625" /><g transform="matrix(.45684 -.79126 .79126 .45684 -211.6 212.54)"><text style="font-feature-settings: normal;font-variant-caps: normal;font-variant-ligatures: normal;font-variant-numeric: normal;line-height: 1.25" x="50.258499" y="257.30814" fill="#ff0000" font-family="'Atomic Age'" font-size="14.455px" letter-spacing="0px" stroke-width=".36138" word-spacing="0px" xml:space="preserve"><tspan style="font-feature-settings: normal;font-variant-caps: normal;font-variant-ligatures: normal;font-variant-numeric: normal" x="50.258499" y="257.30814" fill="#ff0000" font-family="'Atomic Age'" font-size="14.455px" stroke-width=".36138">NEWSPAPER</tspan></text><rect x="47.625" y="243.02" width="95.25" height="19.05" rx="5" ry="5" fill="none" stroke="#f00" stroke-linecap="square" stroke-width="1.2335" /></g></g></g><g transform="translate(68.75 99.00000000000001)"><g transform="translate(0 -208.1)"><g><text style="line-height: 1.25" x="76.199997" y="223.97498" fill="#000000" font-family="sans-serif" font-size="10.583px" letter-spacing="0px" stroke-width=".26458" word-spacing="0px" xml:space="preserve"><tspan x="76.199997" y="233.63048" stroke-width=".26458"></tspan></text><rect x="3.1877" y="236.69" width="56.961" height="24.467" fill="#d6d6d6" /><rect x="7.2571" y="265.25" width="28.575" height="4.0821" fill="#b8b8b8" /><rect x="39.914" y="265.25" width="12.246" height="4.0821" fill="#9a9a9a" /><rect x="11.339" y="273.41" width="12.246" height="4.0821" fill="#b8b8b8" /><rect x="3.175" y="273.41" width="4.0821" height="4.0821" fill="#9a9a9a" /><rect x="27.668" y="273.41" width="8.1643" height="4.0821" fill="#9a9a9a" /></g><g fill="#b8b8b8"><rect x="39.914" y="273.41" width="16.329" height="4.0821" /><rect x="7.2571" y="281.58" width="8.1643" height="4.0821" /><rect x="19.504" y="281.58" width="8.1643" height="4.0821" /><rect x="31.75" y="281.58" width="12.246" height="4.0821" /></g><g><rect x="3.175" y="289.74" width="12.246" height="4.0821" fill="#9a9a9a" /><rect x="19.504" y="289.74" width="4.0821" height="4.0821" fill="#b8b8b8" /><rect x="27.668" y="289.74" width="12.246" height="4.0821" fill="#b8b8b8" /><rect x="43.996" y="289.74" width="8.1643" height="4.0821" fill="#9a9a9a" /><rect x="56.243" y="289.74" width="4.0821" height="4.0821" fill="#b8b8b8" /><rect x="56.243" y="265.25" width="4.0821" height="4.0821" fill="#b8b8b8" /><rect x="48.079" y="281.58" width="12.246" height="4.0821" fill="#9a9a9a" /><rect x="3.175" y="217.62" width="25.4" height="6.35" fill="#9a9a9a" /><rect x="31.75" y="217.62" width="6.35" height="6.35" fill="#7c7c7c" /><rect x="41.275" y="217.62" width="19.05" height="6.35" fill="#9a9a9a" /><rect x="3.175" y="227.15" width="15.875" height="6.35" fill="#7c7c7c" /><rect x="22.225" y="227.15" width="19.05" height="6.35" fill="#9a9a9a" /><rect x="44.45" y="227.15" width="15.875" height="6.35" fill="#7c7c7c" /><rect x="12.7" y="211.27" width="38.1" height="3.175" fill="#6b6b6b" /></g><rect y="208.1" width="63.5" height="88.9" fill="#f7f7f7" fill-opacity=".65625" /><g transform="matrix(.45684 -.79126 .79126 .45684 -211.6 212.54)"><text style="font-feature-settings: normal;font-variant-caps: normal;font-variant-ligatures: normal;font-variant-numeric: normal;line-height: 1.25" x="50.258499" y="257.30814" fill="#ff0000" font-family="'Atomic Age'" font-size="14.455px" letter-spacing="0px" stroke-width=".36138" word-spacing="0px" xml:space="preserve"><tspan style="font-feature-settings: normal;font-variant-caps: normal;font-variant-ligatures: normal;font-variant-numeric: normal" x="50.258499" y="257.30814" fill="#ff0000" font-family="'Atomic Age'" font-size="14.455px" stroke-width=".36138">NEWSPAPER</tspan></text><rect x="47.625" y="243.02" width="95.25" height="19.05" rx="5" ry="5" fill="none" stroke="#f00" stroke-linecap="square" stroke-width="1.2335" /></g></g></g><g transform="translate(137.5 99.00000000000001)"><g transform="translate(0 -208.1)"><g><text style="line-height: 1.25" x="76.199997" y="223.97498" fill="#000000" font-family="sans-serif" font-size="10.583px" letter-spacing="0px" stroke-width=".26458" word-spacing="0px" xml:space="preserve"><tspan x="76.199997" y="233.63048" stroke-width=".26458"></tspan></text><rect x="3.1877" y="236.69" width="56.961" height="24.467" fill="#d6d6d6" /><rect x="7.2571" y="265.25" width="28.575" height="4.0821" fill="#b8b8b8" /><rect x="39.914" y="265.25" width="12.246" height="4.0821" fill="#9a9a9a" /><rect x="11.339" y="273.41" width="12.246" height="4.0821" fill="#b8b8b8" /><rect x="3.175" y="273.41" width="4.0821" height="4.0821" fill="#9a9a9a" /><rect x="27.668" y="273.41" width="8.1643" height="4.0821" fill="#9a9a9a" /></g><g fill="#b8b8b8"><rect x="39.914" y="273.41" width="16.329" height="4.0821" /><rect x="7.2571" y="281.58" width="8.1643" height="4.0821" /><rect x="19.504" y="281.58" width="8.1643" height="4.0821" /><rect x="31.75" y="281.58" width="12.246" height="4.0821" /></g><g><rect x="3.175" y="289.74" width="12.246" height="4.0821" fill="#9a9a9a" /><rect x="19.504" y="289.74" width="4.0821" height="4.0821" fill="#b8b8b8" /><rect x="27.668" y="289.74" width="12.246" height="4.0821" fill="#b8b8b8" /><rect x="43.996" y="289.74" width="8.1643" height="4.0821" fill="#9a9a9a" /><rect x="56.243" y="289.74" width="4.0821" height="4.0821" fill="#b8b8b8" /><rect x="56.243" y="265.25" width="4.0821" height="4.0821" fill="#b8b8b8" /><rect x="48.079" y="281.58" width="12.246" height="4.0821" fill="#9a9a9a" /><rect x="3.175" y="217.62" width="25.4" height="6.35" fill="#9a9a9a" /><rect x="31.75" y="217.62" width="6.35" height="6.35" fill="#7c7c7c" /><rect x="41.275" y="217.62" width="19.05" height="6.35" fill="#9a9a9a" /><rect x="3.175" y="227.15" width="15.875" height="6.35" fill="#7c7c7c" /><rect x="22.225" y="227.15" width="19.05" height="6.35" fill="#9a9a9a" /><rect x="44.45" y="227.15" width="15.875" height="6.35" fill="#7c7c7c" /><rect x="12.7" y="211.27" width="38.1" height="3.175" fill="#6b6b6b" /></g><rect y="208.1" width="63.5" height="88.9" fill="#f7f7f7" fill-opacity=".65625" /><g transform="matrix(.45684 -.79126 .79126 .45684 -211.6 212.54)"><text style="font-feature-settings: normal;font-variant-caps: normal;font-variant-ligatures: normal;font-variant-numeric: normal;line-height: 1.25" x="50.258499" y="257.30814" fill="#ff0000" font-family="'Atomic Age'" font-size="14.455px" letter-spacing="0px" stroke-width=".36138" word-spacing="0px" xml:space="preserve"><tspan style="font-feature-settings: normal;font-variant-caps: normal;font-variant-ligatures: normal;font-variant-numeric: normal" x="50.258499" y="257.30814" fill="#ff0000" font-family="'Atomic Age'" font-size="14.455px" stroke-width=".36138">NEWSPAPER</tspan></text><rect x="47.625" y="243.02" width="95.25" height="19.05" rx="5" ry="5" fill="none" stroke="#f00" stroke-linecap="square" stroke-width="1.2335" /></g></g></g><g transform="translate(206.25000000000003 99.00000000000001)"><g transform="translate(0 -208.1)"><g><text style="line-height: 1.25" x="76.199997" y="223.97498" fill="#000000" font-family="sans-serif" font-size="10.583px" letter-spacing="0px" stroke-width=".26458" word-spacing="0px" xml:space="preserve"><tspan x="76.199997" y="233.63048" stroke-width=".26458"></tspan></text><rect x="3.1877" y="236.69" width="56.961" height="24.467" fill="#d6d6d6" /><rect x="7.2571" y="265.25" width="28.575" height="4.0821" fill="#b8b8b8" /><rect x="39.914" y="265.25" width="12.246" height="4.0821" fill="#9a9a9a" /><rect x="11.339" y="273.41" width="12.246" height="4.0821" fill="#b8b8b8" /><rect x="3.175" y="273.41" width="4.0821" height="4.0821" fill="#9a9a9a" /><rect x="27.668" y="273.41" width="8.1643" height="4.0821" fill="#9a9a9a" /></g><g fill="#b8b8b8"><rect x="39.914" y="273.41" width="16.329" height="4.0821" /><rect x="7.2571" y="281.58" width="8.1643" height="4.0821" /><rect x="19.504" y="281.58" width="8.1643" height="4.0821" /><rect x="31.75" y="281.58" width="12.246" height="4.0821" /></g><g><rect x="3.175" y="289.74" width="12.246" height="4.0821" fill="#9a9a9a" /><rect x="19.504" y="289.74" width="4.0821" height="4.0821" fill="#b8b8b8" /><rect x="27.668" y="289.74" width="12.246" height="4.0821" fill="#b8b8b8" /><rect x="43.996" y="289.74" width="8.1643" height="4.0821" fill="#9a9a9a" /><rect x="56.243" y="289.74" width="4.0821" height="4.0821" fill="#b8b8b8" /><rect x="56.243" y="265.25" width="4.0821" height="4.0821" fill="#b8b8b8" /><rect x="48.079" y="281.58" width="12.246" height="4.0821" fill="#9a9a9a" /><rect x="3.175" y="217.62" width="25.4" height="6.35" fill="#9a9a9a" /><rect x="31.75" y="217.62" width="6.35" height="6.35" fill="#7c7c7c" /><rect x="41.275" y="217.62" width="19.05" height="6.35" fill="#9a9a9a" /><rect x="3.175" y="227.15" width="15.875" height="6.35" fill="#7c7c7c" /><rect x="22.225" y="227.15" width="19.05" height="6.35" fill="#9a9a9a" /><rect x="44.45" y="227.15" width="15.875" height="6.35" fill="#7c7c7c" /><rect x="12.7" y="211.27" width="38.1" height="3.175" fill="#6b6b6b" /></g><rect y="208.1" width="63.5" height="88.9" fill="#f7f7f7" fill-opacity=".65625" /><g transform="matrix(.45684 -.79126 .79126 .45684 -211.6 212.54)"><text style="font-feature-settings: normal;font-variant-caps: normal;font-variant-ligatures: normal;font-variant-numeric: normal;line-height: 1.25" x="50.258499" y="257.30814" fill="#ff0000" font-family="'Atomic Age'" font-size="14.455px" letter-spacing="0px" stroke-width=".36138" word-spacing="0px" xml:space="preserve"><tspan style="font-feature-settings: normal;font-variant-caps: normal;font-variant-ligatures: normal;font-variant-numeric: normal" x="50.258499" y="257.30814" fill="#ff0000" font-family="'Atomic Age'" font-size="14.455px" stroke-width=".36138">NEWSPAPER</tspan></text><rect x="47.625" y="243.02" width="95.25" height="19.05" rx="5" ry="5" fill="none" stroke="#f00" stroke-linecap="square" stroke-width="1.2335" /></g></g></g><g transform="translate(0 0)"><g transform="translate(0 -208.1)"><g><text style="line-height: 1.25" x="76.199997" y="223.97498" fill="#000000" font-family="sans-serif" font-size="10.583px" letter-spacing="0px" stroke-width=".26458" word-spacing="0px" xml:space="preserve"><tspan x="76.199997" y="233.63048" stroke-width=".26458"></tspan></text><rect x="3.1877" y="236.69" width="56.961" height="24.467" fill="#d6d6d6" /><rect x="7.2571" y="265.25" width="28.575" height="4.0821" fill="#b8b8b8" /><rect x="39.914" y="265.25" width="12.246" height="4.0821" fill="#9a9a9a" /><rect x="11.339" y="273.41" width="12.246" height="4.0821" fill="#b8b8b8" /><rect x="3.175" y="273.41" width="4.0821" height="4.0821" fill="#9a9a9a" /><rect x="27.668" y="273.41" width="8.1643" height="4.0821" fill="#9a9a9a" /></g><g fill="#b8b8b8"><rect x="39.914" y="273.41" width="16.329" height="4.0821" /><rect x="7.2571" y="281.58" width="8.1643" height="4.0821" /><rect x="19.504" y="281.58" width="8.1643" height="4.0821" /><rect x="31.75" y="281.58" width="12.246" height="4.0821" /></g><g><rect x="3.175" y="289.74" width="12.246" height="4.0821" fill="#9a9a9a" /><rect x="19.504" y="289.74" width="4.0821" height="4.0821" fill="#b8b8b8" /><rect x="27.668" y="289.74" width="12.246" height="4.0821" fill="#b8b8b8" /><rect x="43.996" y="289.74" width="8.1643" height="4.0821" fill="#9a9a9a" /><rect x="56.243" y="289.74" width="4.0821" height="4.0821" fill="#b8b8b8" /><rect x="56.243" y="265.25" width="4.0821" height="4.0821" fill="#b8b8b8" /><rect x="48.079" y="281.58" width="12.246" height="4.0821" fill="#9a9a9a" /><rect x="3.175" y="217.62" width="25.4" height="6.35" fill="#9a9a9a" /><rect x="31.75" y="217.62" width="6.35" height="6.35" fill="#7c7c7c" /><rect x="41.275" y="217.62" width="19.05" height="6.35" fill="#9a9a9a" /><rect x="3.175" y="227.15" width="15.875" height="6.35" fill="#7c7c7c" /><rect x="22.225" y="227.15" width="19.05" height="6.35" fill="#9a9a9a" /><rect x="44.45" y="227.15" width="15.875" height="6.35" fill="#7c7c7c" /><rect x="12.7" y="211.27" width="38.1" height="3.175" fill="#6b6b6b" /></g><rect y="208.1" width="63.5" height="88.9" fill="#f7f7f7" fill-opacity=".65625" /><g transform="matrix(.45684 -.79126 .79126 .45684 -211.6 212.54)"><text style="font-feature-settings: normal;font-variant-caps: normal;font-variant-ligatures: normal;font-variant-numeric: normal;line-height: 1.25" x="50.258499" y="257.30814" fill="#ff0000" font-family="'Atomic Age'" font-size="14.455px" letter-spacing="0px" stroke-width=".36138" word-spacing="0px" xml:space="preserve"><tspan style="font-feature-settings: normal;font-variant-caps: normal;font-variant-ligatures: normal;font-variant-numeric: normal" x="50.258499" y="257.30814" fill="#ff0000" font-family="'Atomic Age'" font-size="14.455px" stroke-width=".36138">NEWSPAPER</tspan></text><rect x="47.625" y="243.02" width="95.25" height="19.05" rx="5" ry="5" fill="none" stroke="#f00" stroke-linecap="square" stroke-width="1.2335" /></g></g></g></g></svg>